<svg width="72" height="72" viewBox="0 0 72 72" fill="none" xmlns="http://www.w3.org/2000/svg">
<circle cx="36" cy="36" r="36" fill="#D2EED7"/>
<path d="M12.3251 26.4156L12.9873 25.419L12.672 24.8597L12.662 24.8419C12.2043 24.0301 11.8927 23.0884 11.7392 22.11C11.7139 21.9508 11.6932 21.7915 11.6772 21.632C11.5742 20.6347 11.6344 19.6152 11.87 18.6694C11.9499 18.3484 12.0866 17.9697 12.257 17.5783C12.5005 16.9738 12.8129 16.3969 13.1894 15.8615C13.3074 15.687 13.425 15.5286 13.5388 15.3932C13.5894 15.3329 13.641 15.2733 13.6935 15.2143C14.3861 14.4099 15.2408 13.7281 16.2382 13.2269C16.9012 12.8936 17.4125 12.6916 17.9827 12.5676C18.5887 12.4181 19.4951 12.3547 20.3384 12.3807C21.032 12.3903 21.595 12.467 22.1772 12.6421C22.8071 12.8226 23.4202 13.0869 24.0037 13.4268C24.4987 13.6846 24.783 13.8777 25.1884 14.2552C25.6353 14.6246 26.0551 15.0427 26.4404 15.5046L26.4874 15.561L26.8717 15.9532L27.9912 15.6669C30.5519 15.012 33.0129 14.7211 35.981 14.7226L36.0424 14.7227L36.0774 14.7227L36.1038 14.7226C39.0719 14.7211 41.5329 15.012 44.0936 15.6669L45.2131 15.9532L45.5974 15.561L45.6444 15.5046C46.0297 15.0427 46.4495 14.6246 46.8964 14.2552C47.3018 13.8777 47.5861 13.6846 48.0811 13.4268C48.6646 13.0869 49.2777 12.8226 49.9076 12.6421C50.4898 12.467 51.0528 12.3903 51.7464 12.3807C52.5897 12.3547 53.4961 12.4181 54.1021 12.5676C54.6723 12.6916 55.1836 12.8936 55.8466 13.2269C56.8439 13.7281 57.6987 14.4099 58.3913 15.2143C58.4438 15.2733 58.4954 15.3329 58.546 15.3932C58.6598 15.5286 58.7775 15.687 58.8954 15.8615C59.272 16.397 59.5843 16.9738 59.8278 17.5783C59.9982 17.9697 60.1348 18.3484 60.2148 18.6694C60.4503 19.6149 60.5105 20.634 60.4077 21.6311C60.3916 21.7911 60.3709 21.9512 60.3454 22.1109C60.1919 23.089 59.8804 24.0303 59.4228 24.8419L59.4128 24.8597L59.0975 25.419L59.7597 26.4156C64.7822 33.9749 63.8567 43.3126 57.7418 50.4047C57.4952 50.6907 57.3535 50.8483 57.0932 51.1217C56.1992 52.061 55.6965 52.4983 54.7242 53.289C54.1965 53.718 53.8521 53.9671 53.3394 54.3442C52.3265 55.0892 50.578 55.9949 50.578 55.9949C50.578 55.9949 50.0304 56.234 49.6 56.4471C47.7915 57.3421 45.7761 58.014 43.2247 58.6799C42.1029 58.9726 41.4728 59.1484 40.3275 59.3259C39.4417 59.4632 38.9389 59.5033 38.0446 59.5619C36.4841 59.6643 34.8782 59.6255 34.0402 59.5619C33.3668 59.5422 32.6431 59.4632 31.7573 59.3259C30.612 59.1484 29.9819 58.9726 28.8601 58.6799C26.3087 58.014 24.8533 57.6134 22.4848 56.4471C18.9379 54.7005 17.1635 53.4354 14.343 50.4047C7.96569 43.5521 7.30257 33.9749 12.3251 26.4156Z" fill="#202020"/>
<path d="M57.3075 26.7544C53.4589 21.6975 47.0752 18.2966 39.7289 17.3894C33.2271 16.5866 26.4614 18.0267 21.0665 21.3616C19.4494 22.3612 18.1419 23.4167 16.7247 24.8665C13.8235 27.8344 12.1398 31.0431 11.5512 34.726C11.3528 35.9669 11.3527 38.5242 11.5509 39.762C12.1886 43.7443 14.0818 47.1285 17.5037 50.4396C19.3223 52.1994 20.5693 52.9718 22.7923 54.1682C28.0838 57.0159 32.6178 57.5693 37.8376 57.2661C43.2402 56.9524 47.9883 55.405 52.1279 52.6087C57.7684 48.7986 60.988 43.216 60.988 37.2456C60.988 33.4698 59.7648 29.9831 57.3075 26.7544Z" fill="white"/>
<path fill-rule="evenodd" clip-rule="evenodd" d="M26.028 28.5466C23.1771 29.1495 20.2781 31.7257 19.159 34.6505C18.4424 36.5232 18.618 38.9534 19.6044 40.8167C19.6182 40.8428 19.6316 40.8682 19.6447 40.893C19.6456 40.8946 19.6464 40.8962 19.6473 40.8978C19.6482 40.8996 19.6492 40.9013 19.6501 40.9031C19.9291 41.4307 20.046 41.652 20.2184 41.7127C20.3429 41.7565 20.4963 41.7166 20.7605 41.6479C20.7718 41.645 20.7832 41.642 20.7949 41.639C20.8033 41.6368 20.8118 41.6346 20.8204 41.6324C21.6756 41.4114 22.9549 41.2449 23.7934 41.2457C25.1865 41.247 27.2401 41.6843 28.1887 42.1818L28.5026 42.3463L29.0141 41.7689C30.1117 40.5296 31.2129 38.257 31.5616 36.5106C31.7944 35.3454 31.7748 33.5841 31.5169 32.4923C30.919 29.9614 29.4912 28.5095 27.5251 28.4331C27.079 28.4157 26.4054 28.4668 26.028 28.5466ZM30.2253 34.514C30.1453 33.0914 29.5804 32.0324 28.6961 31.6474C28.2769 31.4648 27.2829 31.4673 26.7 31.6523C24.935 32.2127 23.2778 34.1271 23.1074 35.8024C22.9523 37.328 23.8245 39.0006 25.0691 39.5638C25.6745 39.8377 26.6181 39.8518 27.3653 39.5981C28.4739 39.2217 29.5128 37.9402 30.0029 36.3445C30.2388 35.577 30.2703 35.3168 30.2253 34.514Z" fill="#202020"/>
<path fill-rule="evenodd" clip-rule="evenodd" d="M43.6112 28.5617C40.7189 29.5042 39.4882 33.9115 40.9605 38.0536C41.4795 39.5141 42.434 41.1608 43.1967 41.9119L43.6022 42.311L44.2464 42.047C45.6347 41.4779 46.6266 41.3058 48.4523 41.3173C49.7934 41.3259 50.3144 41.3738 50.9849 41.5501L51.8291 41.7721L52.0579 41.4911C53.0869 40.2269 53.6211 37.524 53.2114 35.6548C52.5442 32.6111 49.7969 29.7034 46.6584 28.7189C45.6783 28.4114 44.2918 28.34 43.6112 28.5617ZM47.6289 33.1357C46.9929 32.4525 46.3118 31.998 45.499 31.7141C44.1933 31.2583 43.0475 31.535 42.48 32.4433C41.5842 33.8769 41.6148 35.6809 42.5662 37.525C43.778 39.8737 46.3942 40.5384 47.9183 38.8849C48.4931 38.2612 48.7785 37.6383 48.9298 36.6771C49.1225 35.453 48.69 34.2755 47.6289 33.1357Z" fill="#202020"/>
<path fill-rule="evenodd" clip-rule="evenodd" d="M34.6044 41.8318C33.6805 42.0953 32.8197 42.7699 32.5775 43.4206C32.5158 43.5864 32.4653 43.9181 32.4653 44.1577C32.4653 44.5177 32.5301 44.6552 32.8391 44.951C33.2372 45.3319 34.109 45.6604 35.077 45.7938L35.631 45.8702V47.955V50.0399L35.1298 49.966C33.9828 49.797 32.3454 48.9499 31.2743 47.9714C30.7853 47.5246 30.7727 47.4982 30.8782 47.1377C30.9879 46.762 30.9449 46.4441 30.7512 46.1983C30.674 46.1003 30.5686 46.2305 30.356 46.6865C30.0939 47.249 29.316 48.099 29.0632 48.099C29.0123 48.099 28.9998 48.1472 29.0357 48.2061C29.1215 48.347 29.785 48.3436 30.0477 48.201C30.2213 48.1068 30.3508 48.1726 30.8585 48.6133C32.6548 50.1724 34.196 50.8176 36.1059 50.8101C37.8337 50.8033 39.3016 50.1972 41.04 48.7729C41.8031 48.1477 41.9125 48.0903 42.1409 48.196C42.4504 48.339 43.0884 48.3501 43.1714 48.2139C43.2047 48.1592 43.1406 48.085 43.0291 48.0491C42.7102 47.9464 41.9737 47.072 41.7377 46.5162L41.5233 46.0107L41.3635 46.3183C41.2203 46.5939 41.2135 46.8844 41.34 47.3408C41.4022 47.5651 39.8034 48.8346 38.8668 49.3046C38.1363 49.6712 37.0129 50.0213 36.5544 50.0251C36.3848 50.0266 36.3697 49.8564 36.3697 47.9384V45.8501L36.6071 45.8482C36.7377 45.8472 37.1565 45.7793 37.5377 45.6972C39.3558 45.306 39.9846 44.5251 39.4409 43.3334C39.1797 42.7607 38.7682 42.3883 38.0059 42.0344C37.4684 41.785 37.2066 41.7358 36.2647 41.7077C35.5187 41.6853 34.9757 41.7259 34.6044 41.8318ZM34.6055 44.3585C35.3572 44.1067 35.8582 43.2005 35.4519 42.8273C35.1344 42.5356 34.4831 42.4938 33.9775 42.7326C33.4887 42.9634 33.3095 43.2189 33.3095 43.6845C33.3095 44.2457 33.9492 44.5783 34.6055 44.3585Z" fill="#202020"/>
<path fill-rule="evenodd" clip-rule="evenodd" d="M26.3831 33.4188C25.4318 33.8573 24.5509 35.0368 24.5509 35.8721C24.5509 36.8237 25.1877 37.8314 25.9146 38.03C27.3002 38.4087 28.6303 37.1196 28.749 35.2828C28.8334 33.9764 28.2884 33.2102 27.2783 33.2153C27.0261 33.2166 26.6232 33.3082 26.3831 33.4188ZM28.1325 35.2541C28.442 34.94 28.4147 34.4584 28.0717 34.1847C27.9188 34.0626 27.7407 33.9634 27.676 33.9643C27.4059 33.9679 27.0273 34.2547 26.9329 34.5274C26.7051 35.1849 27.6416 35.7523 28.1325 35.2541Z" fill="#202020"/>
<path fill-rule="evenodd" clip-rule="evenodd" d="M43.5157 33.4033C42.7637 33.8761 42.5709 35.335 43.1092 36.4794C43.5684 37.4557 44.0608 37.9001 44.8828 38.0796C46.0317 38.3306 47.1936 36.9863 46.9831 35.6499C46.7276 34.028 44.6564 32.686 43.5157 33.4033ZM43.9598 35.462C44.5603 35.462 44.8885 34.6438 44.4618 34.2107C44.2092 33.9543 43.8123 33.9408 43.5145 34.1785C42.9744 34.6097 43.2702 35.462 43.9598 35.462Z" fill="#202020"/>
<path fill-rule="evenodd" clip-rule="evenodd" d="M19.159 34.6505C20.2781 31.7257 23.1771 29.1495 26.028 28.5466C26.4054 28.4668 27.079 28.4157 27.5251 28.4331C29.4912 28.5095 30.919 29.9614 31.5169 32.4923C31.7748 33.5841 31.7944 35.3454 31.5616 36.5106C31.2129 38.257 30.1117 40.5296 29.0141 41.7689L28.5026 42.3463L28.1887 42.1818C27.2401 41.6843 25.1865 41.247 23.7934 41.2457C22.9549 41.2449 21.6756 41.4114 20.8204 41.6324L20.7949 41.639L20.7605 41.6479C20.4963 41.7166 20.3429 41.7565 20.2184 41.7127C20.046 41.652 19.9291 41.4307 19.6501 40.9031L19.6473 40.8978L19.6447 40.893C19.6316 40.8682 19.6182 40.8428 19.6044 40.8167C18.618 38.9534 18.4424 36.5232 19.159 34.6505ZM40.9605 38.0536C39.4882 33.9115 40.7189 29.5042 43.6112 28.5617C44.2918 28.34 45.6783 28.4114 46.6584 28.7189C49.7969 29.7034 52.5442 32.6111 53.2114 35.6548C53.6211 37.524 53.0869 40.2269 52.0579 41.4911L51.8291 41.7721L50.9849 41.5501C50.3144 41.3738 49.7934 41.3259 48.4523 41.3173C46.6266 41.3058 45.6347 41.4779 44.2464 42.047L43.6022 42.311L43.1967 41.9119C42.434 41.1608 41.4795 39.5141 40.9605 38.0536ZM32.5775 43.4206C32.8197 42.7699 33.6805 42.0953 34.6044 41.8318C34.9757 41.7259 35.5187 41.6853 36.2647 41.7077C37.2066 41.7358 37.4684 41.785 38.0059 42.0344C38.7682 42.3883 39.1797 42.7607 39.4409 43.3334C39.9846 44.5251 39.3558 45.306 37.5377 45.6972C37.1565 45.7793 36.7377 45.8472 36.6071 45.8482L36.3697 45.8501V47.9384C36.3697 49.8564 36.3848 50.0266 36.5544 50.0251C37.0129 50.0213 38.1363 49.6712 38.8668 49.3046C39.8034 48.8346 41.4022 47.5651 41.34 47.3408C41.2135 46.8844 41.2203 46.5939 41.3635 46.3183L41.5233 46.0107L41.7377 46.5162C41.9737 47.072 42.7102 47.9464 43.0291 48.0491C43.1406 48.085 43.2047 48.1592 43.1714 48.2139C43.0884 48.3501 42.4504 48.339 42.1409 48.196C41.9125 48.0903 41.8031 48.1477 41.04 48.7729C39.3016 50.1972 37.8337 50.8033 36.1059 50.8101C34.196 50.8176 32.6548 50.1724 30.8585 48.6133C30.3508 48.1726 30.2213 48.1068 30.0477 48.201C29.785 48.3436 29.1215 48.347 29.0357 48.2061C28.9998 48.1472 29.0123 48.099 29.0632 48.099C29.316 48.099 30.0939 47.249 30.356 46.6865C30.5686 46.2305 30.674 46.1003 30.7512 46.1983C30.9449 46.4441 30.9879 46.762 30.8782 47.1377C30.7727 47.4982 30.7853 47.5246 31.2743 47.9714C32.3454 48.9499 33.9828 49.797 35.1298 49.966L35.631 50.0399V47.955V45.8702L35.077 45.7938C34.109 45.6604 33.2372 45.3319 32.8391 44.951C32.5301 44.6552 32.4653 44.5177 32.4653 44.1577C32.4653 43.9181 32.5158 43.5864 32.5775 43.4206ZM47.6289 33.1357C46.9929 32.4525 46.3118 31.998 45.499 31.7141C44.1933 31.2583 43.0475 31.535 42.48 32.4433C41.5842 33.8769 41.6148 35.6809 42.5662 37.525C43.778 39.8737 46.3942 40.5384 47.9183 38.8849C48.4931 38.2612 48.7785 37.6383 48.9298 36.6771C49.1225 35.453 48.69 34.2755 47.6289 33.1357ZM30.2253 34.514C30.1453 33.0914 29.5804 32.0324 28.6961 31.6474C28.2769 31.4648 27.2829 31.4673 26.7 31.6523C24.935 32.2127 23.2778 34.1271 23.1074 35.8024C22.9523 37.328 23.8245 39.0006 25.0691 39.5638C25.6745 39.8377 26.6181 39.8518 27.3653 39.5981C28.4739 39.2217 29.5128 37.9402 30.0029 36.3445C30.2388 35.577 30.2703 35.3168 30.2253 34.514ZM26.3831 33.4188C25.4318 33.8573 24.5509 35.0368 24.5509 35.8721C24.5509 36.8237 25.1877 37.8314 25.9146 38.03C27.3002 38.4087 28.6303 37.1196 28.749 35.2828C28.8334 33.9764 28.2884 33.2102 27.2783 33.2153C27.0261 33.2166 26.6232 33.3082 26.3831 33.4188ZM28.0717 34.1847C28.4147 34.4584 28.442 34.94 28.1325 35.2541C27.6416 35.7523 26.7051 35.1849 26.9329 34.5274C27.0273 34.2547 27.4059 33.9679 27.676 33.9643C27.7407 33.9634 27.9188 34.0626 28.0717 34.1847ZM34.6055 44.3585C35.3572 44.1067 35.8582 43.2005 35.4519 42.8273C35.1344 42.5356 34.4831 42.4938 33.9775 42.7326C33.4887 42.9634 33.3095 43.2189 33.3095 43.6845C33.3095 44.2457 33.9492 44.5783 34.6055 44.3585Z" fill="#202020"/>
</svg>
