<svg width="32" height="32" viewBox="0 0 32 32" fill="none" xmlns="http://www.w3.org/2000/svg">
<path opacity="0.6" d="M13.4803 5.33594C13.3736 5.73594 13.3337 6.17594 13.3337 6.66927V10.6693H6.66699V8.0026C6.66699 6.53594 7.86699 5.33594 9.33366 5.33594H13.4803Z" fill="#1DAA39"/>
<path d="M13.3337 25.3307V10.6641H6.66699C4.00033 10.6641 2.66699 11.9974 2.66699 14.6641V25.3307C2.66699 27.9974 4.00033 29.3307 6.66699 29.3307H17.3337C14.667 29.3307 13.3337 27.9974 13.3337 25.3307ZM9.00033 22.6641C9.00033 23.2107 8.54699 23.6641 8.00033 23.6641C7.45366 23.6641 7.00033 23.2107 7.00033 22.6641V17.3307C7.00033 16.7841 7.45366 16.3307 8.00033 16.3307C8.54699 16.3307 9.00033 16.7841 9.00033 17.3307V22.6641Z" fill="#1DAA39"/>
<path opacity="0.4" d="M18.6663 29.3307H17.333C14.6663 29.3307 13.333 27.9974 13.333 25.3307V6.66406C13.333 3.9974 14.6663 2.66406 17.333 2.66406H25.333C27.9997 2.66406 29.333 3.9974 29.333 6.66406V25.3307C29.333 27.9974 27.9997 29.3307 25.333 29.3307H23.9997" fill="#1DAA39"/>
<path d="M24.0003 23.9974V29.3307H18.667V23.9974C18.667 23.2641 19.267 22.6641 20.0003 22.6641H22.667C23.4003 22.6641 24.0003 23.2641 24.0003 23.9974Z" fill="#1DAA39"/>
<path d="M18.667 18.3307C18.1203 18.3307 17.667 17.8774 17.667 17.3307V10.6641C17.667 10.1174 18.1203 9.66406 18.667 9.66406C19.2137 9.66406 19.667 10.1174 19.667 10.6641V17.3307C19.667 17.8774 19.2137 18.3307 18.667 18.3307Z" fill="#1DAA39"/>
<path d="M24 18.3307C23.4533 18.3307 23 17.8774 23 17.3307V10.6641C23 10.1174 23.4533 9.66406 24 9.66406C24.5467 9.66406 25 10.1174 25 10.6641V17.3307C25 17.8774 24.5467 18.3307 24 18.3307Z" fill="#1DAA39"/>
</svg>
