<svg width="18" height="21" viewBox="0 0 18 21" fill="none" xmlns="http://www.w3.org/2000/svg">
<path d="M15.0636 19.2032L15.0631 19.2029L10.1875 16.4954C10.1867 16.4949 10.1859 16.4945 10.1851 16.494C9.83624 16.2964 9.40877 16.2125 9.00906 16.2125C8.60803 16.2125 8.17911 16.2969 7.82697 16.4932C7.82691 16.4932 7.82684 16.4933 7.82678 16.4933L2.94914 19.202C2.94888 19.2022 2.94862 19.2023 2.94835 19.2024C2.25493 19.584 1.73444 19.5526 1.41655 19.3654C1.09893 19.1784 0.820312 18.7395 0.820312 17.95V3.86C0.820312 2.0153 2.3273 0.5 4.18031 0.5H13.8203C15.6725 0.5 17.181 2.01472 17.1903 3.86119V17.95C17.1903 18.7459 16.9108 19.1864 16.5941 19.3729C16.2776 19.5593 15.7579 19.5899 15.0636 19.2032Z" fill="#1DAA39" stroke="#1DAA39"/>
</svg>
