<svg width="20" height="22" viewBox="0 0 20 22" fill="none" xmlns="http://www.w3.org/2000/svg">
<path d="M15.7092 20.8564L15.7093 20.8563L15.7031 20.8529L10.8231 18.1429L10.8219 18.1422C10.5746 18.0058 10.2652 17.96 10.0053 17.96C9.74544 17.96 9.43603 18.0058 9.18877 18.1422L9.18757 18.1429L4.30757 20.8529L4.30749 20.8529C3.42259 21.3445 2.60954 21.353 2.03675 21.0107L2.0326 21.0083C1.45909 20.6731 1.07031 19.9586 1.07031 18.95V4.86C1.07031 2.59614 2.91645 0.75 5.18031 0.75H14.8303C17.0942 0.75 18.9403 2.59614 18.9403 4.86V18.95C18.9403 19.9586 18.5515 20.6731 17.978 21.0083L17.978 21.0083L17.9731 21.0113C17.7084 21.17 17.399 21.25 17.0703 21.25C16.6567 21.25 16.1817 21.1276 15.7092 20.8564ZM11.0535 17.7049L11.0576 17.7071L15.9332 20.4146C15.9339 20.4151 15.9347 20.4155 15.9354 20.4159C16.495 20.7335 17.1811 20.9006 17.7176 20.5787C18.249 20.2599 18.4303 19.5945 18.4303 18.95V4.86C18.4303 2.87386 16.8065 1.25 14.8203 1.25H5.18031C3.19417 1.25 1.57031 2.87386 1.57031 4.86V18.95C1.57031 19.5845 1.74704 20.2752 2.29381 20.585C2.81989 20.8831 3.49435 20.7399 4.0652 20.4159C4.06596 20.4155 4.06671 20.4151 4.06746 20.4146L8.94306 17.7071L8.94307 17.7071L8.94711 17.7048C9.22531 17.5469 9.59556 17.46 10.0003 17.46C10.4051 17.46 10.7753 17.5469 11.0535 17.7049Z" fill="#1DAA39" stroke="#1DAA39"/>
</svg>
