<svg width="25" height="25" viewBox="0 0 25 25" fill="none" xmlns="http://www.w3.org/2000/svg">
<path d="M8.5 6.64062C8.09 6.64062 7.75 6.30062 7.75 5.89062V2.89062C7.75 2.48063 8.09 2.14062 8.5 2.14062C8.91 2.14062 9.25 2.48063 9.25 2.89062V5.89062C9.25 6.30062 8.91 6.64062 8.5 6.64062Z" fill="#D3D3D3"/>
<path d="M16.5 6.64062C16.09 6.64062 15.75 6.30062 15.75 5.89062V2.89062C15.75 2.48063 16.09 2.14062 16.5 2.14062C16.91 2.14062 17.25 2.48063 17.25 2.89062V5.89062C17.25 6.30062 16.91 6.64062 16.5 6.64062Z" fill="#D3D3D3"/>
<path d="M21 10.7344H4C3.59 10.7344 3.25 10.3944 3.25 9.98438C3.25 9.57438 3.59 9.23438 4 9.23438H21C21.41 9.23438 21.75 9.57438 21.75 9.98438C21.75 10.3944 21.41 10.7344 21 10.7344Z" fill="#D3D3D3"/>
<path d="M16.5 23.6406H8.5C4.85 23.6406 2.75 21.5406 2.75 17.8906V9.39062C2.75 5.74062 4.85 3.64062 8.5 3.64062H16.5C20.15 3.64062 22.25 5.74062 22.25 9.39062V17.8906C22.25 21.5406 20.15 23.6406 16.5 23.6406ZM8.5 5.14062C5.64 5.14062 4.25 6.53063 4.25 9.39062V17.8906C4.25 20.7506 5.64 22.1406 8.5 22.1406H16.5C19.36 22.1406 20.75 20.7506 20.75 17.8906V9.39062C20.75 6.53063 19.36 5.14062 16.5 5.14062H8.5Z" fill="#D3D3D3"/>
<path d="M9 15.3906C8.87 15.3906 8.74 15.3606 8.62 15.3106C8.5 15.2607 8.39001 15.1906 8.29001 15.1006C8.20001 15.0006 8.12999 14.8906 8.07999 14.7706C8.02999 14.6506 8 14.5206 8 14.3906C8 14.1306 8.11001 13.8706 8.29001 13.6806C8.39001 13.5906 8.5 13.5206 8.62 13.4706C8.8 13.3906 9.00001 13.3706 9.20001 13.4106C9.26001 13.4206 9.32 13.4406 9.38 13.4706C9.44 13.4906 9.5 13.5207 9.56 13.5607C9.61 13.6007 9.65999 13.6406 9.70999 13.6806C9.74999 13.7306 9.79999 13.7806 9.82999 13.8306C9.86999 13.8906 9.90001 13.9506 9.92001 14.0106C9.95001 14.0706 9.97001 14.1306 9.98001 14.1906C9.99001 14.2606 10 14.3206 10 14.3906C10 14.6506 9.88999 14.9106 9.70999 15.1006C9.51999 15.2806 9.26 15.3906 9 15.3906Z" fill="#D3D3D3"/>
<path d="M12.5 15.3895C12.24 15.3895 11.98 15.2795 11.79 15.0995C11.75 15.0495 11.71 14.9995 11.67 14.9495C11.63 14.8895 11.6 14.8295 11.58 14.7695C11.55 14.7095 11.53 14.6495 11.52 14.5895C11.51 14.5195 11.5 14.4595 11.5 14.3895C11.5 14.2595 11.53 14.1295 11.58 14.0095C11.63 13.8895 11.7 13.7795 11.79 13.6795C12.07 13.3995 12.52 13.3095 12.88 13.4695C13.01 13.5195 13.11 13.5895 13.21 13.6795C13.39 13.8695 13.5 14.1295 13.5 14.3895C13.5 14.4595 13.49 14.5195 13.48 14.5895C13.47 14.6495 13.45 14.7095 13.42 14.7695C13.4 14.8295 13.37 14.8895 13.33 14.9495C13.29 14.9995 13.25 15.0495 13.21 15.0995C13.11 15.1895 13.01 15.2595 12.88 15.3095C12.76 15.3595 12.63 15.3895 12.5 15.3895Z" fill="#D3D3D3"/>
<path d="M9 18.8895C8.87 18.8895 8.74 18.8595 8.62 18.8095C8.5 18.7595 8.39001 18.6895 8.29001 18.5995C8.20001 18.4995 8.12999 18.3995 8.07999 18.2695C8.02999 18.1495 8 18.0195 8 17.8895C8 17.6295 8.11001 17.3695 8.29001 17.1795C8.39001 17.0895 8.5 17.0195 8.62 16.9695C8.99 16.8095 9.42999 16.8995 9.70999 17.1795C9.74999 17.2295 9.79999 17.2795 9.82999 17.3295C9.86999 17.3895 9.90001 17.4495 9.92001 17.5095C9.95001 17.5695 9.97001 17.6295 9.98001 17.6995C9.99001 17.7595 10 17.8295 10 17.8895C10 18.1495 9.88999 18.4095 9.70999 18.5995C9.51999 18.7795 9.26 18.8895 9 18.8895Z" fill="#D3D3D3"/>
</svg>
