<svg width="24" height="25" viewBox="0 0 24 25" fill="none" xmlns="http://www.w3.org/2000/svg">
<path d="M8 6.64062C7.59 6.64062 7.25 6.30062 7.25 5.89062V2.89062C7.25 2.48063 7.59 2.14062 8 2.14062C8.41 2.14062 8.75 2.48063 8.75 2.89062V5.89062C8.75 6.30062 8.41 6.64062 8 6.64062Z" fill="#1DAA39"/>
<path d="M16 6.64062C15.59 6.64062 15.25 6.30062 15.25 5.89062V2.89062C15.25 2.48063 15.59 2.14062 16 2.14062C16.41 2.14062 16.75 2.48063 16.75 2.89062V5.89062C16.75 6.30062 16.41 6.64062 16 6.64062Z" fill="#1DAA39"/>
<path d="M20.5 10.7344H3.5C3.09 10.7344 2.75 10.3944 2.75 9.98438C2.75 9.57438 3.09 9.23438 3.5 9.23438H20.5C20.91 9.23438 21.25 9.57438 21.25 9.98438C21.25 10.3944 20.91 10.7344 20.5 10.7344Z" fill="#1DAA39"/>
<path d="M16 23.6406H8C4.35 23.6406 2.25 21.5406 2.25 17.8906V9.39062C2.25 5.74062 4.35 3.64062 8 3.64062H16C19.65 3.64062 21.75 5.74062 21.75 9.39062V17.8906C21.75 21.5406 19.65 23.6406 16 23.6406ZM8 5.14062C5.14 5.14062 3.75 6.53063 3.75 9.39062V17.8906C3.75 20.7506 5.14 22.1406 8 22.1406H16C18.86 22.1406 20.25 20.7506 20.25 17.8906V9.39062C20.25 6.53063 18.86 5.14062 16 5.14062H8Z" fill="#1DAA39"/>
<path d="M8.5 15.3906C8.37 15.3906 8.24 15.3606 8.12 15.3106C8 15.2607 7.89001 15.1906 7.79001 15.1006C7.70001 15.0006 7.62999 14.8906 7.57999 14.7706C7.52999 14.6506 7.5 14.5206 7.5 14.3906C7.5 14.1306 7.61001 13.8706 7.79001 13.6806C7.89001 13.5906 8 13.5206 8.12 13.4706C8.3 13.3906 8.50001 13.3706 8.70001 13.4106C8.76001 13.4206 8.82 13.4406 8.88 13.4706C8.94 13.4906 9 13.5207 9.06 13.5607C9.11 13.6007 9.15999 13.6406 9.20999 13.6806C9.24999 13.7306 9.29999 13.7806 9.32999 13.8306C9.36999 13.8906 9.40001 13.9506 9.42001 14.0106C9.45001 14.0706 9.47001 14.1306 9.48001 14.1906C9.49001 14.2606 9.5 14.3206 9.5 14.3906C9.5 14.6506 9.38999 14.9106 9.20999 15.1006C9.01999 15.2806 8.76 15.3906 8.5 15.3906Z" fill="#1DAA39"/>
<path d="M12 15.3895C11.74 15.3895 11.48 15.2795 11.29 15.0995C11.25 15.0495 11.21 14.9995 11.17 14.9495C11.13 14.8895 11.1 14.8295 11.08 14.7695C11.05 14.7095 11.03 14.6495 11.02 14.5895C11.01 14.5195 11 14.4595 11 14.3895C11 14.2595 11.03 14.1295 11.08 14.0095C11.13 13.8895 11.2 13.7795 11.29 13.6795C11.57 13.3995 12.02 13.3095 12.38 13.4695C12.51 13.5195 12.61 13.5895 12.71 13.6795C12.89 13.8695 13 14.1295 13 14.3895C13 14.4595 12.99 14.5195 12.98 14.5895C12.97 14.6495 12.95 14.7095 12.92 14.7695C12.9 14.8295 12.87 14.8895 12.83 14.9495C12.79 14.9995 12.75 15.0495 12.71 15.0995C12.61 15.1895 12.51 15.2595 12.38 15.3095C12.26 15.3595 12.13 15.3895 12 15.3895Z" fill="#1DAA39"/>
<path d="M8.5 18.8895C8.37 18.8895 8.24 18.8595 8.12 18.8095C8 18.7595 7.89001 18.6895 7.79001 18.5995C7.70001 18.4995 7.62999 18.3995 7.57999 18.2695C7.52999 18.1495 7.5 18.0195 7.5 17.8895C7.5 17.6295 7.61001 17.3695 7.79001 17.1795C7.89001 17.0895 8 17.0195 8.12 16.9695C8.49 16.8095 8.92999 16.8995 9.20999 17.1795C9.24999 17.2295 9.29999 17.2795 9.32999 17.3295C9.36999 17.3895 9.40001 17.4495 9.42001 17.5095C9.45001 17.5695 9.47001 17.6295 9.48001 17.6995C9.49001 17.7595 9.5 17.8295 9.5 17.8895C9.5 18.1495 9.38999 18.4095 9.20999 18.5995C9.01999 18.7795 8.76 18.8895 8.5 18.8895Z" fill="#1DAA39"/>
</svg>
