<svg width="16" height="16" viewBox="0 0 16 16" fill="none" xmlns="http://www.w3.org/2000/svg">
<path d="M9.92615 12.1504H4.06614C3.71947 12.1504 3.3928 12.1171 3.09947 12.0504C2.94613 12.0304 2.75947 11.9771 2.56614 11.9037C1.67948 11.5704 0.632812 10.7504 0.632812 8.71041V5.27706C0.632812 3.09706 1.88614 1.84375 4.06614 1.84375H9.92615C11.7661 1.84375 12.9528 2.72373 13.2728 4.32373C13.3328 4.61706 13.3595 4.93039 13.3595 5.27706V8.71041C13.3595 10.9037 12.1128 12.1504 9.92615 12.1504ZM4.07279 2.8571C2.43279 2.8571 1.63947 3.65041 1.63947 5.29041V8.72376C1.63947 9.91709 2.05947 10.6504 2.91947 10.9771C3.05281 11.0238 3.17948 11.0571 3.29948 11.0771C3.55281 11.1304 3.79946 11.1571 4.07279 11.1571H9.9328C11.5728 11.1571 12.3661 10.3638 12.3661 8.72376V5.29041C12.3661 5.01041 12.3461 4.76374 12.2995 4.53707C12.0728 3.40374 11.2995 2.8571 9.9328 2.8571H4.07279Z" fill="#1DAA39"/>
<path d="M11.9274 14.1495H6.06738C5.50071 14.1495 4.99404 14.0695 4.56071 13.9028C3.58071 13.5362 2.9407 12.7628 2.7207 11.6562C2.68737 11.4895 2.74071 11.3162 2.86071 11.2028C2.98071 11.0828 3.15405 11.0362 3.32071 11.0762C3.54071 11.1228 3.78738 11.1495 4.06738 11.1495H9.92738C11.5674 11.1495 12.3607 10.3562 12.3607 8.71618V5.28283C12.3607 5.00283 12.3407 4.75616 12.294 4.52949C12.2607 4.36282 12.3141 4.19616 12.4274 4.07616C12.5474 3.95616 12.714 3.90282 12.8807 3.94282C14.4807 4.26949 15.3607 5.45616 15.3607 7.28283V10.7162C15.3607 12.9028 14.1141 14.1495 11.9274 14.1495ZM3.94738 12.1495C4.16072 12.5362 4.48071 12.8095 4.92071 12.9695C5.24071 13.0895 5.62736 13.1495 6.07403 13.1495H11.934C13.574 13.1495 14.3674 12.3562 14.3674 10.7162V7.28283C14.3674 6.22949 14.0407 5.5295 13.3674 5.16283C13.3674 5.20283 13.3674 5.24283 13.3674 5.28283V8.71618C13.3674 10.8962 12.114 12.1495 9.93404 12.1495H4.07403C4.02736 12.1495 3.98738 12.1495 3.94738 12.1495Z" fill="#1DAA39"/>
<path d="M7.0022 9.26221C5.75553 9.26221 4.74219 8.24886 4.74219 7.0022C4.74219 5.75553 5.75553 4.74219 7.0022 4.74219C8.24886 4.74219 9.26221 5.75553 9.26221 7.0022C9.26221 8.24886 8.24886 9.26221 7.0022 9.26221ZM7.0022 5.74219C6.30886 5.74219 5.74219 6.30886 5.74219 7.0022C5.74219 7.69553 6.30886 8.26221 7.0022 8.26221C7.69553 8.26221 8.26221 7.69553 8.26221 7.0022C8.26221 6.30886 7.69553 5.74219 7.0022 5.74219Z" fill="#1DAA39"/>
<path d="M3.1875 8.9646C2.91417 8.9646 2.6875 8.73793 2.6875 8.4646V5.53125C2.6875 5.25792 2.91417 5.03125 3.1875 5.03125C3.46083 5.03125 3.6875 5.25792 3.6875 5.53125V8.4646C3.6875 8.73793 3.4675 8.9646 3.1875 8.9646Z" fill="#1DAA39"/>
<path d="M10.8047 8.9646C10.5314 8.9646 10.3047 8.73793 10.3047 8.4646V5.53125C10.3047 5.25792 10.5314 5.03125 10.8047 5.03125C11.078 5.03125 11.3047 5.25792 11.3047 5.53125V8.4646C11.3047 8.73793 11.0847 8.9646 10.8047 8.9646Z" fill="#1DAA39"/>
</svg>
