<svg width="16" height="16" viewBox="0 0 16 16" fill="none" xmlns="http://www.w3.org/2000/svg">
<path fill-rule="evenodd" clip-rule="evenodd" d="M8.16406 1.33594C11.1967 1.33594 13.6641 3.82194 13.6641 6.87794C13.6641 10.6346 9.36006 14.3359 8.16406 14.3359C6.96806 14.3359 2.66406 10.6346 2.66406 6.87794C2.66406 3.82194 5.1314 1.33594 8.16406 1.33594ZM8.16406 2.33594C5.68273 2.33594 3.66406 4.37394 3.66406 6.87794C3.66406 10.0639 7.4134 13.1679 8.16406 13.3333C8.91473 13.1673 12.6641 10.0633 12.6641 6.87794C12.6641 4.37394 10.6454 2.33594 8.16406 2.33594ZM8.16473 4.66927C9.3594 4.66927 10.3314 5.64127 10.3314 6.8366C10.3314 8.03127 9.3594 9.0026 8.16473 9.0026C6.97006 9.0026 5.99806 8.03127 5.99806 6.8366C5.99806 5.64127 6.97006 4.66927 8.16473 4.66927ZM8.16473 5.66927C7.5214 5.66927 6.99806 6.1926 6.99806 6.8366C6.99806 7.47994 7.5214 8.0026 8.16473 8.0026C8.80806 8.0026 9.3314 7.47994 9.3314 6.8366C9.3314 6.1926 8.80806 5.66927 8.16473 5.66927Z" fill="#1DAA39"/>
</svg>
