<svg width="17" height="16" viewBox="0 0 17 16" fill="none" xmlns="http://www.w3.org/2000/svg">
<path fill-rule="evenodd" clip-rule="evenodd" d="M14.9188 9.826C15.1941 9.84667 15.4001 10.0873 15.3794 10.3627L15.2528 12.0353C15.1481 13.4153 13.9834 14.496 12.6001 14.496H4.86678C3.48345 14.496 2.31878 13.4153 2.21411 12.0353L2.08745 10.3627C2.06678 10.0873 2.27345 9.84667 2.54878 9.826C2.82545 9.816 3.06411 10.0113 3.08545 10.2873L3.21145 11.9593C3.27678 12.8207 4.00345 13.496 4.86678 13.496H12.6001C13.4634 13.496 14.1908 12.8207 14.2554 11.9593L14.3821 10.2873C14.4034 10.0113 14.6481 9.81534 14.9188 9.826ZM9.59358 1.33594C10.5955 1.33594 11.4256 2.08678 11.5506 3.05529L12.8636 3.05587C14.261 3.05587 15.397 4.1952 15.397 5.59654V7.8892C15.397 8.0672 15.3023 8.2312 15.1496 8.32054C13.5041 9.2842 11.4196 9.84628 9.23334 9.92126L9.23358 11.1203C9.23358 11.3963 9.00958 11.6203 8.73358 11.6203C8.45758 11.6203 8.23358 11.3963 8.23358 11.1203L8.23315 9.92142C6.0491 9.84712 3.96442 9.28492 2.31765 8.32054C2.16431 8.2312 2.07031 8.0672 2.07031 7.8892V5.58987C2.07031 4.19254 3.20965 3.05587 4.61031 3.05587L5.91652 3.05529C6.04154 2.08678 6.87162 1.33594 7.87358 1.33594H9.59358ZM12.8636 4.05587H4.61031C3.76098 4.05587 3.07031 4.74387 3.07031 5.58987V7.59787C4.65279 8.45771 6.6478 8.92896 8.72431 8.92987L8.73358 8.929L8.74098 8.92927L9.05841 8.92597C11.0223 8.87918 12.8957 8.41324 14.397 7.59787V5.59654C14.397 4.74654 13.7096 4.05587 12.8636 4.05587ZM9.59358 2.33594H7.87358C7.42468 2.33594 7.04575 2.64145 6.93381 3.05546H10.5333C10.4214 2.64145 10.0425 2.33594 9.59358 2.33594Z" fill="#1DAA39"/>
</svg>
