<svg width="16" height="16" viewBox="0 0 16 16" fill="none" xmlns="http://www.w3.org/2000/svg">
<path d="M8.0026 15.1693C4.04927 15.1693 0.835938 11.9559 0.835938 8.0026C0.835938 4.04927 4.04927 0.835938 8.0026 0.835938C11.9559 0.835938 15.1693 4.04927 15.1693 8.0026C15.1693 11.9559 11.9559 15.1693 8.0026 15.1693ZM8.0026 1.83594C4.6026 1.83594 1.83594 4.6026 1.83594 8.0026C1.83594 11.4026 4.6026 14.1693 8.0026 14.1693C11.4026 14.1693 14.1693 11.4026 14.1693 8.0026C14.1693 4.6026 11.4026 1.83594 8.0026 1.83594Z" fill="#1DAA39"/>
<path d="M10.4711 10.6211C10.3845 10.6211 10.2978 10.6011 10.2178 10.5478L8.15115 9.31448C7.63781 9.00781 7.25781 8.33448 7.25781 7.74115V5.00781C7.25781 4.73448 7.48448 4.50781 7.75781 4.50781C8.03115 4.50781 8.25781 4.73448 8.25781 5.00781V7.74115C8.25781 7.98115 8.45781 8.33448 8.66448 8.45448L10.7311 9.68781C10.9711 9.82781 11.0445 10.1345 10.9045 10.3745C10.8045 10.5345 10.6378 10.6211 10.4711 10.6211Z" fill="#1DAA39"/>
</svg>
