<svg  viewBox="0 0 24 24" fill="none" xmlns="http://www.w3.org/2000/svg">
<path d="M12 22.75C6.07 22.75 1.25 17.93 1.25 12C1.25 6.07 6.07 1.25 12 1.25C17.93 1.25 22.75 6.07 22.75 12C22.75 17.93 17.93 22.75 12 22.75ZM12 2.75C6.9 2.75 2.75 6.9 2.75 12C2.75 17.1 6.9 21.25 12 21.25C17.1 21.25 21.25 17.1 21.25 12C21.25 6.9 17.1 2.75 12 2.75Z" fill="#1DAA39"/>
<path d="M15.7106 15.9278C15.5806 15.9278 15.4506 15.8978 15.3306 15.8178L12.2306 13.9678C11.4606 13.5078 10.8906 12.4978 10.8906 11.6078V7.50781C10.8906 7.09781 11.2306 6.75781 11.6406 6.75781C12.0506 6.75781 12.3906 7.09781 12.3906 7.50781V11.6078C12.3906 11.9678 12.6906 12.4978 13.0006 12.6778L16.1006 14.5278C16.4606 14.7378 16.5706 15.1978 16.3606 15.5578C16.2106 15.7978 15.9606 15.9278 15.7106 15.9278Z" fill="#1DAA39"/>
</svg>
