<svg width="28" height="20" viewBox="0 0 28 20" fill="none" xmlns="http://www.w3.org/2000/svg">
<rect width="28" height="20" rx="2" fill="white"/>
<mask id="mask0_10124_75314" style="mask-type:luminance" maskUnits="userSpaceOnUse" x="0" y="0" width="28" height="20">
<rect width="28" height="20" rx="2" fill="white"/>
</mask>
<g mask="url(#mask0_10124_75314)">
<rect x="13.3359" width="14.6667" height="20" fill="#1AB11F"/>
<path fill-rule="evenodd" clip-rule="evenodd" d="M0 20H9.33333V0H0V20Z" fill="#262626"/>
<path fill-rule="evenodd" clip-rule="evenodd" d="M9.33594 20H18.6693V0H9.33594V20Z" fill="#DC0D18"/>
<path opacity="0.75" d="M12.0026 9.33398C12.0026 8.96579 11.7041 8.66732 11.3359 8.66732C10.9677 8.66732 10.6693 8.96579 10.6693 9.33398H12.0026ZM12.3316 12.2188C12.6501 12.4035 13.0581 12.2952 13.2428 11.9767C13.4276 11.6582 13.3193 11.2503 13.0008 11.0655L12.3316 12.2188ZM15.0783 11.0205C14.7681 11.2189 14.6775 11.6311 14.8758 11.9413C15.0742 12.2515 15.4865 12.3421 15.7967 12.1437L15.0783 11.0205ZM17.3359 9.33398C17.3359 8.96579 17.0375 8.66732 16.6693 8.66732C16.3011 8.66732 16.0026 8.96579 16.0026 9.33398H17.3359ZM10.6693 9.33398C10.6693 10.567 11.3391 11.6429 12.3316 12.2188L13.0008 11.0655C12.4025 10.7184 12.0026 10.0725 12.0026 9.33398H10.6693ZM15.7967 12.1437C16.7209 11.5526 17.3359 10.5154 17.3359 9.33398H16.0026C16.0026 10.0417 15.6355 10.6641 15.0783 11.0205L15.7967 12.1437Z" fill="white"/>
<path fill-rule="evenodd" clip-rule="evenodd" d="M13.9974 10.666C14.7338 10.666 15.3307 9.77059 15.3307 8.66602C15.3307 7.56145 14.7338 6.66602 13.9974 6.66602C13.261 6.66602 12.6641 7.56145 12.6641 8.66602C12.6641 9.77059 13.261 10.666 13.9974 10.666Z" fill="white" fill-opacity="0.5"/>
</g>
</svg>
