<svg width="48" height="48" viewBox="0 0 48 48" fill="none" xmlns="http://www.w3.org/2000/svg">
<path fill-rule="evenodd" clip-rule="evenodd" d="M40.8193 37.5696C45.1432 34.0954 47.8174 29.2969 47.8174 23.9969C47.8174 13.393 37.1131 4.79688 23.9087 4.79688C10.7043 4.79688 0 13.393 0 23.9969C0 34.6007 10.7043 43.1969 23.9087 43.1969C28.4067 43.1969 32.6147 42.1994 36.2082 40.4648L42.1516 41.7696L40.8193 37.5696Z" fill="#1DAA39"/>
<path d="M26.3894 12.3199C30.9568 12.8786 34.9257 14.9733 37.3185 18.088C38.8463 20.0766 39.6068 22.2242 39.6068 24.5498C39.6068 28.2272 37.6051 31.6656 34.0982 34.0124C31.5245 35.7346 28.5725 36.6877 25.2135 36.881C21.9683 37.0677 18.7369 36.4085 15.8595 34.9729L15.3674 34.7273L13.8714 35.0543C13.0486 35.2342 12.3603 35.3662 12.3418 35.3476C12.3234 35.329 12.4578 34.8417 12.6405 34.2647C12.8233 33.6877 12.9702 33.1728 12.9669 33.1203C12.9638 33.0678 12.7857 32.8681 12.5714 32.6764C10.5905 30.9044 9.26683 28.5525 8.87037 26.0997C8.74716 25.3373 8.74723 23.7622 8.87057 22.9979C9.23652 20.7295 10.2833 18.7532 12.0871 16.9252C12.9682 16.0322 13.7811 15.3821 14.7865 14.7664C18.1406 12.7123 22.3471 11.8254 26.3894 12.3199Z" fill="white"/>
<path fill-rule="evenodd" clip-rule="evenodd" d="M12.8635 9.44039C11.8447 9.69216 10.8188 10.3392 10.1064 11.1793C9.70276 11.6552 9.22087 12.5924 9.06886 13.1972C8.75381 14.4503 8.94328 15.9132 9.56125 16.999L9.76352 17.3544L9.35182 17.9683C6.22915 22.6243 6.7277 28.496 10.6064 32.7438L11.0096 33.1854L10.3785 35.1736C10.0315 36.267 9.76378 37.1782 9.78379 37.1982C9.8038 37.2183 10.9694 37.008 12.3741 36.7309C13.7787 36.4537 14.9851 36.2269 15.0549 36.2269C15.1247 36.2269 15.4007 36.3343 15.6684 36.4655C16.7928 37.0168 18.3242 37.5482 19.6321 37.8407C20.0651 37.9376 20.566 38.1203 21.4333 38.2386C21.9062 38.3031 22.434 38.3719 22.8527 38.384C31.3936 38.6316 44.6239 33.3629 40.0604 19.7066C39.9584 19.4013 39.7897 19.0996 39.6073 18.7603C39.3606 18.3016 39.0735 18.0281 38.873 17.7541L38.5083 17.2558L38.7571 16.743C39.9898 14.2021 38.9352 11.1022 36.4103 9.845C35.6726 9.47765 35.2369 9.36908 34.3529 9.33214C33.2846 9.28755 32.7367 9.40048 31.8023 9.85806C31.1845 10.1606 31.0457 10.2639 30.4563 10.8598L29.7992 11.5242L29.1032 11.3479C27.5111 10.9445 25.981 10.7654 24.1357 10.7663C22.3011 10.7671 20.8862 10.939 19.1774 11.3684L18.3947 11.5651L18.1277 11.2479C17.3374 10.3092 16.3133 9.66479 15.2234 9.4204C14.5943 9.27924 13.4771 9.28874 12.8635 9.44039ZM37.319 18.0891C34.9261 14.974 30.9572 12.879 26.3897 12.3202C22.3473 11.8257 18.1408 12.7128 14.7866 14.7671C13.7812 15.3828 12.9683 16.033 12.0872 16.9261C10.2833 18.7543 9.23655 20.7309 8.87059 22.9996C8.74725 23.764 8.74718 25.3393 8.87039 26.1018C9.26686 28.5548 10.5905 30.907 12.5715 32.6792C12.7858 32.8709 12.9639 33.0707 12.967 33.1232C12.9702 33.1757 12.8233 33.6907 12.6406 34.2677C12.4578 34.8448 12.3235 35.3322 12.3419 35.3507C12.3603 35.3693 13.0487 35.2373 13.8715 35.0574L15.3676 34.7304L15.8596 34.976C18.7371 36.4118 21.9685 37.0711 25.2138 36.8843C28.5728 36.691 31.5249 35.7378 34.0986 34.0154C37.6056 31.6683 39.6073 28.2295 39.6073 24.5517C39.6073 22.2257 38.8468 20.0779 37.319 18.0891Z" fill="#3E3E3E"/>
<path fill-rule="evenodd" clip-rule="evenodd" d="M17.9589 19.171C16.1865 19.5423 14.384 21.129 13.6882 22.9305C13.2428 24.0839 13.3519 25.5808 13.9652 26.7284C14.3024 27.3595 14.2792 27.344 14.7212 27.2309C15.2529 27.0947 16.0483 26.9922 16.5696 26.9927C17.4357 26.9935 18.7125 27.2628 19.3023 27.5692L19.4974 27.6706L19.8154 27.315C20.4979 26.5516 21.1825 25.1519 21.3994 24.0762C21.5441 23.3586 21.5319 22.2737 21.3715 21.6012C20.9998 20.0424 20.1121 19.1481 18.8897 19.101C18.6124 19.0904 18.1935 19.1218 17.9589 19.171ZM20.5685 22.8464C20.5188 21.9703 20.1676 21.318 19.6178 21.0808C19.3571 20.9684 18.7391 20.9699 18.3767 21.0839C17.2794 21.429 16.2491 22.6082 16.1431 23.64C16.0467 24.5796 16.589 25.6098 17.3628 25.9567C17.7391 26.1255 18.3258 26.1342 18.7904 25.9779C19.4796 25.746 20.1255 24.9568 20.4303 23.9739C20.5769 23.5012 20.5965 23.3409 20.5685 22.8464Z" fill="#3E3E3E"/>
<path fill-rule="evenodd" clip-rule="evenodd" d="M28.8909 19.1803C27.0927 19.7608 26.3275 22.4753 27.2429 25.0266C27.5656 25.9261 28.159 26.9404 28.6332 27.403L28.8853 27.6489L29.2858 27.4862C30.149 27.1357 30.7657 27.0297 31.9008 27.0368C32.7346 27.0421 33.0585 27.0716 33.4753 27.1802L34.0002 27.3169L34.1425 27.1438C34.7822 26.3652 35.1144 24.7004 34.8596 23.5491C34.4448 21.6744 32.7367 19.8835 30.7854 19.2771C30.1761 19.0877 29.314 19.0437 28.8909 19.1803ZM31.3888 21.9975C30.9934 21.5767 30.57 21.2968 30.0646 21.1219C29.2528 20.8412 28.5404 21.0116 28.1876 21.5711C27.6307 22.454 27.6497 23.5651 28.2412 24.701C28.9946 26.1476 30.6211 26.5571 31.5687 25.5386C31.9261 25.1544 32.1036 24.7708 32.1976 24.1787C32.3174 23.4248 32.0485 22.6995 31.3888 21.9975Z" fill="#3E3E3E"/>
<path fill-rule="evenodd" clip-rule="evenodd" d="M23.2911 27.3537C22.7167 27.5159 22.1815 27.9315 22.031 28.3323C21.9926 28.4344 21.9612 28.6387 21.9612 28.7862C21.9612 29.008 22.0014 29.0927 22.1936 29.2749C22.4411 29.5095 22.9831 29.7118 23.5849 29.794L23.9294 29.841V31.1251V32.4093L23.6177 32.3637C22.9047 32.2597 21.8866 31.7379 21.2207 31.1352C20.9167 30.86 20.9089 30.8438 20.9744 30.6217C21.0426 30.3903 21.0159 30.1945 20.8955 30.0431C20.8475 29.9828 20.7819 30.0629 20.6498 30.3438C20.4868 30.6903 20.0031 31.2138 19.846 31.2138C19.8143 31.2138 19.8066 31.2435 19.8289 31.2798C19.8822 31.3665 20.2948 31.3645 20.4581 31.2766C20.566 31.2186 20.6466 31.2592 20.9622 31.5306C22.079 32.4909 23.0372 32.8883 24.2246 32.8837C25.2989 32.8794 26.2115 32.5062 27.2923 31.6289C27.7667 31.2438 27.8348 31.2084 27.9767 31.2735C28.1692 31.3617 28.5658 31.3684 28.6175 31.2845C28.6381 31.2509 28.5983 31.2052 28.529 31.1831C28.3307 31.1198 27.8728 30.5813 27.7261 30.2389L27.5928 29.9276L27.4934 30.117C27.4044 30.2868 27.4002 30.4657 27.4788 30.7468C27.5175 30.8849 26.5235 31.6669 25.9412 31.9564C25.487 32.1822 24.7885 32.3978 24.5035 32.4002C24.398 32.4011 24.3886 32.2963 24.3886 31.1149V29.8286L24.5363 29.8275C24.6174 29.8268 24.8778 29.785 25.1149 29.7345C26.2452 29.4935 26.6361 29.0126 26.2981 28.2785C26.1357 27.9258 25.8798 27.6964 25.4059 27.4785C25.0718 27.3248 24.909 27.2946 24.3234 27.2772C23.8596 27.2634 23.522 27.2884 23.2911 27.3537ZM23.2918 28.9099C23.7591 28.7548 24.0706 28.1967 23.8181 27.9669C23.6206 27.7872 23.2157 27.7614 22.9014 27.9085C22.5975 28.0506 22.486 28.208 22.486 28.4948C22.486 28.8405 22.8837 29.0453 23.2918 28.9099Z" fill="#3E3E3E"/>
<path fill-rule="evenodd" clip-rule="evenodd" d="M18.1797 22.1719C17.5882 22.4419 17.0406 23.1685 17.0406 23.683C17.0406 24.269 17.4365 24.8897 17.8884 25.012C18.7499 25.2453 19.5768 24.4513 19.6506 23.32C19.7031 22.5153 19.3643 22.0434 18.7363 22.0466C18.5795 22.0474 18.329 22.1038 18.1797 22.1719ZM19.2674 23.3023C19.4598 23.1088 19.4428 22.8122 19.2296 22.6436C19.1345 22.5684 19.0238 22.5073 18.9835 22.5078C18.8156 22.5101 18.5802 22.6867 18.5215 22.8547C18.3799 23.2597 18.9621 23.6091 19.2674 23.3023Z" fill="#3E3E3E"/>
<path fill-rule="evenodd" clip-rule="evenodd" d="M28.8315 22.1623C28.364 22.4536 28.2441 23.3521 28.5788 24.057C28.8643 24.6583 29.1704 24.932 29.6815 25.0426C30.3958 25.1972 31.1182 24.3692 30.9873 23.5461C30.8285 22.5471 29.5407 21.7205 28.8315 22.1623ZM29.1076 23.4303C29.481 23.4303 29.685 22.9264 29.4197 22.6596C29.2627 22.5017 29.0159 22.4934 28.8308 22.6398C28.495 22.9054 28.6789 23.4303 29.1076 23.4303Z" fill="#3E3E3E"/>
</svg>
