<?xml version="1.0" ?><!DOCTYPE svg  PUBLIC '-//W3C//DTD SVG 1.1//EN'  'http://www.w3.org/Graphics/SVG/1.1/DTD/svg11.dtd'><svg enable-background="new 0 0 48 48"  id="_x3C_Layer_x3E_" version="1.1" viewBox="0 0 48 48"  xml:space="preserve" xmlns="http://www.w3.org/2000/svg" xmlns:xlink="http://www.w3.org/1999/xlink"><g id="coll_center_x2C__headphones"><g><path d="M6.614,18.023c-0.019,0-0.039-0.001-0.058-0.003c-0.274-0.032-0.471-0.28-0.439-0.554    C7.138,8.649,14.611,2,23.5,2h1c8.876,0,16.348,6.639,17.38,15.442c0.032,0.274-0.164,0.522-0.438,0.555    c-0.266,0.035-0.522-0.164-0.555-0.438C39.914,9.259,32.869,3,24.5,3h-1C15.119,3,8.073,9.269,7.11,17.581    C7.081,17.836,6.865,18.023,6.614,18.023z" fill="#fff"/><g><path d="M41.018,16.041c-0.18,0-0.353-0.098-0.441-0.266C37.701,10.363,32.116,7,26,7h-4     c-6.116,0-11.701,3.363-14.576,8.775c-0.119,0.222-0.383,0.322-0.618,0.233s-0.368-0.339-0.31-0.584C8.385,7.521,15.377,2,23.5,2     h1c8.123,0,15.115,5.521,17.004,13.425c0.059,0.245-0.074,0.495-0.31,0.584C41.136,16.031,41.077,16.041,41.018,16.041z M22,6h4     c5.133,0,9.914,2.233,13.196,6.01C36.439,6.561,30.834,3,24.5,3h-1c-6.334,0-11.939,3.561-14.696,9.01     C12.086,8.233,16.867,6,22,6z" fill="#fff"/></g></g><g><g><path d="M5.56,32.889c-0.039,0-0.078-0.004-0.118-0.014C3.416,32.387,2,30.587,2,28.5v-4     c0-2.036,1.372-3.824,3.337-4.348c0.265-0.072,0.541,0.087,0.612,0.354c0.071,0.267-0.087,0.541-0.354,0.612     C4.067,21.526,3,22.917,3,24.5v4c0,1.624,1.101,3.023,2.676,3.402c0.269,0.065,0.434,0.335,0.369,0.604     C5.99,32.735,5.785,32.889,5.56,32.889z" fill="#fff"/></g><g><g><path d="M10,35H9c-1.103,0-2-0.897-2-2V20c0-1.103,0.897-2,2-2h1c1.103,0,2,0.897,2,2v13      C12,34.103,11.103,35,10,35z M9,19c-0.551,0-1,0.449-1,1v13c0,0.551,0.449,1,1,1h1c0.551,0,1-0.449,1-1V20c0-0.551-0.449-1-1-1      H9z" fill="#fff"/></g></g></g><g><g><path d="M20,44c0,0.276,0.224,0.5,0.5,0.5v-1C20.224,43.5,20,43.724,20,44z" fill="#fff"/><path d="M40.355,35.575c-0.248-0.119-0.548-0.013-0.667,0.236c-2.087,4.371-6.411,7.293-11.197,7.651     c0,0.014,0.008,0.024,0.008,0.038v0.964c5.166-0.363,9.84-3.508,12.091-8.222C40.71,35.993,40.605,35.694,40.355,35.575z" fill="#fff"/></g><path d="M27.5,46h-6c-0.827,0-1.5-0.673-1.5-1.5v-1c0-0.827,0.673-1.5,1.5-1.5h6c0.827,0,1.5,0.673,1.5,1.5v1    C29,45.327,28.327,46,27.5,46z M21.5,43c-0.276,0-0.5,0.224-0.5,0.5v1c0,0.276,0.224,0.5,0.5,0.5h6c0.276,0,0.5-0.224,0.5-0.5v-1    c0-0.276-0.224-0.5-0.5-0.5H21.5z" fill="#fff"/></g><g><g><path d="M42.448,32.887c-0.225,0-0.43-0.153-0.485-0.382c-0.065-0.269,0.1-0.539,0.368-0.604     C43.902,31.519,45,30.12,45,28.5v-4c0-1.58-1.064-2.97-2.588-3.38c-0.267-0.072-0.425-0.346-0.353-0.613     c0.071-0.268,0.348-0.426,0.613-0.353C44.631,20.682,46,22.469,46,24.5v4c0,2.083-1.412,3.881-3.433,4.373     C42.527,32.882,42.487,32.887,42.448,32.887z" fill="#fff"/></g><g><g><path d="M39,35h-1c-1.103,0-2-0.897-2-2V20c0-1.103,0.897-2,2-2h1c1.103,0,2,0.897,2,2v13      C41,34.103,40.103,35,39,35z M38,19c-0.551,0-1,0.449-1,1v13c0,0.551,0.449,1,1,1h1c0.551,0,1-0.449,1-1V20c0-0.551-0.449-1-1-1      H38z" fill="#fff"/></g></g></g></g></svg>