<svg width="220" height="49" viewBox="0 0 220 49" fill="none" xmlns="http://www.w3.org/2000/svg">
<path fill-rule="evenodd" clip-rule="evenodd" d="M51.0242 41.7627C56.429 37.4199 59.7717 31.4219 59.7717 24.7969C59.7717 11.542 46.3913 0.796875 29.8858 0.796875C13.3803 0.796875 0 11.542 0 24.7969C0 38.0517 13.3803 48.7969 29.8858 48.7969C35.5082 48.7969 40.768 47.5501 45.2598 45.382L52.6898 47.0132L51.0242 41.7627Z" fill="#1DAA39"/>
<path d="M11.6555 17.2269L12.1695 16.4605L11.9248 16.0304L11.917 16.0167C11.5617 15.3924 11.3198 14.6683 11.2007 13.9159C11.181 13.7935 11.165 13.6709 11.1525 13.5483C11.0726 12.7814 11.1194 11.9974 11.3022 11.27C11.3643 11.0232 11.4703 10.732 11.6026 10.431C11.7917 9.96617 12.0341 9.52255 12.3264 9.11077C12.418 8.9766 12.5093 8.85477 12.5976 8.75064C12.6369 8.70433 12.6769 8.65849 12.7177 8.61314C13.2553 7.99452 13.9188 7.47026 14.693 7.08477C15.2076 6.82851 15.6045 6.67312 16.0471 6.57783C16.5175 6.46284 17.2212 6.4141 17.8757 6.43403C18.4142 6.44144 18.8512 6.50046 19.3031 6.63509C19.792 6.77387 20.268 6.97713 20.7209 7.23855C21.1051 7.43676 21.3259 7.58523 21.6405 7.87557C21.9874 8.15963 22.3133 8.48113 22.6124 8.83638L22.6489 8.87971L22.9471 9.18128L23.8162 8.96114C25.8039 8.45754 27.7142 8.23387 30.0182 8.23502C30.0341 8.23503 30.05 8.23505 30.0658 8.23507C30.0749 8.23506 30.0839 8.23505 30.093 8.23504L30.1135 8.23502C32.4174 8.23387 34.3278 8.45754 36.3155 8.96114L37.1845 9.18128L37.4828 8.87971L37.5193 8.83638C37.8184 8.48113 38.1443 8.15964 38.4911 7.87558C38.8058 7.58523 39.0265 7.43676 39.4108 7.23854C39.8637 6.97712 40.3396 6.77387 40.8286 6.63509C41.2805 6.50046 41.7175 6.44144 42.256 6.43403C42.9105 6.4141 43.6142 6.46284 44.0845 6.57783C44.5272 6.67312 44.9241 6.82851 45.4387 7.08477C46.2128 7.47025 46.8763 7.9945 47.414 8.6131C47.4547 8.65846 47.4948 8.70432 47.5341 8.75064C47.6224 8.85479 47.7137 8.97663 47.8053 9.11084C48.0976 9.5226 48.34 9.96619 48.529 10.431C48.6613 10.732 48.7674 11.0232 48.8294 11.27C49.0122 11.9972 49.059 12.7809 48.9792 13.5476C48.9667 13.6707 48.9506 13.7937 48.9308 13.9166C48.8117 14.6687 48.5699 15.3926 48.2147 16.0167L48.2069 16.0304L47.9621 16.4605L48.4762 17.2269C52.3749 23.04 51.6565 30.2206 46.9098 35.6745C46.7184 35.8944 46.6084 36.0156 46.4064 36.2258C45.7124 36.9481 45.3222 37.2844 44.5674 37.8924C44.1578 38.2224 43.8905 38.4139 43.4925 38.7039C42.7063 39.2769 41.349 39.9733 41.349 39.9733C41.349 39.9733 40.9239 40.1572 40.5898 40.321C39.186 41.0093 37.6216 41.526 35.641 42.038C34.7702 42.2632 34.2811 42.3983 33.3921 42.5348C32.7045 42.6404 32.3142 42.6712 31.62 42.7164C30.4087 42.7951 29.1621 42.7652 28.5116 42.7164C27.9889 42.7012 27.4272 42.6404 26.7396 42.5348C25.8506 42.3983 25.3614 42.2632 24.4906 42.038C22.5101 41.526 20.9457 41.0093 19.5419 40.321C19.2077 40.1572 18.8631 40.0232 18.776 40.0232C18.6887 40.0232 17.1825 40.3064 15.4288 40.6524C13.6751 40.9984 12.2198 41.261 12.1948 41.2359C12.1699 41.2109 12.5041 40.0733 12.9374 38.7081L13.7253 36.2258L13.2219 35.6745C8.37924 30.371 7.75678 23.04 11.6555 17.2269Z" fill="#202020"/>
<path d="M32.9273 10.2841C38.6299 10.9817 43.5851 13.597 46.5726 17.4857C48.4801 19.9686 49.4295 22.6498 49.4295 25.5535C49.4295 30.1447 46.9304 34.4377 42.552 37.3677C39.3386 39.5179 35.6529 40.7079 31.4592 40.9492C27.4075 41.1823 23.373 40.3592 19.7805 38.5668L19.1661 38.2603L17.2983 38.6685C16.271 38.8931 15.4116 39.0579 15.3886 39.0346C15.3656 39.0115 15.5333 38.4031 15.7616 37.6827C15.9897 36.9623 16.1731 36.3194 16.1691 36.2539C16.1651 36.1884 15.9428 35.939 15.6752 35.6996C13.202 33.4873 11.5494 30.5509 11.0544 27.4886C10.9006 26.5367 10.9007 24.5701 11.0547 23.6159C11.5116 20.7837 12.8185 18.3162 15.0705 16.0339C16.1706 14.919 17.1856 14.1073 18.4408 13.3386C22.6286 10.7741 27.8804 9.66672 32.9273 10.2841Z" fill="white"/>
<path fill-rule="evenodd" clip-rule="evenodd" d="M22.2907 18.8691C20.0777 19.3327 17.8273 21.3138 16.9586 23.563C16.4024 25.003 16.5388 26.8719 17.3044 28.3047C17.3151 28.3248 17.3256 28.3443 17.3357 28.3634C17.3364 28.3646 17.337 28.3659 17.3377 28.3671C17.3384 28.3685 17.3392 28.3698 17.3399 28.3712C17.5564 28.7769 17.6472 28.9471 17.7811 28.9937C17.8777 29.0274 17.9968 28.9968 18.2018 28.944C18.2106 28.9417 18.2194 28.9394 18.2285 28.9371C18.235 28.9354 18.2417 28.9337 18.2484 28.932C18.9122 28.762 19.9052 28.634 20.5561 28.6346C21.6374 28.6356 23.2315 28.972 23.9679 29.3545L24.2115 29.481L24.6086 29.037C25.4606 28.084 26.3154 26.3363 26.5861 24.9934C26.7668 24.0974 26.7516 22.7429 26.5514 21.9033C26.0873 19.9571 24.979 18.8406 23.4528 18.7818C23.1065 18.7684 22.5836 18.8077 22.2907 18.8691ZM25.5488 23.458C25.4867 22.364 25.0482 21.5496 24.3618 21.2536C24.0363 21.1131 23.2648 21.115 22.8123 21.2574C21.4422 21.6883 20.1559 23.1605 20.0236 24.4488C19.9032 25.6219 20.5803 26.9081 21.5463 27.3412C22.0163 27.5519 22.7487 27.5628 23.3288 27.3677C24.1893 27.0782 24.9957 26.0927 25.3762 24.8657C25.5593 24.2754 25.5838 24.0754 25.5488 23.458Z" fill="#202020"/>
<path fill-rule="evenodd" clip-rule="evenodd" d="M35.9395 18.8807C33.6944 19.6055 32.739 22.9946 33.8819 26.18C34.2848 27.303 35.0257 28.5693 35.6178 29.147L35.9325 29.4539L36.4326 29.2508C37.5102 28.8132 38.2802 28.6808 39.6974 28.6897C40.7384 28.6963 41.1428 28.7331 41.6633 28.8688L42.3186 29.0395L42.4962 28.8234C43.2949 27.8512 43.7096 25.7726 43.3916 24.3353C42.8736 21.9947 40.7411 19.7587 38.3048 19.0016C37.544 18.7651 36.4678 18.7102 35.9395 18.8807ZM39.0582 22.3981C38.5645 21.8727 38.0358 21.5232 37.4049 21.3049C36.3914 20.9544 35.5019 21.1672 35.0614 21.8656C34.3661 22.968 34.3898 24.3553 35.1283 25.7734C36.0689 27.5796 38.0997 28.0908 39.2828 26.8192C39.729 26.3396 39.9506 25.8606 40.068 25.1214C40.2176 24.18 39.8818 23.2746 39.0582 22.3981Z" fill="#202020"/>
<path fill-rule="evenodd" clip-rule="evenodd" d="M28.948 29.0854C28.2309 29.288 27.5627 29.8068 27.3747 30.3072C27.3268 30.4347 27.2875 30.6897 27.2875 30.8739C27.2875 31.1508 27.3378 31.2566 27.5778 31.484C27.8867 31.777 28.5635 32.0295 29.3149 32.1322L29.7449 32.1909V33.7941V35.3974L29.3558 35.3405C28.4655 35.2106 27.1945 34.5592 26.3631 33.8067C25.9835 33.4631 25.9737 33.4428 26.0556 33.1656C26.1408 32.8766 26.1073 32.6322 25.957 32.4432C25.8971 32.3679 25.8152 32.4679 25.6503 32.8186C25.4468 33.2512 24.8429 33.9049 24.6467 33.9049C24.6072 33.9049 24.5975 33.9419 24.6254 33.9872C24.692 34.0955 25.207 34.093 25.4109 33.9833C25.5457 33.9108 25.6462 33.9614 26.0403 34.3003C27.4347 35.4992 28.631 35.9954 30.1135 35.9897C31.4548 35.9844 32.5942 35.5184 33.9436 34.423C34.5359 33.9422 34.6209 33.8981 34.7981 33.9794C35.0384 34.0894 35.5336 34.0979 35.5981 33.9931C35.6239 33.9511 35.5742 33.8941 35.4876 33.8665C35.2401 33.7875 34.6684 33.1151 34.4852 32.6876L34.3188 32.2989L34.1947 32.5355C34.0835 32.7474 34.0783 32.9708 34.1765 33.3218C34.2248 33.4942 32.9837 34.4705 32.2567 34.8319C31.6896 35.1138 30.8176 35.383 30.4617 35.386C30.33 35.3872 30.3183 35.2563 30.3183 33.7813V32.1754L30.5026 32.174C30.604 32.1732 30.9291 32.121 31.225 32.0579C32.6363 31.757 33.1243 31.1565 32.7023 30.2401C32.4996 29.7997 32.1801 29.5133 31.5884 29.2412C31.1712 29.0494 30.968 29.0116 30.2368 28.9899C29.6578 28.9727 29.2363 29.0039 28.948 29.0854ZM28.9489 31.0284C29.5324 30.8347 29.9213 30.1379 29.6059 29.8509C29.3594 29.6266 28.8539 29.5944 28.4614 29.778C28.082 29.9555 27.9428 30.152 27.9428 30.5101C27.9428 30.9416 28.4394 31.1974 28.9489 31.0284Z" fill="#202020"/>
<path fill-rule="evenodd" clip-rule="evenodd" d="M22.5663 22.6158C21.8279 22.953 21.1441 23.86 21.1441 24.5024C21.1441 25.2341 21.6384 26.0091 22.2026 26.1618C23.2782 26.453 24.3107 25.4617 24.4028 24.0492C24.4683 23.0445 24.0453 22.4554 23.2612 22.4593C23.0654 22.4603 22.7527 22.5307 22.5663 22.6158ZM23.9243 24.0271C24.1645 23.7856 24.1433 23.4152 23.8771 23.2047C23.7584 23.1108 23.6201 23.0346 23.5699 23.0352C23.3602 23.038 23.0664 23.2586 22.9931 23.4683C22.8162 23.9739 23.5432 24.4102 23.9243 24.0271Z" fill="#202020"/>
<path fill-rule="evenodd" clip-rule="evenodd" d="M35.8654 22.6039C35.2816 22.9675 35.1319 24.0893 35.5498 24.9693C35.9063 25.7202 36.2885 26.0619 36.9266 26.1999C37.8184 26.3929 38.7203 25.3592 38.5569 24.3315C38.3586 23.0842 36.7508 22.0522 35.8654 22.6039ZM36.2101 24.187C36.6762 24.187 36.931 23.5578 36.5997 23.2247C36.4036 23.0276 36.0956 23.0172 35.8644 23.2C35.4452 23.5316 35.6748 24.187 36.2101 24.187Z" fill="#202020"/>
<path fill-rule="evenodd" clip-rule="evenodd" d="M16.9586 23.563C17.8273 21.3138 20.0777 19.3327 22.2907 18.8691C22.5836 18.8077 23.1065 18.7684 23.4528 18.7818C24.979 18.8406 26.0873 19.9571 26.5514 21.9033C26.7516 22.7429 26.7668 24.0974 26.5861 24.9934C26.3154 26.3363 25.4606 28.084 24.6086 29.037L24.2115 29.481L23.9679 29.3545C23.2315 28.972 21.6374 28.6356 20.5561 28.6346C19.9052 28.634 18.9122 28.762 18.2484 28.932L18.2285 28.9371L18.2018 28.944C17.9968 28.9968 17.8777 29.0274 17.7811 28.9937C17.6472 28.9471 17.5564 28.7769 17.3399 28.3712L17.3377 28.3671L17.3357 28.3634C17.3256 28.3443 17.3151 28.3248 17.3044 28.3047C16.5388 26.8719 16.4024 25.003 16.9586 23.563ZM33.8819 26.18C32.739 22.9946 33.6944 19.6055 35.9395 18.8807C36.4678 18.7102 37.544 18.7651 38.3048 19.0016C40.7411 19.7587 42.8736 21.9947 43.3916 24.3353C43.7096 25.7726 43.2949 27.8512 42.4962 28.8234L42.3186 29.0395L41.6633 28.8688C41.1428 28.7331 40.7384 28.6963 39.6974 28.6897C38.2802 28.6808 37.5102 28.8132 36.4326 29.2508L35.9325 29.4539L35.6178 29.147C35.0257 28.5693 34.2848 27.303 33.8819 26.18ZM27.3747 30.3072C27.5627 29.8068 28.2309 29.288 28.948 29.0854C29.2363 29.0039 29.6578 28.9727 30.2368 28.9899C30.968 29.0116 31.1712 29.0494 31.5884 29.2412C32.1801 29.5133 32.4996 29.7997 32.7023 30.2401C33.1243 31.1565 32.6363 31.757 31.225 32.0579C30.9291 32.121 30.604 32.1732 30.5026 32.174L30.3183 32.1754V33.7813C30.3183 35.2563 30.33 35.3872 30.4617 35.386C30.8176 35.383 31.6896 35.1138 32.2567 34.8319C32.9837 34.4705 34.2248 33.4942 34.1765 33.3218C34.0783 32.9708 34.0835 32.7474 34.1947 32.5355L34.3188 32.2989L34.4852 32.6876C34.6684 33.1151 35.2401 33.7875 35.4876 33.8665C35.5742 33.8941 35.6239 33.9511 35.5981 33.9931C35.5336 34.0979 35.0384 34.0894 34.7981 33.9794C34.6209 33.8981 34.5359 33.9422 33.9436 34.423C32.5942 35.5184 31.4548 35.9844 30.1135 35.9897C28.631 35.9954 27.4347 35.4992 26.0403 34.3003C25.6462 33.9614 25.5457 33.9108 25.4109 33.9833C25.207 34.093 24.692 34.0955 24.6254 33.9872C24.5975 33.9419 24.6072 33.9049 24.6467 33.9049C24.8429 33.9049 25.4468 33.2512 25.6503 32.8186C25.8152 32.4679 25.8971 32.3679 25.957 32.4432C26.1073 32.6322 26.1408 32.8766 26.0556 33.1656C25.9737 33.4428 25.9835 33.4631 26.3631 33.8067C27.1945 34.5592 28.4655 35.2106 29.3558 35.3405L29.7449 35.3974V33.7941V32.1909L29.3149 32.1322C28.5635 32.0295 27.8867 31.777 27.5778 31.484C27.3378 31.2566 27.2875 31.1508 27.2875 30.8739C27.2875 30.6897 27.3268 30.4347 27.3747 30.3072ZM39.0582 22.3981C38.5645 21.8727 38.0358 21.5232 37.4049 21.3049C36.3914 20.9544 35.5019 21.1672 35.0614 21.8656C34.3661 22.968 34.3898 24.3553 35.1283 25.7734C36.0689 27.5796 38.0997 28.0908 39.2828 26.8192C39.729 26.3396 39.9506 25.8606 40.068 25.1214C40.2176 24.18 39.8818 23.2746 39.0582 22.3981ZM25.5488 23.458C25.4867 22.364 25.0482 21.5496 24.3618 21.2536C24.0363 21.1131 23.2648 21.115 22.8123 21.2574C21.4422 21.6883 20.1559 23.1605 20.0236 24.4488C19.9032 25.6219 20.5803 26.9081 21.5463 27.3412C22.0163 27.5519 22.7487 27.5628 23.3288 27.3677C24.1893 27.0782 24.9957 26.0927 25.3762 24.8657C25.5593 24.2754 25.5838 24.0754 25.5488 23.458ZM22.5663 22.6158C21.8279 22.953 21.1441 23.86 21.1441 24.5024C21.1441 25.2341 21.6384 26.0091 22.2026 26.1618C23.2782 26.453 24.3107 25.4617 24.4028 24.0492C24.4683 23.0445 24.0453 22.4554 23.2612 22.4593C23.0654 22.4603 22.7527 22.5307 22.5663 22.6158ZM23.8771 23.2047C24.1433 23.4152 24.1645 23.7856 23.9243 24.0271C23.5432 24.4102 22.8162 23.9739 22.9931 23.4683C23.0664 23.2586 23.3602 23.038 23.5699 23.0352C23.6201 23.0346 23.7584 23.1108 23.8771 23.2047ZM28.9489 31.0284C29.5324 30.8347 29.9213 30.1379 29.6059 29.8509C29.3594 29.6266 28.8539 29.5944 28.4614 29.778C28.082 29.9555 27.9428 30.152 27.9428 30.5101C27.9428 30.9416 28.4394 31.1974 28.9489 31.0284Z" fill="#202020"/>
<path d="M78.6399 32.2521L76.3089 38.7976H74.6044L72.2734 32.2521H73.9183L75.4226 37.1143H75.4908L76.9993 32.2521H78.6399Z" fill="#1DAA39"/>
<path d="M79.7074 38.7976V32.2521H81.25V38.7976H79.7074ZM80.483 31.3232C80.2386 31.3232 80.0284 31.2422 79.8523 31.0803C79.6761 30.9155 79.5881 30.718 79.5881 30.4879C79.5881 30.255 79.6761 30.0575 79.8523 29.8956C80.0284 29.7308 80.2386 29.6484 80.483 29.6484C80.7301 29.6484 80.9403 29.7308 81.1136 29.8956C81.2898 30.0575 81.3778 30.255 81.3778 30.4879C81.3778 30.718 81.2898 30.9155 81.1136 31.0803C80.9403 31.2422 80.7301 31.3232 80.483 31.3232Z" fill="#1DAA39"/>
<path d="M85.2653 38.9126C84.7511 38.9126 84.2908 38.7805 83.8846 38.5163C83.4783 38.2521 83.1573 37.8686 82.9215 37.3658C82.6857 36.8629 82.5678 36.2521 82.5678 35.5334C82.5678 34.8061 82.6871 34.1925 82.9258 33.6925C83.1673 33.1896 83.4925 32.8104 83.9016 32.5547C84.3107 32.2962 84.7667 32.1669 85.2695 32.1669C85.6531 32.1669 85.9684 32.2322 86.2156 32.3629C86.4627 32.4908 86.6587 32.6456 86.8036 32.8274C86.9485 33.0064 87.0607 33.1754 87.1403 33.3345H87.2042V30.0703H88.7511V38.7976H87.234V37.7663H87.1403C87.0607 37.9254 86.9457 38.0945 86.7951 38.2734C86.6445 38.4496 86.4457 38.6001 86.1985 38.7251C85.9513 38.8501 85.6403 38.9126 85.2653 38.9126ZM85.6957 37.647C86.0224 37.647 86.3008 37.5589 86.5309 37.3828C86.761 37.2038 86.9357 36.9553 87.055 36.6371C87.1744 36.3189 87.234 35.9482 87.234 35.5249C87.234 35.1016 87.1744 34.7337 87.055 34.4212C86.9386 34.1087 86.7653 33.8658 86.5352 33.6925C86.3079 33.5192 86.0281 33.4325 85.6957 33.4325C85.3519 33.4325 85.065 33.522 84.8349 33.701C84.6048 33.88 84.4315 34.1271 84.315 34.4425C84.1985 34.7578 84.1403 35.1186 84.1403 35.5249C84.1403 35.9339 84.1985 36.299 84.315 36.62C84.4343 36.9382 84.609 37.1896 84.8391 37.3743C85.0721 37.5561 85.3576 37.647 85.6957 37.647Z" fill="#1DAA39"/>
<path d="M93.2926 38.9254C92.6364 38.9254 92.0696 38.7891 91.5923 38.5163C91.1179 38.2408 90.7528 37.8516 90.4972 37.3487C90.2415 36.843 90.1136 36.2479 90.1136 35.5632C90.1136 34.8899 90.2415 34.299 90.4972 33.7905C90.7557 33.2791 91.1165 32.8814 91.5795 32.5973C92.0426 32.3104 92.5866 32.1669 93.2116 32.1669C93.6151 32.1669 93.9957 32.2322 94.3537 32.3629C94.7145 32.4908 95.0327 32.6896 95.3082 32.9595C95.5866 33.2294 95.8054 33.5732 95.9645 33.9908C96.1236 34.4055 96.2031 34.8999 96.2031 35.4737V35.9467H90.8381V34.907H94.7244C94.7216 34.6115 94.6577 34.3487 94.5327 34.1186C94.4077 33.8857 94.233 33.7024 94.0085 33.5689C93.7869 33.4354 93.5284 33.3686 93.233 33.3686C92.9176 33.3686 92.6406 33.4453 92.402 33.5987C92.1634 33.7493 91.9773 33.9482 91.8438 34.1953C91.7131 34.4396 91.6463 34.7081 91.6435 35.0007V35.9084C91.6435 36.2891 91.7131 36.6158 91.8523 36.8885C91.9915 37.1584 92.1861 37.3658 92.4361 37.5107C92.6861 37.6527 92.9787 37.7237 93.3139 37.7237C93.5384 37.7237 93.7415 37.6925 93.9233 37.63C94.1051 37.5646 94.2628 37.4695 94.3963 37.3445C94.5298 37.2195 94.6307 37.0646 94.6989 36.88L96.1392 37.0419C96.0483 37.4226 95.875 37.755 95.6193 38.0391C95.3665 38.3203 95.0426 38.5391 94.6477 38.6953C94.2528 38.8487 93.8011 38.9254 93.2926 38.9254Z" fill="#1DAA39"/>
<path d="M100.363 38.9254C99.7241 38.9254 99.1701 38.7848 98.7013 38.5036C98.2326 38.2223 97.869 37.8288 97.6104 37.3232C97.3548 36.8175 97.2269 36.2266 97.2269 35.5504C97.2269 34.8743 97.3548 34.282 97.6104 33.7734C97.869 33.2649 98.2326 32.87 98.7013 32.5888C99.1701 32.3075 99.7241 32.1669 100.363 32.1669C101.002 32.1669 101.556 32.3075 102.025 32.5888C102.494 32.87 102.856 33.2649 103.112 33.7734C103.37 34.282 103.5 34.8743 103.5 35.5504C103.5 36.2266 103.37 36.8175 103.112 37.3232C102.856 37.8288 102.494 38.2223 102.025 38.5036C101.556 38.7848 101.002 38.9254 100.363 38.9254ZM100.372 37.6896C100.718 37.6896 101.008 37.5945 101.241 37.4041C101.474 37.2109 101.647 36.9524 101.761 36.6286C101.877 36.3047 101.936 35.9439 101.936 35.5462C101.936 35.1456 101.877 34.7834 101.761 34.4595C101.647 34.1328 101.474 33.8729 101.241 33.6797C101.008 33.4865 100.718 33.3899 100.372 33.3899C100.017 33.3899 99.7212 33.4865 99.4854 33.6797C99.2525 33.8729 99.0778 34.1328 98.9613 34.4595C98.8477 34.7834 98.7908 35.1456 98.7908 35.5462C98.7908 35.9439 98.8477 36.3047 98.9613 36.6286C99.0778 36.9524 99.2525 37.2109 99.4854 37.4041C99.7212 37.5945 100.017 37.6896 100.372 37.6896Z" fill="#1DAA39"/>
<path d="M110.641 38.9254C109.987 38.9254 109.426 38.782 108.957 38.495C108.491 38.2081 108.132 37.8118 107.879 37.3061C107.629 36.7976 107.504 36.2124 107.504 35.5504C107.504 34.8857 107.632 34.299 107.888 33.7905C108.143 33.2791 108.504 32.8814 108.97 32.5973C109.439 32.3104 109.993 32.1669 110.632 32.1669C111.163 32.1669 111.634 32.2649 112.043 32.4609C112.455 32.6541 112.783 32.9283 113.027 33.2834C113.271 33.6357 113.411 34.0476 113.445 34.5192H111.97C111.911 34.2038 111.768 33.9411 111.544 33.7308C111.322 33.5178 111.026 33.4112 110.653 33.4112C110.338 33.4112 110.061 33.4964 109.822 33.6669C109.584 33.8345 109.398 34.076 109.264 34.3913C109.134 34.7067 109.068 35.0845 109.068 35.5249C109.068 35.9709 109.134 36.3544 109.264 36.6754C109.395 36.9936 109.578 37.2393 109.814 37.4126C110.053 37.5831 110.332 37.6683 110.653 37.6683C110.881 37.6683 111.084 37.6257 111.263 37.5405C111.445 37.4524 111.597 37.326 111.719 37.1612C111.841 36.9964 111.925 36.7962 111.97 36.5604H113.445C113.408 37.0234 113.271 37.4339 113.036 37.7919C112.8 38.147 112.479 38.4254 112.072 38.6271C111.666 38.826 111.189 38.9254 110.641 38.9254Z" fill="#1DAA39"/>
<path d="M116.254 30.0703V38.7976H114.711V30.0703H116.254Z" fill="#1DAA39"/>
<path d="M119.724 38.9297C119.309 38.9297 118.935 38.8558 118.603 38.7081C118.273 38.5575 118.012 38.3359 117.819 38.0433C117.629 37.7507 117.533 37.3899 117.533 36.9609C117.533 36.5916 117.602 36.2862 117.738 36.0447C117.874 35.8033 118.06 35.6101 118.296 35.4652C118.532 35.3203 118.798 35.2109 119.093 35.1371C119.391 35.0604 119.7 35.005 120.018 34.9709C120.401 34.9311 120.712 34.8956 120.951 34.8643C121.19 34.8303 121.363 34.7791 121.471 34.7109C121.582 34.6399 121.637 34.5305 121.637 34.3828V34.3572C121.637 34.0362 121.542 33.7876 121.352 33.6115C121.161 33.4354 120.887 33.3473 120.529 33.3473C120.151 33.3473 119.852 33.4297 119.63 33.5945C119.411 33.7592 119.263 33.9538 119.187 34.1783L117.746 33.9737C117.86 33.576 118.048 33.2436 118.309 32.9766C118.57 32.7067 118.89 32.505 119.268 32.3714C119.646 32.2351 120.063 32.1669 120.521 32.1669C120.836 32.1669 121.15 32.2038 121.462 32.2777C121.775 32.3516 122.06 32.4737 122.319 32.6442C122.577 32.8118 122.785 33.0405 122.941 33.3303C123.1 33.62 123.18 33.9822 123.18 34.4169V38.7976H121.697V37.8984H121.646C121.552 38.0803 121.42 38.2507 121.249 38.4098C121.082 38.5661 120.87 38.6925 120.614 38.7891C120.362 38.8828 120.065 38.9297 119.724 38.9297ZM120.124 37.7962C120.434 37.7962 120.702 37.7351 120.93 37.6129C121.157 37.4879 121.332 37.3232 121.454 37.1186C121.579 36.9141 121.641 36.6911 121.641 36.4496V35.6783C121.593 35.718 121.511 35.755 121.394 35.7891C121.281 35.8232 121.153 35.853 121.011 35.8786C120.869 35.9041 120.728 35.9268 120.589 35.9467C120.45 35.9666 120.329 35.9837 120.227 35.9979C119.996 36.0291 119.79 36.0803 119.609 36.1513C119.427 36.2223 119.283 36.3217 119.178 36.4496C119.073 36.5746 119.021 36.7365 119.021 36.9354C119.021 37.2195 119.124 37.4339 119.332 37.5788C119.539 37.7237 119.803 37.7962 120.124 37.7962Z" fill="#1DAA39"/>
<path d="M129.904 33.9822L128.498 34.1357C128.458 33.9936 128.388 33.8601 128.289 33.7351C128.192 33.6101 128.062 33.5092 127.897 33.4325C127.732 33.3558 127.531 33.3175 127.292 33.3175C126.971 33.3175 126.701 33.3871 126.482 33.5263C126.266 33.6655 126.16 33.8459 126.163 34.0675C126.16 34.2578 126.229 34.4126 126.371 34.532C126.516 34.6513 126.755 34.7493 127.087 34.826L128.204 35.0646C128.823 35.1982 129.283 35.4098 129.585 35.6996C129.888 35.9893 130.042 36.3686 130.045 36.8374C130.042 37.2493 129.921 37.6129 129.683 37.9283C129.447 38.2408 129.119 38.4851 128.698 38.6612C128.278 38.8374 127.795 38.9254 127.249 38.9254C126.448 38.9254 125.803 38.7578 125.315 38.4226C124.826 38.0845 124.535 37.6143 124.441 37.0121L125.945 36.8672C126.013 37.1626 126.158 37.3857 126.38 37.5362C126.602 37.6868 126.89 37.7621 127.245 37.7621C127.612 37.7621 127.906 37.6868 128.127 37.5362C128.352 37.3857 128.464 37.1996 128.464 36.978C128.464 36.7905 128.391 36.6357 128.246 36.5135C128.104 36.3913 127.883 36.2976 127.582 36.2322L126.465 35.9979C125.837 35.8672 125.373 35.647 125.072 35.3374C124.771 35.0249 124.621 34.63 124.624 34.1527C124.621 33.7493 124.731 33.3999 124.952 33.1044C125.177 32.8061 125.488 32.576 125.886 32.4141C126.286 32.2493 126.748 32.1669 127.271 32.1669C128.038 32.1669 128.641 32.3303 129.082 32.657C129.525 32.9837 129.799 33.4254 129.904 33.9822Z" fill="#1DAA39"/>
<path d="M136.49 33.9822L135.084 34.1357C135.044 33.9936 134.974 33.8601 134.875 33.7351C134.778 33.6101 134.648 33.5092 134.483 33.4325C134.318 33.3558 134.116 33.3175 133.878 33.3175C133.557 33.3175 133.287 33.3871 133.068 33.5263C132.852 33.6655 132.746 33.8459 132.749 34.0675C132.746 34.2578 132.815 34.4126 132.957 34.532C133.102 34.6513 133.341 34.7493 133.673 34.826L134.79 35.0646C135.409 35.1982 135.869 35.4098 136.17 35.6996C136.474 35.9893 136.628 36.3686 136.631 36.8374C136.628 37.2493 136.507 37.6129 136.268 37.9283C136.033 38.2408 135.705 38.4851 135.284 38.6612C134.864 38.8374 134.381 38.9254 133.835 38.9254C133.034 38.9254 132.389 38.7578 131.901 38.4226C131.412 38.0845 131.121 37.6143 131.027 37.0121L132.531 36.8672C132.599 37.1626 132.744 37.3857 132.966 37.5362C133.187 37.6868 133.476 37.7621 133.831 37.7621C134.197 37.7621 134.491 37.6868 134.713 37.5362C134.937 37.3857 135.05 37.1996 135.05 36.978C135.05 36.7905 134.977 36.6357 134.832 36.5135C134.69 36.3913 134.469 36.2976 134.168 36.2322L133.051 35.9979C132.423 35.8672 131.959 35.647 131.658 35.3374C131.357 35.0249 131.207 34.63 131.21 34.1527C131.207 33.7493 131.317 33.3999 131.538 33.1044C131.763 32.8061 132.074 32.576 132.472 32.4141C132.872 32.2493 133.334 32.1669 133.857 32.1669C134.624 32.1669 135.227 32.3303 135.668 32.657C136.111 32.9837 136.385 33.4254 136.49 33.9822Z" fill="#1DAA39"/>
<path d="M137.903 38.7976V32.2521H139.445V38.7976H137.903ZM138.678 31.3232C138.434 31.3232 138.224 31.2422 138.048 31.0803C137.871 30.9155 137.783 30.718 137.783 30.4879C137.783 30.255 137.871 30.0575 138.048 29.8956C138.224 29.7308 138.434 29.6484 138.678 29.6484C138.925 29.6484 139.136 29.7308 139.309 29.8956C139.485 30.0575 139.573 30.255 139.573 30.4879C139.573 30.718 139.485 30.9155 139.309 31.0803C139.136 31.2422 138.925 31.3232 138.678 31.3232Z" fill="#1DAA39"/>
<path d="M144.347 32.2521V33.4453H140.478V32.2521H144.347ZM141.445 38.7976V31.6342C141.445 31.1939 141.536 30.8274 141.718 30.5348C141.902 30.2422 142.15 30.0234 142.459 29.8786C142.769 29.7337 143.113 29.6612 143.49 29.6612C143.757 29.6612 143.995 29.6825 144.202 29.7251C144.409 29.7678 144.563 29.8061 144.662 29.8402L144.355 31.0334C144.29 31.0135 144.208 30.9936 144.108 30.9737C144.009 30.951 143.898 30.9396 143.776 30.9396C143.489 30.9396 143.286 31.0092 143.167 31.1484C143.05 31.2848 142.992 31.4808 142.992 31.7365V38.7976H141.445Z" fill="#1DAA39"/>
<path d="M145.555 38.7976V32.2521H147.098V38.7976H145.555ZM146.331 31.3232C146.086 31.3232 145.876 31.2422 145.7 31.0803C145.524 30.9155 145.436 30.718 145.436 30.4879C145.436 30.255 145.524 30.0575 145.7 29.8956C145.876 29.7308 146.086 29.6484 146.331 29.6484C146.578 29.6484 146.788 29.7308 146.961 29.8956C147.137 30.0575 147.225 30.255 147.225 30.4879C147.225 30.718 147.137 30.9155 146.961 31.0803C146.788 31.2422 146.578 31.3232 146.331 31.3232Z" fill="#1DAA39"/>
<path d="M151.582 38.9254C150.925 38.9254 150.359 38.7891 149.881 38.5163C149.407 38.2408 149.042 37.8516 148.786 37.3487C148.531 36.843 148.403 36.2479 148.403 35.5632C148.403 34.8899 148.531 34.299 148.786 33.7905C149.045 33.2791 149.406 32.8814 149.869 32.5973C150.332 32.3104 150.876 32.1669 151.501 32.1669C151.904 32.1669 152.285 32.2322 152.643 32.3629C153.004 32.4908 153.322 32.6896 153.597 32.9595C153.876 33.2294 154.094 33.5732 154.254 33.9908C154.413 34.4055 154.492 34.8999 154.492 35.4737V35.9467H149.127V34.907H153.013C153.011 34.6115 152.947 34.3487 152.822 34.1186C152.697 33.8857 152.522 33.7024 152.298 33.5689C152.076 33.4354 151.817 33.3686 151.522 33.3686C151.207 33.3686 150.93 33.4453 150.691 33.5987C150.452 33.7493 150.266 33.9482 150.133 34.1953C150.002 34.4396 149.935 34.7081 149.933 35.0007V35.9084C149.933 36.2891 150.002 36.6158 150.141 36.8885C150.281 37.1584 150.475 37.3658 150.725 37.5107C150.975 37.6527 151.268 37.7237 151.603 37.7237C151.827 37.7237 152.031 37.6925 152.212 37.63C152.394 37.5646 152.552 37.4695 152.685 37.3445C152.819 37.2195 152.92 37.0646 152.988 36.88L154.428 37.0419C154.337 37.4226 154.164 37.755 153.908 38.0391C153.656 38.3203 153.332 38.5391 152.937 38.6953C152.542 38.8487 152.09 38.9254 151.582 38.9254Z" fill="#1DAA39"/>
<path d="M158.226 38.9126C157.712 38.9126 157.252 38.7805 156.846 38.5163C156.439 38.2521 156.118 37.8686 155.882 37.3658C155.647 36.8629 155.529 36.2521 155.529 35.5334C155.529 34.8061 155.648 34.1925 155.887 33.6925C156.128 33.1896 156.453 32.8104 156.863 32.5547C157.272 32.2962 157.728 32.1669 158.23 32.1669C158.614 32.1669 158.929 32.2322 159.176 32.3629C159.424 32.4908 159.62 32.6456 159.765 32.8274C159.909 33.0064 160.022 33.1754 160.101 33.3345H160.165V30.0703H161.712V38.7976H160.195V37.7663H160.101C160.022 37.9254 159.907 38.0945 159.756 38.2734C159.605 38.4496 159.407 38.6001 159.159 38.7251C158.912 38.8501 158.601 38.9126 158.226 38.9126ZM158.657 37.647C158.983 37.647 159.262 37.5589 159.492 37.3828C159.722 37.2038 159.897 36.9553 160.016 36.6371C160.135 36.3189 160.195 35.9482 160.195 35.5249C160.195 35.1016 160.135 34.7337 160.016 34.4212C159.899 34.1087 159.726 33.8658 159.496 33.6925C159.269 33.5192 158.989 33.4325 158.657 33.4325C158.313 33.4325 158.026 33.522 157.796 33.701C157.566 33.88 157.392 34.1271 157.276 34.4425C157.159 34.7578 157.101 35.1186 157.101 35.5249C157.101 35.9339 157.159 36.299 157.276 36.62C157.395 36.9382 157.57 37.1896 157.8 37.3743C158.033 37.5561 158.319 37.647 158.657 37.647Z" fill="#1DAA39"/>
<path d="M84.435 13.8235C84.0504 10.6321 81.6349 8.79688 78.4368 8.79688C74.7866 8.79688 72 11.3743 72 15.8949C72 20.402 74.7393 22.9929 78.4368 22.9929C81.979 22.9929 84.1179 20.6381 84.435 18.0945L81.4798 18.081C81.2031 19.5586 80.0426 20.4087 78.484 20.4087C76.3857 20.4087 74.962 18.8501 74.962 15.8949C74.962 13.0206 76.3654 11.381 78.5043 11.381C80.1033 11.381 81.2571 12.3054 81.4798 13.8235H84.435Z" fill="#202020"/>
<path d="M89.4313 22.9996C90.9629 22.9996 91.9547 22.3317 92.4608 21.3668H92.5417V22.804H95.2676V15.8139C95.2676 13.3445 93.176 12.3054 90.8684 12.3054C88.3855 12.3054 86.7527 13.4929 86.3546 15.3821L89.013 15.598C89.2086 14.9098 89.8226 14.4038 90.8549 14.4038C91.8333 14.4038 92.3933 14.8963 92.3933 15.7464V15.7869C92.3933 16.4549 91.6848 16.5426 89.8833 16.718C87.8322 16.907 85.9902 17.5952 85.9902 19.9094C85.9902 21.9606 87.4544 22.9996 89.4313 22.9996ZM90.2544 21.016C89.3706 21.016 88.7363 20.6044 88.7363 19.815C88.7363 19.0053 89.4043 18.6072 90.4164 18.4656C91.0439 18.3778 92.0694 18.2294 92.4135 18V19.0998C92.4135 20.1861 91.5162 21.016 90.2544 21.016Z" fill="#202020"/>
<path d="M100.372 8.9858H97.4975V22.804H100.372V8.9858Z" fill="#202020"/>
<path d="M105.549 8.9858H102.674V22.804H105.549V8.9858Z" fill="#202020"/>
<path d="M107.905 22.804H110.827V18.3239H113.282C116.46 18.3239 118.309 16.4279 118.309 13.6683C118.309 10.9222 116.494 8.9858 113.357 8.9858H107.905V22.804ZM110.827 15.9826V11.3743H112.797C114.483 11.3743 115.3 12.2919 115.3 13.6683C115.3 15.038 114.483 15.9826 112.81 15.9826H110.827Z" fill="#202020"/>
<path d="M122.83 22.9996C124.361 22.9996 125.353 22.3317 125.859 21.3668H125.94V22.804H128.666V15.8139C128.666 13.3445 126.574 12.3054 124.267 12.3054C121.784 12.3054 120.151 13.4929 119.753 15.3821L122.411 15.598C122.607 14.9098 123.221 14.4038 124.253 14.4038C125.232 14.4038 125.792 14.8963 125.792 15.7464V15.7869C125.792 16.4549 125.083 16.5426 123.282 16.718C121.231 16.907 119.389 17.5952 119.389 19.9094C119.389 21.9606 120.853 22.9996 122.83 22.9996ZM123.653 21.016C122.769 21.016 122.135 20.6044 122.135 19.815C122.135 19.0053 122.803 18.6072 123.815 18.4656C124.442 18.3778 125.468 18.2294 125.812 18V19.0998C125.812 20.1861 124.915 21.016 123.653 21.016Z" fill="#202020"/>
<path d="M133.77 16.8125C133.777 15.4766 134.573 14.6939 135.734 14.6939C136.887 14.6939 137.582 15.4496 137.576 16.718V22.804H140.45V16.2053C140.45 13.7898 139.033 12.3054 136.874 12.3054C135.336 12.3054 134.222 13.0611 133.757 14.2688H133.635V12.4403H130.896V22.804H133.77V16.8125Z" fill="#202020"/>
<path d="M146.534 22.9727C148.207 22.9727 149.078 22.0078 149.476 21.1442H149.597V22.804H152.431V8.9858H149.564V14.1811H149.476C149.091 13.3377 148.261 12.3054 146.527 12.3054C144.254 12.3054 142.331 14.0732 142.331 17.6357C142.331 21.1037 144.173 22.9727 146.534 22.9727ZM147.445 20.6854C146.035 20.6854 145.266 19.4304 145.266 17.6222C145.266 15.8274 146.021 14.5927 147.445 14.5927C148.842 14.5927 149.624 15.7734 149.624 17.6222C149.624 19.4709 148.828 20.6854 147.445 20.6854Z" fill="#202020"/>
<path d="M157.75 22.9996C159.281 22.9996 160.273 22.3317 160.779 21.3668H160.86V22.804H163.586V15.8139C163.586 13.3445 161.494 12.3054 159.187 12.3054C156.704 12.3054 155.071 13.4929 154.673 15.3821L157.331 15.598C157.527 14.9098 158.141 14.4038 159.173 14.4038C160.152 14.4038 160.712 14.8963 160.712 15.7464V15.7869C160.712 16.4549 160.003 16.5426 158.202 16.718C156.151 16.907 154.309 17.5952 154.309 19.9094C154.309 21.9606 155.773 22.9996 157.75 22.9996ZM158.573 21.016C157.689 21.016 157.055 20.6044 157.055 19.815C157.055 19.0053 157.723 18.6072 158.735 18.4656C159.362 18.3778 160.388 18.2294 160.732 18V19.0998C160.732 20.1861 159.835 21.016 158.573 21.016Z" fill="#202020"/>
<path d="M167.496 22.9794C168.36 22.9794 169.108 22.2575 169.115 21.3601C169.108 20.4762 168.36 19.7543 167.496 19.7543C166.605 19.7543 165.87 20.4762 165.877 21.3601C165.87 22.2575 166.605 22.9794 167.496 22.9794Z" fill="#202020"/>
<path d="M176.158 23.0064C178.917 23.0064 180.651 21.3871 180.786 19.0053H178.074C177.905 20.1119 177.176 20.7326 176.191 20.7326C174.849 20.7326 173.978 19.6058 173.978 17.6222C173.978 15.6655 174.855 14.5455 176.191 14.5455C177.244 14.5455 177.919 15.2404 178.074 16.2727H180.786C180.665 13.8775 178.85 12.3054 176.144 12.3054C173 12.3054 171.057 14.4847 171.057 17.6626C171.057 20.8136 172.966 23.0064 176.158 23.0064Z" fill="#202020"/>
<path d="M187.309 23.0064C190.453 23.0064 192.41 20.854 192.41 17.6626C192.41 14.451 190.453 12.3054 187.309 12.3054C184.165 12.3054 182.208 14.451 182.208 17.6626C182.208 20.854 184.165 23.0064 187.309 23.0064ZM187.322 20.7798C185.872 20.7798 185.13 19.4506 185.13 17.6424C185.13 15.8342 185.872 14.4982 187.322 14.4982C188.746 14.4982 189.488 15.8342 189.488 17.6424C189.488 19.4506 188.746 20.7798 187.322 20.7798Z" fill="#202020"/>
<path d="M194.279 22.804H197.153V16.5831C197.153 15.4361 197.882 14.6737 198.84 14.6737C199.784 14.6737 200.419 15.3214 200.419 16.3402V22.804H203.205V16.4751C203.205 15.4023 203.819 14.6737 204.865 14.6737C205.783 14.6737 206.471 15.2472 206.471 16.4009V22.804H209.338V15.8342C209.338 13.5874 208.002 12.3054 206.073 12.3054C204.555 12.3054 203.374 13.0813 202.949 14.2688H202.841C202.51 13.0678 201.451 12.3054 200.027 12.3054C198.631 12.3054 197.571 13.0476 197.14 14.2688H197.018V12.4403H194.279V22.804Z" fill="#202020"/>
<path d="M213.876 15.5639V11.8949H215.671C215.903 11.8949 216.115 11.9429 216.308 12.0391C216.503 12.1352 216.657 12.2744 216.77 12.4567C216.886 12.6357 216.944 12.8544 216.944 13.1129C216.944 13.3714 216.884 13.5919 216.765 13.7741C216.646 13.9564 216.487 14.0956 216.288 14.1918C216.089 14.2846 215.868 14.331 215.626 14.331H214.398V13.6399H215.428C215.567 13.6399 215.686 13.5952 215.786 13.5057C215.888 13.4162 215.94 13.2836 215.94 13.108C215.94 12.9257 215.888 12.7964 215.786 12.7202C215.686 12.6406 215.568 12.6009 215.433 12.6009H214.831V15.5639H213.876ZM216.218 13.8686L217.053 15.5639H216.009L215.229 13.8686H216.218ZM215.313 17.7514C214.763 17.7514 214.248 17.6487 213.767 17.4432C213.286 17.2377 212.864 16.9527 212.499 16.5881C212.135 16.2235 211.85 15.8009 211.644 15.3203C211.439 14.8397 211.336 14.3243 211.336 13.7741C211.336 13.224 211.439 12.7086 211.644 12.228C211.85 11.7474 212.135 11.3248 212.499 10.9602C212.864 10.5956 213.286 10.3106 213.767 10.1051C214.248 9.89962 214.763 9.79688 215.313 9.79688C215.863 9.79688 216.379 9.89962 216.859 10.1051C217.34 10.3106 217.763 10.5956 218.127 10.9602C218.492 11.3248 218.777 11.7474 218.982 12.228C219.188 12.7086 219.29 13.224 219.29 13.7741C219.29 14.3243 219.188 14.8397 218.982 15.3203C218.777 15.8009 218.492 16.2235 218.127 16.5881C217.763 16.9527 217.34 17.2377 216.859 17.4432C216.379 17.6487 215.863 17.7514 215.313 17.7514ZM215.313 16.7024C215.857 16.7024 216.349 16.5715 216.79 16.3097C217.234 16.0445 217.587 15.6915 217.849 15.2507C218.111 14.8066 218.241 14.3144 218.241 13.7741C218.241 13.2339 218.109 12.7434 217.844 12.3026C217.582 11.8584 217.229 11.5054 216.785 11.2436C216.344 10.9785 215.853 10.8459 215.313 10.8459C214.776 10.8459 214.286 10.9785 213.842 11.2436C213.397 11.5054 213.045 11.8584 212.783 12.3026C212.521 12.7434 212.39 13.2339 212.39 13.7741C212.39 14.3144 212.521 14.8066 212.783 15.2507C213.045 15.6915 213.397 16.0445 213.842 16.3097C214.286 16.5715 214.776 16.7024 215.313 16.7024Z" fill="#202020"/>
</svg>
