<svg width="33" height="32" viewBox="0 0 33 32" fill="none" xmlns="http://www.w3.org/2000/svg">
<path d="M16.4974 30.4127C15.5774 30.4127 14.7107 29.946 14.0974 29.1327L12.0974 26.466C12.0574 26.4127 11.8974 26.346 11.8307 26.3327H11.1641C5.60406 26.3327 2.16406 24.826 2.16406 17.3327V10.666C2.16406 4.77268 5.27073 1.66602 11.1641 1.66602H21.8307C27.7241 1.66602 30.8307 4.77268 30.8307 10.666V17.3327C30.8307 23.226 27.7241 26.3327 21.8307 26.3327H21.1641C21.0574 26.3327 20.9641 26.386 20.8974 26.466L18.8974 29.1327C18.2841 29.946 17.4174 30.4127 16.4974 30.4127ZM11.1641 3.66602C6.39073 3.66602 4.16406 5.89268 4.16406 10.666V17.3327C4.16406 23.3593 6.23073 24.3327 11.1641 24.3327H11.8307C12.5107 24.3327 13.2841 24.7194 13.6974 25.266L15.6974 27.9327C16.1641 28.546 16.8307 28.546 17.2974 27.9327L19.2974 25.266C19.7374 24.6794 20.4307 24.3327 21.1641 24.3327H21.8307C26.6041 24.3327 28.8307 22.106 28.8307 17.3327V10.666C28.8307 5.89268 26.6041 3.66602 21.8307 3.66602H11.1641Z" fill="#3E3E3E"/>
<path d="M16.4974 16.0007C15.7507 16.0007 15.1641 15.4007 15.1641 14.6673C15.1641 13.934 15.7641 13.334 16.4974 13.334C17.2307 13.334 17.8307 13.934 17.8307 14.6673C17.8307 15.4007 17.2441 16.0007 16.4974 16.0007Z" fill="#3E3E3E"/>
<path d="M21.8333 16.0007C21.0867 16.0007 20.5 15.4007 20.5 14.6673C20.5 13.934 21.1 13.334 21.8333 13.334C22.5667 13.334 23.1667 13.934 23.1667 14.6673C23.1667 15.4007 22.58 16.0007 21.8333 16.0007Z" fill="#3E3E3E"/>
<path d="M11.1693 16.0007C10.4226 16.0007 9.83594 15.4007 9.83594 14.6673C9.83594 13.934 10.4359 13.334 11.1693 13.334C11.9026 13.334 12.5026 13.934 12.5026 14.6673C12.5026 15.4007 11.9159 16.0007 11.1693 16.0007Z" fill="#3E3E3E"/>
</svg>
