<svg width="32" height="32" viewBox="0 0 32 32" fill="none" xmlns="http://www.w3.org/2000/svg">
<path d="M22.6641 2.66602H9.33073C5.65073 2.66602 2.66406 5.63935 2.66406 9.30602V17.2793V18.6127C2.66406 22.2794 5.65073 25.2527 9.33073 25.2527H11.3307C11.6907 25.2527 12.1707 25.4927 12.3974 25.786L14.3974 28.4394C15.2774 29.6127 16.7174 29.6127 17.5974 28.4394L19.5974 25.786C19.8507 25.4527 20.2507 25.2527 20.6641 25.2527H22.6641C26.3441 25.2527 29.3307 22.2794 29.3307 18.6127V9.30602C29.3307 5.63935 26.3441 2.66602 22.6641 2.66602ZM10.6641 15.9993C9.9174 15.9993 9.33073 15.3993 9.33073 14.666C9.33073 13.9327 9.93073 13.3327 10.6641 13.3327C11.3974 13.3327 11.9974 13.9327 11.9974 14.666C11.9974 15.3993 11.4107 15.9993 10.6641 15.9993ZM15.9974 15.9993C15.2507 15.9993 14.6641 15.3993 14.6641 14.666C14.6641 13.9327 15.2641 13.3327 15.9974 13.3327C16.7307 13.3327 17.3307 13.9327 17.3307 14.666C17.3307 15.3993 16.7441 15.9993 15.9974 15.9993ZM21.3307 15.9993C20.5841 15.9993 19.9974 15.3993 19.9974 14.666C19.9974 13.9327 20.5974 13.3327 21.3307 13.3327C22.0641 13.3327 22.6641 13.9327 22.6641 14.666C22.6641 15.3993 22.0774 15.9993 21.3307 15.9993Z" fill="#1DAA39"/>
</svg>
