<svg width="230" height="48" viewBox="0 0 230 48" fill="none" xmlns="http://www.w3.org/2000/svg">
<path fill-rule="evenodd" clip-rule="evenodd" d="M51.0242 40.9658C56.429 36.623 59.7717 30.625 59.7717 24C59.7717 10.7452 46.3913 0 29.8858 0C13.3803 0 0 10.7452 0 24C0 37.2548 13.3803 48 29.8858 48C35.5082 48 40.768 46.7532 45.2598 44.5851L52.6898 46.2163L51.0242 40.9658Z" fill="#1DAA39"/>
<path d="M11.6555 16.43L12.1695 15.6636L11.9248 15.2335L11.917 15.2199C11.5617 14.5955 11.3198 13.8714 11.2007 13.119C11.181 12.9966 11.165 12.8741 11.1525 12.7514C11.0726 11.9845 11.1194 11.2005 11.3022 10.4732C11.3643 10.2263 11.4703 9.93512 11.6026 9.63417C11.7917 9.16929 12.0341 8.72568 12.3264 8.3139C12.418 8.17972 12.5093 8.0579 12.5976 7.95377C12.6369 7.90746 12.6769 7.86162 12.7177 7.81626C13.2553 7.19765 13.9188 6.67338 14.693 6.28789C15.2076 6.03164 15.6045 5.87624 16.0471 5.78095C16.5175 5.66597 17.2212 5.61723 17.8757 5.63716C18.4142 5.64457 18.8512 5.70359 19.3031 5.83821C19.792 5.97699 20.268 6.18025 20.7209 6.44167C21.1051 6.63988 21.3259 6.78835 21.6405 7.0787C21.9874 7.36276 22.3133 7.68425 22.6124 8.0395L22.6489 8.08283L22.9471 8.3844L23.8162 8.16427C25.8039 7.66067 27.7142 7.43699 30.0182 7.43815C30.0341 7.43815 30.05 7.43817 30.0658 7.4382C30.0749 7.43818 30.0839 7.43817 30.093 7.43816L30.1135 7.43815C32.4174 7.43699 34.3278 7.66067 36.3155 8.16427L37.1845 8.3844L37.4828 8.08283L37.5193 8.0395C37.8184 7.68425 38.1443 7.36276 38.4911 7.0787C38.8058 6.78835 39.0265 6.63988 39.4108 6.44167C39.8637 6.18025 40.3396 5.97699 40.8286 5.83822C41.2805 5.70359 41.7175 5.64457 42.256 5.63716C42.9105 5.61723 43.6142 5.66597 44.0845 5.78095C44.5271 5.87624 44.924 6.03164 45.4387 6.28789C46.2128 6.67337 46.8763 7.19762 47.414 7.81622C47.4547 7.86159 47.4948 7.90744 47.5341 7.95377C47.6224 8.05792 47.7137 8.17976 47.8053 8.31396C48.0976 8.72572 48.34 9.16932 48.529 9.63417C48.6613 9.93512 48.7674 10.2263 48.8294 10.4732C49.0122 11.2003 49.059 11.984 48.9792 12.7507C48.9667 12.8738 48.9506 12.9969 48.9308 13.1197C48.8117 13.8719 48.5699 14.5957 48.2147 15.2199L48.2069 15.2335L47.9621 15.6636L48.4762 16.43C52.3749 22.2431 51.6565 29.4237 46.9098 34.8776C46.7184 35.0975 46.6084 35.2187 46.4064 35.429C45.7124 36.1513 45.3222 36.4875 44.5674 37.0956C44.1578 37.4255 43.8904 37.617 43.4925 37.907C42.7063 38.48 41.349 39.1764 41.349 39.1764C41.349 39.1764 40.9239 39.3603 40.5898 39.5241C39.186 40.2125 37.6216 40.7291 35.641 41.2412C34.7702 41.4663 34.2811 41.6015 33.3921 41.738C32.7045 41.8436 32.3142 41.8744 31.62 41.9195C30.4087 41.9982 29.1621 41.9683 28.5116 41.9195C27.9889 41.9043 27.4272 41.8436 26.7396 41.738C25.8506 41.6015 25.3614 41.4663 24.4906 41.2412C22.5101 40.7291 20.9457 40.2125 19.5419 39.5241C19.2077 39.3603 18.8631 39.2263 18.776 39.2263C18.6887 39.2263 17.1825 39.5095 15.4288 39.8555C13.6751 40.2015 12.2198 40.4641 12.1948 40.439C12.1699 40.414 12.5041 39.2764 12.9374 37.9112L13.7253 35.429L13.2219 34.8776C8.37924 29.5741 7.75678 22.2431 11.6555 16.43Z" fill="#202020"/>
<path d="M32.9273 9.48718C38.6299 10.1848 43.5851 12.8001 46.5726 16.6888C48.4801 19.1717 49.4295 21.8529 49.4295 24.7566C49.4295 29.3478 46.9304 33.6408 42.552 36.5708C39.3386 38.7211 35.6529 39.911 31.4592 40.1523C27.4074 40.3854 23.373 39.5624 19.7805 37.77L19.1661 37.4634L17.2983 37.8717C16.271 38.0962 15.4116 38.261 15.3886 38.2378C15.3656 38.2146 15.5333 37.6063 15.7616 36.8858C15.9897 36.1655 16.1731 35.5225 16.1691 35.457C16.1651 35.3915 15.9428 35.1421 15.6752 34.9027C13.202 32.6904 11.5494 29.754 11.0544 26.6917C10.9006 25.7398 10.9007 23.7732 11.0547 22.819C11.5116 19.9868 12.8185 17.5194 15.0705 15.237C16.1706 14.1221 17.1856 13.3105 18.4408 12.5418C22.6286 9.97722 27.8804 8.86984 32.9273 9.48718Z" fill="white"/>
<path fill-rule="evenodd" clip-rule="evenodd" d="M22.2907 18.0722C20.0777 18.5358 17.8273 20.5169 16.9586 22.7661C16.4024 24.2061 16.5388 26.075 17.3044 27.5078C17.3151 27.5279 17.3256 27.5475 17.3357 27.5665C17.3364 27.5678 17.337 27.569 17.3377 27.5702C17.3384 27.5716 17.3392 27.5729 17.3399 27.5743C17.5564 27.9801 17.6472 28.1502 17.7811 28.1969C17.8777 28.2306 17.9968 28.1999 18.2018 28.1471C18.2106 28.1448 18.2194 28.1426 18.2285 28.1402C18.235 28.1386 18.2417 28.1369 18.2484 28.1351C18.9122 27.9652 19.9052 27.8372 20.5561 27.8378C21.6374 27.8387 23.2315 28.1751 23.9679 28.5576L24.2115 28.6841L24.6086 28.2401C25.4606 27.2871 26.3154 25.5395 26.5861 24.1965C26.7668 23.3005 26.7516 21.946 26.5514 21.1064C26.0873 19.1602 24.979 18.0437 23.4528 17.9849C23.1065 17.9715 22.5836 18.0108 22.2907 18.0722ZM25.5488 22.6611C25.4867 21.5672 25.0482 20.7528 24.3618 20.4567C24.0363 20.3163 23.2648 20.3182 22.8123 20.4605C21.4422 20.8914 20.1559 22.3636 20.0236 23.6519C19.9032 24.825 20.5803 26.1113 21.5463 26.5444C22.0163 26.755 22.7487 26.7659 23.3288 26.5708C24.1893 26.2813 24.9957 25.2959 25.3762 24.0688C25.5593 23.4785 25.5838 23.2785 25.5488 22.6611Z" fill="#202020"/>
<path fill-rule="evenodd" clip-rule="evenodd" d="M35.9395 18.0838C33.6944 18.8086 32.739 22.1978 33.8819 25.3831C34.2848 26.5062 35.0257 27.7724 35.6178 28.3501L35.9325 28.657L36.4326 28.4539C37.5102 28.0163 38.2802 27.884 39.6974 27.8928C40.7384 27.8994 41.1428 27.9362 41.6633 28.0719L42.3186 28.2426L42.4962 28.0265C43.2949 27.0543 43.7096 24.9758 43.3916 23.5384C42.8736 21.1978 40.7411 18.9618 38.3048 18.2047C37.544 17.9683 36.4678 17.9133 35.9395 18.0838ZM39.0582 21.6012C38.5645 21.0758 38.0358 20.7263 37.4049 20.508C36.3914 20.1575 35.5019 20.3703 35.0614 21.0688C34.3661 22.1712 34.3898 23.5584 35.1283 24.9766C36.0689 26.7827 38.0997 27.2939 39.2828 26.0223C39.729 25.5427 39.9506 25.0637 40.068 24.3245C40.2176 23.3832 39.8818 22.4777 39.0582 21.6012Z" fill="#202020"/>
<path fill-rule="evenodd" clip-rule="evenodd" d="M28.948 28.2885C28.2309 28.4911 27.5627 29.0099 27.3747 29.5103C27.3268 29.6378 27.2875 29.8928 27.2875 30.0771C27.2875 30.3539 27.3378 30.4597 27.5778 30.6872C27.8867 30.9801 28.5635 31.2327 29.3149 31.3353L29.7449 31.394V32.9972V34.6005L29.3558 34.5437C28.4655 34.4137 27.1945 33.7623 26.3631 33.0098C25.9835 32.6662 25.9737 32.646 26.0556 32.3687C26.1408 32.0798 26.1073 31.8353 25.957 31.6463C25.8971 31.571 25.8152 31.671 25.6503 32.0217C25.4468 32.4543 24.8429 33.108 24.6467 33.108C24.6072 33.108 24.5975 33.145 24.6254 33.1903C24.692 33.2986 25.207 33.2961 25.4109 33.1864C25.5457 33.1139 25.6462 33.1646 26.0403 33.5034C27.4347 34.7024 28.631 35.1986 30.1135 35.1928C31.4548 35.1875 32.5942 34.7215 33.9436 33.6262C34.5359 33.1454 34.6209 33.1012 34.7981 33.1825C35.0384 33.2925 35.5336 33.301 35.5981 33.1963C35.6239 33.1543 35.5742 33.0972 35.4876 33.0696C35.2401 32.9906 34.6684 32.3182 34.4852 31.8908L34.3188 31.5021L34.1947 31.7386C34.0835 31.9506 34.0783 32.1739 34.1765 32.5249C34.2248 32.6974 32.9837 33.6736 32.2567 34.035C31.6896 34.3169 30.8176 34.5862 30.4617 34.5891C30.33 34.5903 30.3183 34.4594 30.3183 32.9844V31.3785L30.5026 31.3771C30.604 31.3763 30.9291 31.3241 31.225 31.261C32.6363 30.9602 33.1243 30.3596 32.7023 29.4432C32.4996 29.0028 32.1801 28.7164 31.5884 28.4443C31.1712 28.2525 30.968 28.2147 30.2368 28.193C29.6578 28.1758 29.2363 28.207 28.948 28.2885ZM28.9489 30.2315C29.5324 30.0379 29.9213 29.341 29.6059 29.0541C29.3594 28.8297 28.8539 28.7975 28.4614 28.9812C28.082 29.1586 27.9428 29.3551 27.9428 29.7132C27.9428 30.1448 28.4394 30.4006 28.9489 30.2315Z" fill="#202020"/>
<path fill-rule="evenodd" clip-rule="evenodd" d="M22.5663 21.8189C21.8279 22.1561 21.1441 23.0631 21.1441 23.7055C21.1441 24.4372 21.6384 25.2122 22.2026 25.3649C23.2782 25.6561 24.3107 24.6648 24.4028 23.2523C24.4683 22.2477 24.0453 21.6585 23.2612 21.6624C23.0654 21.6634 22.7527 21.7338 22.5663 21.8189ZM23.9243 23.2302C24.1645 22.9887 24.1433 22.6183 23.8771 22.4078C23.7584 22.314 23.6201 22.2377 23.5699 22.2384C23.3602 22.2412 23.0664 22.4617 22.9931 22.6714C22.8162 23.177 23.5432 23.6134 23.9243 23.2302Z" fill="#202020"/>
<path fill-rule="evenodd" clip-rule="evenodd" d="M35.8654 21.807C35.2816 22.1706 35.1319 23.2924 35.5498 24.1725C35.9063 24.9233 36.2885 25.265 36.9266 25.403C37.8184 25.5961 38.7203 24.5623 38.5569 23.5346C38.3586 22.2874 36.7508 21.2554 35.8654 21.807ZM36.2101 23.3901C36.6762 23.3901 36.931 22.7609 36.5997 22.4279C36.4036 22.2307 36.0956 22.2203 35.8644 22.4031C35.4452 22.7347 35.6748 23.3901 36.2101 23.3901Z" fill="#202020"/>
<path fill-rule="evenodd" clip-rule="evenodd" d="M16.9586 22.7661C17.8273 20.5169 20.0777 18.5358 22.2907 18.0722C22.5836 18.0108 23.1065 17.9715 23.4528 17.9849C24.979 18.0437 26.0873 19.1602 26.5514 21.1064C26.7516 21.946 26.7668 23.3005 26.5861 24.1965C26.3154 25.5395 25.4606 27.2871 24.6086 28.2401L24.2115 28.6841L23.9679 28.5576C23.2315 28.1751 21.6374 27.8387 20.5561 27.8378C19.9052 27.8372 18.9122 27.9652 18.2484 28.1351L18.2285 28.1402L18.2018 28.1471C17.9968 28.1999 17.8777 28.2306 17.7811 28.1969C17.6472 28.1502 17.5564 27.9801 17.3399 27.5743L17.3377 27.5702L17.3357 27.5665C17.3256 27.5475 17.3151 27.5279 17.3044 27.5078C16.5388 26.075 16.4024 24.2061 16.9586 22.7661ZM33.8819 25.3831C32.739 22.1978 33.6944 18.8086 35.9395 18.0838C36.4678 17.9133 37.544 17.9683 38.3048 18.2047C40.7411 18.9618 42.8736 21.1978 43.3916 23.5384C43.7096 24.9758 43.2949 27.0543 42.4962 28.0265L42.3186 28.2426L41.6633 28.0719C41.1428 27.9362 40.7384 27.8994 39.6974 27.8928C38.2802 27.884 37.5102 28.0163 36.4326 28.4539L35.9325 28.657L35.6178 28.3501C35.0257 27.7724 34.2848 26.5062 33.8819 25.3831ZM27.3747 29.5103C27.5627 29.0099 28.2309 28.4911 28.948 28.2885C29.2363 28.207 29.6578 28.1758 30.2368 28.193C30.968 28.2147 31.1712 28.2525 31.5884 28.4443C32.1801 28.7164 32.4996 29.0028 32.7023 29.4432C33.1243 30.3596 32.6363 30.9602 31.225 31.261C30.9291 31.3241 30.604 31.3763 30.5026 31.3771L30.3183 31.3785V32.9844C30.3183 34.4594 30.33 34.5903 30.4617 34.5891C30.8176 34.5862 31.6896 34.3169 32.2567 34.035C32.9837 33.6736 34.2248 32.6974 34.1765 32.5249C34.0783 32.1739 34.0835 31.9506 34.1947 31.7386L34.3188 31.5021L34.4852 31.8908C34.6684 32.3182 35.2401 32.9906 35.4876 33.0696C35.5742 33.0972 35.6239 33.1543 35.5981 33.1963C35.5336 33.301 35.0384 33.2925 34.7981 33.1825C34.6209 33.1012 34.5359 33.1454 33.9436 33.6262C32.5942 34.7215 31.4548 35.1875 30.1135 35.1928C28.631 35.1986 27.4347 34.7024 26.0403 33.5034C25.6462 33.1646 25.5457 33.1139 25.4109 33.1864C25.207 33.2961 24.692 33.2986 24.6254 33.1903C24.5975 33.145 24.6072 33.108 24.6467 33.108C24.8429 33.108 25.4468 32.4543 25.6503 32.0217C25.8152 31.671 25.8971 31.571 25.957 31.6463C26.1073 31.8353 26.1408 32.0798 26.0556 32.3687C25.9737 32.646 25.9835 32.6662 26.3631 33.0098C27.1945 33.7623 28.4655 34.4137 29.3558 34.5437L29.7449 34.6005V32.9972V31.394L29.3149 31.3353C28.5635 31.2327 27.8867 30.9801 27.5778 30.6872C27.3378 30.4597 27.2875 30.3539 27.2875 30.0771C27.2875 29.8928 27.3268 29.6378 27.3747 29.5103ZM39.0582 21.6012C38.5645 21.0758 38.0358 20.7263 37.4049 20.508C36.3914 20.1575 35.5019 20.3703 35.0614 21.0688C34.3661 22.1712 34.3898 23.5584 35.1283 24.9766C36.0689 26.7827 38.0997 27.2939 39.2828 26.0223C39.729 25.5427 39.9506 25.0637 40.068 24.3245C40.2176 23.3832 39.8818 22.4777 39.0582 21.6012ZM25.5488 22.6611C25.4867 21.5672 25.0482 20.7528 24.3618 20.4567C24.0363 20.3163 23.2648 20.3182 22.8123 20.4605C21.4422 20.8914 20.1559 22.3636 20.0236 23.6519C19.9032 24.825 20.5803 26.1113 21.5463 26.5444C22.0163 26.755 22.7487 26.7659 23.3288 26.5708C24.1893 26.2813 24.9957 25.2959 25.3762 24.0688C25.5593 23.4785 25.5838 23.2785 25.5488 22.6611ZM22.5663 21.8189C21.8279 22.1561 21.1441 23.0631 21.1441 23.7055C21.1441 24.4372 21.6384 25.2122 22.2026 25.3649C23.2782 25.6561 24.3107 24.6648 24.4028 23.2523C24.4683 22.2477 24.0453 21.6585 23.2612 21.6624C23.0654 21.6634 22.7527 21.7338 22.5663 21.8189ZM23.8771 22.4078C24.1433 22.6183 24.1645 22.9887 23.9243 23.2302C23.5432 23.6134 22.8162 23.177 22.9931 22.6714C23.0664 22.4617 23.3602 22.2412 23.5699 22.2384C23.6201 22.2377 23.7584 22.314 23.8771 22.4078ZM28.9489 30.2315C29.5324 30.0379 29.9213 29.341 29.6059 29.0541C29.3594 28.8297 28.8539 28.7975 28.4614 28.9812C28.082 29.1586 27.9428 29.3551 27.9428 29.7132C27.9428 30.1448 28.4394 30.4006 28.9489 30.2315Z" fill="#202020"/>
<path d="M78.6399 31.4553L76.3089 38.0007H74.6044L72.2734 31.4553H73.9183L75.4226 36.3175H75.4908L76.9993 31.4553H78.6399Z" fill="#1DAA39"/>
<path d="M79.7074 38.0007V31.4553H81.25V38.0007H79.7074ZM80.483 30.5263C80.2386 30.5263 80.0284 30.4453 79.8523 30.2834C79.6761 30.1186 79.5881 29.9212 79.5881 29.6911C79.5881 29.4581 79.6761 29.2607 79.8523 29.0987C80.0284 28.9339 80.2386 28.8516 80.483 28.8516C80.7301 28.8516 80.9403 28.9339 81.1136 29.0987C81.2898 29.2607 81.3778 29.4581 81.3778 29.6911C81.3778 29.9212 81.2898 30.1186 81.1136 30.2834C80.9403 30.4453 80.7301 30.5263 80.483 30.5263Z" fill="#1DAA39"/>
<path d="M85.2653 38.1158C84.7511 38.1158 84.2908 37.9837 83.8846 37.7195C83.4783 37.4553 83.1573 37.0717 82.9215 36.5689C82.6857 36.0661 82.5678 35.4553 82.5678 34.7365C82.5678 34.0092 82.6871 33.3956 82.9258 32.8956C83.1673 32.3928 83.4925 32.0135 83.9016 31.7578C84.3107 31.4993 84.7667 31.37 85.2695 31.37C85.6531 31.37 85.9684 31.4354 86.2156 31.5661C86.4627 31.6939 86.6587 31.8487 86.8036 32.0305C86.9485 32.2095 87.0607 32.3786 87.1403 32.5376H87.2042V29.2734H88.7511V38.0007H87.234V36.9695H87.1403C87.0607 37.1286 86.9457 37.2976 86.7951 37.4766C86.6445 37.6527 86.4457 37.8033 86.1985 37.9283C85.9514 38.0533 85.6403 38.1158 85.2653 38.1158ZM85.6957 36.8501C86.0224 36.8501 86.3008 36.7621 86.5309 36.5859C86.761 36.407 86.9357 36.1584 87.055 35.8402C87.1744 35.522 87.234 35.1513 87.234 34.728C87.234 34.3047 87.1744 33.9368 87.055 33.6243C86.9386 33.3118 86.7653 33.0689 86.5352 32.8956C86.3079 32.7223 86.0281 32.6357 85.6957 32.6357C85.3519 32.6357 85.065 32.7251 84.8349 32.9041C84.6048 33.0831 84.4315 33.3303 84.315 33.6456C84.1985 33.9609 84.1403 34.3217 84.1403 34.728C84.1403 35.1371 84.1985 35.5021 84.315 35.8232C84.4343 36.1413 84.609 36.3928 84.8391 36.5774C85.0721 36.7592 85.3576 36.8501 85.6957 36.8501Z" fill="#1DAA39"/>
<path d="M93.2926 38.1286C92.6364 38.1286 92.0696 37.9922 91.5923 37.7195C91.1179 37.4439 90.7528 37.0547 90.4972 36.5518C90.2415 36.0462 90.1136 35.451 90.1136 34.7663C90.1136 34.093 90.2415 33.5021 90.4972 32.9936C90.7557 32.4822 91.1165 32.0845 91.5795 31.8004C92.0426 31.5135 92.5866 31.37 93.2116 31.37C93.6151 31.37 93.9957 31.4354 94.3537 31.5661C94.7145 31.6939 95.0327 31.8928 95.3082 32.1626C95.5866 32.4325 95.8054 32.7763 95.9645 33.1939C96.1236 33.6087 96.2031 34.103 96.2031 34.6768V35.1499H90.8381V34.1101H94.7244C94.7216 33.8146 94.6577 33.5518 94.5327 33.3217C94.4077 33.0888 94.233 32.9055 94.0085 32.772C93.7869 32.6385 93.5284 32.5717 93.233 32.5717C92.9176 32.5717 92.6406 32.6484 92.402 32.8018C92.1634 32.9524 91.9773 33.1513 91.8438 33.3984C91.7131 33.6428 91.6463 33.9112 91.6435 34.2038V35.1115C91.6435 35.4922 91.7131 35.8189 91.8523 36.0916C91.9915 36.3615 92.1861 36.5689 92.4361 36.7138C92.6861 36.8558 92.9787 36.9268 93.3139 36.9268C93.5384 36.9268 93.7415 36.8956 93.9233 36.8331C94.1051 36.7678 94.2628 36.6726 94.3963 36.5476C94.5298 36.4226 94.6307 36.2678 94.6989 36.0831L96.1392 36.245C96.0483 36.6257 95.875 36.9581 95.6193 37.2422C95.3665 37.5234 95.0426 37.7422 94.6477 37.8984C94.2528 38.0518 93.8011 38.1286 93.2926 38.1286Z" fill="#1DAA39"/>
<path d="M100.363 38.1286C99.7241 38.1286 99.1701 37.9879 98.7013 37.7067C98.2326 37.4254 97.869 37.032 97.6104 36.5263C97.3548 36.0206 97.2269 35.4297 97.2269 34.7536C97.2269 34.0774 97.3548 33.4851 97.6104 32.9766C97.869 32.468 98.2326 32.0732 98.7013 31.7919C99.1701 31.5107 99.7241 31.37 100.363 31.37C101.002 31.37 101.556 31.5107 102.025 31.7919C102.494 32.0732 102.856 32.468 103.112 32.9766C103.37 33.4851 103.5 34.0774 103.5 34.7536C103.5 35.4297 103.37 36.0206 103.112 36.5263C102.856 37.032 102.494 37.4254 102.025 37.7067C101.556 37.9879 101.002 38.1286 100.363 38.1286ZM100.372 36.8928C100.718 36.8928 101.008 36.7976 101.241 36.6072C101.474 36.4141 101.647 36.1555 101.761 35.8317C101.877 35.5078 101.936 35.147 101.936 34.7493C101.936 34.3487 101.877 33.9865 101.761 33.6626C101.647 33.3359 101.474 33.076 101.241 32.8828C101.008 32.6896 100.718 32.593 100.372 32.593C100.017 32.593 99.7212 32.6896 99.4854 32.8828C99.2525 33.076 99.0778 33.3359 98.9613 33.6626C98.8477 33.9865 98.7908 34.3487 98.7908 34.7493C98.7908 35.147 98.8477 35.5078 98.9613 35.8317C99.0778 36.1555 99.2525 36.4141 99.4854 36.6072C99.7212 36.7976 100.017 36.8928 100.372 36.8928Z" fill="#1DAA39"/>
<path d="M110.641 38.1286C109.987 38.1286 109.426 37.9851 108.957 37.6982C108.491 37.4112 108.132 37.0149 107.879 36.5092C107.629 36.0007 107.504 35.4155 107.504 34.7536C107.504 34.0888 107.632 33.5021 107.888 32.9936C108.143 32.4822 108.504 32.0845 108.97 31.8004C109.439 31.5135 109.993 31.37 110.632 31.37C111.163 31.37 111.634 31.468 112.043 31.6641C112.455 31.8572 112.783 32.1314 113.027 32.4865C113.271 32.8388 113.411 33.2507 113.445 33.7223H111.97C111.911 33.407 111.768 33.1442 111.544 32.9339C111.322 32.7209 111.026 32.6143 110.653 32.6143C110.338 32.6143 110.061 32.6996 109.822 32.87C109.584 33.0376 109.398 33.2791 109.264 33.5945C109.134 33.9098 109.068 34.2876 109.068 34.728C109.068 35.174 109.134 35.5575 109.264 35.8786C109.395 36.1967 109.578 36.4425 109.814 36.6158C110.053 36.7862 110.332 36.8714 110.653 36.8714C110.881 36.8714 111.084 36.8288 111.263 36.7436C111.445 36.6555 111.597 36.5291 111.719 36.3643C111.841 36.1996 111.925 35.9993 111.97 35.7635H113.445C113.408 36.2266 113.271 36.6371 113.036 36.995C112.8 37.3501 112.479 37.6286 112.072 37.8303C111.666 38.0291 111.189 38.1286 110.641 38.1286Z" fill="#1DAA39"/>
<path d="M116.254 29.2734V38.0007H114.711V29.2734H116.254Z" fill="#1DAA39"/>
<path d="M119.724 38.1328C119.309 38.1328 118.935 38.0589 118.603 37.9112C118.273 37.7607 118.012 37.5391 117.819 37.2464C117.629 36.9538 117.533 36.593 117.533 36.1641C117.533 35.7947 117.602 35.4893 117.738 35.2479C117.874 35.0064 118.06 34.8132 118.296 34.6683C118.532 34.5234 118.798 34.4141 119.093 34.3402C119.391 34.2635 119.7 34.2081 120.018 34.174C120.401 34.1342 120.712 34.0987 120.951 34.0675C121.19 34.0334 121.363 33.9822 121.471 33.9141C121.582 33.843 121.637 33.7337 121.637 33.5859V33.5604C121.637 33.2393 121.542 32.9908 121.352 32.8146C121.161 32.6385 120.887 32.5504 120.529 32.5504C120.151 32.5504 119.852 32.6328 119.63 32.7976C119.411 32.9624 119.263 33.157 119.187 33.3814L117.746 33.1768C117.86 32.7791 118.048 32.4467 118.309 32.1797C118.57 31.9098 118.89 31.7081 119.268 31.5746C119.646 31.4382 120.063 31.37 120.521 31.37C120.836 31.37 121.15 31.407 121.462 31.4808C121.775 31.5547 122.06 31.6768 122.319 31.8473C122.577 32.0149 122.785 32.2436 122.941 32.5334C123.1 32.8232 123.18 33.1854 123.18 33.62V38.0007H121.697V37.1016H121.646C121.552 37.2834 121.42 37.4538 121.249 37.6129C121.082 37.7692 120.87 37.8956 120.614 37.9922C120.362 38.0859 120.065 38.1328 119.724 38.1328ZM120.124 36.9993C120.434 36.9993 120.702 36.9382 120.93 36.8161C121.157 36.6911 121.332 36.5263 121.454 36.3217C121.579 36.1172 121.641 35.8942 121.641 35.6527V34.8814C121.593 34.9212 121.511 34.9581 121.394 34.9922C121.281 35.0263 121.153 35.0561 121.011 35.0817C120.869 35.1072 120.728 35.13 120.589 35.1499C120.45 35.1697 120.329 35.1868 120.227 35.201C119.996 35.2322 119.79 35.2834 119.609 35.3544C119.427 35.4254 119.283 35.5249 119.178 35.6527C119.073 35.7777 119.021 35.9396 119.021 36.1385C119.021 36.4226 119.124 36.6371 119.332 36.782C119.539 36.9268 119.803 36.9993 120.124 36.9993Z" fill="#1DAA39"/>
<path d="M129.904 33.1854L128.498 33.3388C128.458 33.1967 128.388 33.0632 128.289 32.9382C128.192 32.8132 128.062 32.7124 127.897 32.6357C127.732 32.5589 127.531 32.5206 127.292 32.5206C126.971 32.5206 126.701 32.5902 126.482 32.7294C126.266 32.8686 126.16 33.049 126.163 33.2706C126.16 33.4609 126.229 33.6158 126.371 33.7351C126.516 33.8544 126.755 33.9524 127.087 34.0291L128.204 34.2678C128.823 34.4013 129.283 34.6129 129.585 34.9027C129.888 35.1925 130.042 35.5717 130.045 36.0405C130.042 36.4524 129.921 36.8161 129.683 37.1314C129.447 37.4439 129.119 37.6882 128.698 37.8643C128.278 38.0405 127.795 38.1286 127.249 38.1286C126.448 38.1286 125.803 37.9609 125.315 37.6257C124.826 37.2876 124.535 36.8175 124.441 36.2152L125.945 36.0703C126.013 36.3658 126.158 36.5888 126.38 36.7393C126.602 36.8899 126.89 36.9652 127.245 36.9652C127.612 36.9652 127.906 36.8899 128.127 36.7393C128.352 36.5888 128.464 36.4027 128.464 36.1811C128.464 35.9936 128.391 35.8388 128.246 35.7166C128.104 35.5945 127.883 35.5007 127.582 35.4354L126.465 35.201C125.837 35.0703 125.373 34.8501 125.072 34.5405C124.771 34.228 124.621 33.8331 124.624 33.3558C124.621 32.9524 124.731 32.603 124.952 32.3075C125.177 32.0092 125.488 31.7791 125.886 31.6172C126.286 31.4524 126.748 31.37 127.271 31.37C128.038 31.37 128.641 31.5334 129.082 31.8601C129.525 32.1868 129.799 32.6286 129.904 33.1854Z" fill="#1DAA39"/>
<path d="M136.49 33.1854L135.084 33.3388C135.044 33.1967 134.974 33.0632 134.875 32.9382C134.778 32.8132 134.648 32.7124 134.483 32.6357C134.318 32.5589 134.116 32.5206 133.878 32.5206C133.557 32.5206 133.287 32.5902 133.068 32.7294C132.852 32.8686 132.746 33.049 132.749 33.2706C132.746 33.4609 132.815 33.6158 132.957 33.7351C133.102 33.8544 133.341 33.9524 133.673 34.0291L134.79 34.2678C135.409 34.4013 135.869 34.6129 136.17 34.9027C136.474 35.1925 136.628 35.5717 136.631 36.0405C136.628 36.4524 136.507 36.8161 136.268 37.1314C136.033 37.4439 135.705 37.6882 135.284 37.8643C134.864 38.0405 134.381 38.1286 133.835 38.1286C133.034 38.1286 132.389 37.9609 131.901 37.6257C131.412 37.2876 131.121 36.8175 131.027 36.2152L132.531 36.0703C132.599 36.3658 132.744 36.5888 132.966 36.7393C133.188 36.8899 133.476 36.9652 133.831 36.9652C134.197 36.9652 134.491 36.8899 134.713 36.7393C134.937 36.5888 135.05 36.4027 135.05 36.1811C135.05 35.9936 134.977 35.8388 134.832 35.7166C134.69 35.5945 134.469 35.5007 134.168 35.4354L133.051 35.201C132.423 35.0703 131.959 34.8501 131.658 34.5405C131.357 34.228 131.207 33.8331 131.21 33.3558C131.207 32.9524 131.317 32.603 131.538 32.3075C131.763 32.0092 132.074 31.7791 132.472 31.6172C132.872 31.4524 133.334 31.37 133.857 31.37C134.624 31.37 135.227 31.5334 135.668 31.8601C136.111 32.1868 136.385 32.6286 136.49 33.1854Z" fill="#1DAA39"/>
<path d="M137.903 38.0007V31.4553H139.445V38.0007H137.903ZM138.678 30.5263C138.434 30.5263 138.224 30.4453 138.048 30.2834C137.871 30.1186 137.783 29.9212 137.783 29.6911C137.783 29.4581 137.871 29.2607 138.048 29.0987C138.224 28.9339 138.434 28.8516 138.678 28.8516C138.925 28.8516 139.136 28.9339 139.309 29.0987C139.485 29.2607 139.573 29.4581 139.573 29.6911C139.573 29.9212 139.485 30.1186 139.309 30.2834C139.136 30.4453 138.925 30.5263 138.678 30.5263Z" fill="#1DAA39"/>
<path d="M144.347 31.4553V32.6484H140.478V31.4553H144.347ZM141.445 38.0007V30.8374C141.445 30.397 141.536 30.0305 141.718 29.7379C141.902 29.4453 142.149 29.2266 142.459 29.0817C142.769 28.9368 143.113 28.8643 143.49 28.8643C143.757 28.8643 143.995 28.8857 144.202 28.9283C144.409 28.9709 144.563 29.0092 144.662 29.0433L144.355 30.2365C144.29 30.2166 144.208 30.1967 144.108 30.1768C144.009 30.1541 143.898 30.1428 143.776 30.1428C143.489 30.1428 143.286 30.2124 143.167 30.3516C143.05 30.4879 142.992 30.6839 142.992 30.9396V38.0007H141.445Z" fill="#1DAA39"/>
<path d="M145.555 38.0007V31.4553H147.098V38.0007H145.555ZM146.331 30.5263C146.086 30.5263 145.876 30.4453 145.7 30.2834C145.524 30.1186 145.436 29.9212 145.436 29.6911C145.436 29.4581 145.524 29.2607 145.7 29.0987C145.876 28.9339 146.086 28.8516 146.331 28.8516C146.578 28.8516 146.788 28.9339 146.961 29.0987C147.137 29.2607 147.225 29.4581 147.225 29.6911C147.225 29.9212 147.137 30.1186 146.961 30.2834C146.788 30.4453 146.578 30.5263 146.331 30.5263Z" fill="#1DAA39"/>
<path d="M151.582 38.1286C150.925 38.1286 150.359 37.9922 149.881 37.7195C149.407 37.4439 149.042 37.0547 148.786 36.5518C148.531 36.0462 148.403 35.451 148.403 34.7663C148.403 34.093 148.531 33.5021 148.786 32.9936C149.045 32.4822 149.406 32.0845 149.869 31.8004C150.332 31.5135 150.876 31.37 151.501 31.37C151.904 31.37 152.285 31.4354 152.643 31.5661C153.004 31.6939 153.322 31.8928 153.597 32.1626C153.876 32.4325 154.094 32.7763 154.254 33.1939C154.413 33.6087 154.492 34.103 154.492 34.6768V35.1499H149.127V34.1101H153.013C153.011 33.8146 152.947 33.5518 152.822 33.3217C152.697 33.0888 152.522 32.9055 152.298 32.772C152.076 32.6385 151.817 32.5717 151.522 32.5717C151.207 32.5717 150.93 32.6484 150.691 32.8018C150.452 32.9524 150.266 33.1513 150.133 33.3984C150.002 33.6428 149.935 33.9112 149.933 34.2038V35.1115C149.933 35.4922 150.002 35.8189 150.141 36.0916C150.281 36.3615 150.475 36.5689 150.725 36.7138C150.975 36.8558 151.268 36.9268 151.603 36.9268C151.827 36.9268 152.031 36.8956 152.212 36.8331C152.394 36.7678 152.552 36.6726 152.685 36.5476C152.819 36.4226 152.92 36.2678 152.988 36.0831L154.428 36.245C154.337 36.6257 154.164 36.9581 153.908 37.2422C153.656 37.5234 153.332 37.7422 152.937 37.8984C152.542 38.0518 152.09 38.1286 151.582 38.1286Z" fill="#1DAA39"/>
<path d="M158.226 38.1158C157.712 38.1158 157.252 37.9837 156.846 37.7195C156.439 37.4553 156.118 37.0717 155.882 36.5689C155.647 36.0661 155.529 35.4553 155.529 34.7365C155.529 34.0092 155.648 33.3956 155.887 32.8956C156.128 32.3928 156.453 32.0135 156.863 31.7578C157.272 31.4993 157.728 31.37 158.23 31.37C158.614 31.37 158.929 31.4354 159.176 31.5661C159.424 31.6939 159.62 31.8487 159.765 32.0305C159.909 32.2095 160.022 32.3786 160.101 32.5376H160.165V29.2734H161.712V38.0007H160.195V36.9695H160.101C160.022 37.1286 159.907 37.2976 159.756 37.4766C159.605 37.6527 159.407 37.8033 159.159 37.9283C158.912 38.0533 158.601 38.1158 158.226 38.1158ZM158.657 36.8501C158.983 36.8501 159.262 36.7621 159.492 36.5859C159.722 36.407 159.897 36.1584 160.016 35.8402C160.135 35.522 160.195 35.1513 160.195 34.728C160.195 34.3047 160.135 33.9368 160.016 33.6243C159.899 33.3118 159.726 33.0689 159.496 32.8956C159.269 32.7223 158.989 32.6357 158.657 32.6357C158.313 32.6357 158.026 32.7251 157.796 32.9041C157.566 33.0831 157.392 33.3303 157.276 33.6456C157.159 33.9609 157.101 34.3217 157.101 34.728C157.101 35.1371 157.159 35.5021 157.276 35.8232C157.395 36.1413 157.57 36.3928 157.8 36.5774C158.033 36.7592 158.319 36.8501 158.657 36.8501Z" fill="#1DAA39"/>
<path d="M84.435 13.0266C84.0504 9.83523 81.6349 8 78.4368 8C74.7866 8 72 10.5774 72 15.098C72 19.6051 74.7393 22.196 78.4368 22.196C81.979 22.196 84.1179 19.8413 84.435 17.2976L81.4798 17.2841C81.2031 18.7617 80.0426 19.6119 78.484 19.6119C76.3857 19.6119 74.962 18.0533 74.962 15.098C74.962 12.2237 76.3654 10.5842 78.5043 10.5842C80.1033 10.5842 81.2571 11.5085 81.4798 13.0266H84.435Z" fill="white"/>
<path d="M89.4313 22.2028C90.9629 22.2028 91.9547 21.5348 92.4608 20.57H92.5417V22.0071H95.2676V15.017C95.2676 12.5476 93.176 11.5085 90.8684 11.5085C88.3855 11.5085 86.7527 12.696 86.3546 14.5852L89.013 14.8011C89.2086 14.1129 89.8226 13.6069 90.8549 13.6069C91.8333 13.6069 92.3933 14.0994 92.3933 14.9496V14.9901C92.3933 15.658 91.6848 15.7457 89.8833 15.9212C87.8322 16.1101 85.9902 16.7983 85.9902 19.1126C85.9902 21.1637 87.4544 22.2028 89.4313 22.2028ZM90.2544 20.2191C89.3706 20.2191 88.7363 19.8075 88.7363 19.0181C88.7363 18.2085 89.4043 17.8104 90.4164 17.6687C91.0439 17.581 92.0694 17.4325 92.4135 17.2031V18.3029C92.4135 19.3892 91.5162 20.2191 90.2544 20.2191Z" fill="white"/>
<path d="M100.372 8.18892H97.4975V22.0071H100.372V8.18892Z" fill="white"/>
<path d="M105.549 8.18892H102.674V22.0071H105.549V8.18892Z" fill="white"/>
<path d="M107.905 22.0071H110.827V17.527H113.282C116.46 17.527 118.309 15.631 118.309 12.8714C118.309 10.1254 116.494 8.18892 113.357 8.18892H107.905V22.0071ZM110.827 15.1857V10.5774H112.797C114.483 10.5774 115.3 11.495 115.3 12.8714C115.3 14.2411 114.483 15.1857 112.81 15.1857H110.827Z" fill="white"/>
<path d="M122.83 22.2028C124.361 22.2028 125.353 21.5348 125.859 20.57H125.94V22.0071H128.666V15.017C128.666 12.5476 126.574 11.5085 124.267 11.5085C121.784 11.5085 120.151 12.696 119.753 14.5852L122.411 14.8011C122.607 14.1129 123.221 13.6069 124.253 13.6069C125.232 13.6069 125.792 14.0994 125.792 14.9496V14.9901C125.792 15.658 125.083 15.7457 123.282 15.9212C121.231 16.1101 119.389 16.7983 119.389 19.1126C119.389 21.1637 120.853 22.2028 122.83 22.2028ZM123.653 20.2191C122.769 20.2191 122.135 19.8075 122.135 19.0181C122.135 18.2085 122.803 17.8104 123.815 17.6687C124.442 17.581 125.468 17.4325 125.812 17.2031V18.3029C125.812 19.3892 124.915 20.2191 123.653 20.2191Z" fill="white"/>
<path d="M133.77 16.0156C133.777 14.6797 134.573 13.897 135.734 13.897C136.887 13.897 137.582 14.6527 137.576 15.9212V22.0071H140.45V15.4084C140.45 12.9929 139.033 11.5085 136.874 11.5085C135.336 11.5085 134.222 12.2642 133.757 13.4719H133.635V11.6435H130.896V22.0071H133.77V16.0156Z" fill="white"/>
<path d="M146.534 22.1758C148.207 22.1758 149.078 21.2109 149.476 20.3473H149.597V22.0071H152.431V8.18892H149.564V13.3842H149.476C149.091 12.5408 148.261 11.5085 146.527 11.5085C144.254 11.5085 142.331 13.2763 142.331 16.8388C142.331 20.3068 144.173 22.1758 146.534 22.1758ZM147.445 19.8885C146.035 19.8885 145.266 18.6335 145.266 16.8253C145.266 15.0305 146.021 13.7958 147.445 13.7958C148.842 13.7958 149.624 14.9766 149.624 16.8253C149.624 18.674 148.828 19.8885 147.445 19.8885Z" fill="white"/>
<path d="M157.75 22.2028C159.281 22.2028 160.273 21.5348 160.779 20.57H160.86V22.0071H163.586V15.017C163.586 12.5476 161.494 11.5085 159.187 11.5085C156.704 11.5085 155.071 12.696 154.673 14.5852L157.331 14.8011C157.527 14.1129 158.141 13.6069 159.173 13.6069C160.152 13.6069 160.712 14.0994 160.712 14.9496V14.9901C160.712 15.658 160.003 15.7457 158.202 15.9212C156.151 16.1101 154.309 16.7983 154.309 19.1126C154.309 21.1637 155.773 22.2028 157.75 22.2028ZM158.573 20.2191C157.689 20.2191 157.055 19.8075 157.055 19.0181C157.055 18.2085 157.723 17.8104 158.735 17.6687C159.362 17.581 160.388 17.4325 160.732 17.2031V18.3029C160.732 19.3892 159.835 20.2191 158.573 20.2191Z" fill="white"/>
<path d="M167.496 22.1825C168.36 22.1825 169.108 21.4606 169.115 20.5632C169.108 19.6793 168.36 18.9574 167.496 18.9574C166.605 18.9574 165.87 19.6793 165.877 20.5632C165.87 21.4606 166.605 22.1825 167.496 22.1825Z" fill="white"/>
<path d="M176.158 22.2095C178.917 22.2095 180.651 20.5902 180.786 18.2085H178.074C177.905 19.315 177.176 19.9357 176.191 19.9357C174.849 19.9357 173.978 18.8089 173.978 16.8253C173.978 14.8686 174.855 13.7486 176.191 13.7486C177.244 13.7486 177.919 14.4435 178.074 15.4759H180.786C180.665 13.0806 178.85 11.5085 176.144 11.5085C173 11.5085 171.057 13.6879 171.057 16.8658C171.057 20.0167 172.966 22.2095 176.158 22.2095Z" fill="white"/>
<path d="M187.309 22.2095C190.453 22.2095 192.41 20.0572 192.41 16.8658C192.41 13.6541 190.453 11.5085 187.309 11.5085C184.165 11.5085 182.208 13.6541 182.208 16.8658C182.208 20.0572 184.165 22.2095 187.309 22.2095ZM187.322 19.983C185.872 19.983 185.13 18.6538 185.13 16.8455C185.13 15.0373 185.872 13.7014 187.322 13.7014C188.746 13.7014 189.488 15.0373 189.488 16.8455C189.488 18.6538 188.746 19.983 187.322 19.983Z" fill="white"/>
<path d="M194.279 22.0071H197.153V15.7862C197.153 14.6392 197.882 13.8768 198.84 13.8768C199.784 13.8768 200.419 14.5245 200.419 15.5433V22.0071H203.205V15.6783C203.205 14.6055 203.819 13.8768 204.865 13.8768C205.783 13.8768 206.471 14.4503 206.471 15.604V22.0071H209.338V15.0373C209.338 12.7905 208.002 11.5085 206.073 11.5085C204.555 11.5085 203.374 12.2844 202.949 13.4719H202.841C202.51 12.271 201.451 11.5085 200.027 11.5085C198.631 11.5085 197.571 12.2507 197.14 13.4719H197.018V11.6435H194.279V22.0071Z" fill="white"/>
<path d="M213.876 14.767V11.098H215.671C215.903 11.098 216.115 11.1461 216.308 11.2422C216.503 11.3383 216.657 11.4775 216.77 11.6598C216.886 11.8388 216.944 12.0575 216.944 12.3161C216.944 12.5746 216.884 12.795 216.765 12.9773C216.646 13.1596 216.487 13.2988 216.288 13.3949C216.089 13.4877 215.868 13.5341 215.626 13.5341H214.398V12.843H215.428C215.567 12.843 215.686 12.7983 215.786 12.7088C215.888 12.6193 215.94 12.4867 215.94 12.3111C215.94 12.1288 215.888 11.9995 215.786 11.9233C215.686 11.8438 215.568 11.804 215.433 11.804H214.831V14.767H213.876ZM216.218 13.0717L217.053 14.767H216.009L215.229 13.0717H216.218ZM215.313 16.9545C214.763 16.9545 214.248 16.8518 213.767 16.6463C213.286 16.4408 212.864 16.1558 212.499 15.7912C212.135 15.4266 211.85 15.004 211.644 14.5234C211.439 14.0429 211.336 13.5275 211.336 12.9773C211.336 12.4271 211.439 11.9117 211.644 11.4311C211.85 10.9505 212.135 10.5279 212.499 10.1634C212.864 9.79877 213.286 9.51373 213.767 9.30824C214.248 9.10275 214.763 9 215.313 9C215.863 9 216.379 9.10275 216.859 9.30824C217.34 9.51373 217.763 9.79877 218.127 10.1634C218.492 10.5279 218.777 10.9505 218.982 11.4311C219.188 11.9117 219.29 12.4271 219.29 12.9773C219.29 13.5275 219.188 14.0429 218.982 14.5234C218.777 15.004 218.492 15.4266 218.127 15.7912C217.763 16.1558 217.34 16.4408 216.859 16.6463C216.379 16.8518 215.863 16.9545 215.313 16.9545ZM215.313 15.9055C215.857 15.9055 216.349 15.7746 216.79 15.5128C217.234 15.2476 217.587 14.8946 217.849 14.4538C218.111 14.0097 218.241 13.5175 218.241 12.9773C218.241 12.437 218.109 11.9465 217.844 11.5057C217.582 11.0616 217.229 10.7086 216.785 10.4467C216.344 10.1816 215.853 10.049 215.313 10.049C214.776 10.049 214.286 10.1816 213.842 10.4467C213.397 10.7086 213.045 11.0616 212.783 11.5057C212.521 11.9465 212.39 12.437 212.39 12.9773C212.39 13.5175 212.521 14.0097 212.783 14.4538C213.045 14.8946 213.397 15.2476 213.842 15.5128C214.286 15.7746 214.776 15.9055 215.313 15.9055Z" fill="white"/>
</svg>
