<svg width="32" height="32" viewBox="0 0 32 32" fill="none" xmlns="http://www.w3.org/2000/svg">
<path fill-rule="evenodd" clip-rule="evenodd" d="M29.361 19.6461C29.9117 19.6875 30.3237 20.1688 30.2823 20.7195L30.029 24.0648C29.8197 26.8248 27.4903 28.9862 24.7237 28.9862H7.257C4.49033 28.9862 2.161 26.8248 1.95166 24.0648L1.69833 20.7195C1.657 20.1688 2.07033 19.6875 2.621 19.6461C3.17433 19.6261 3.65166 20.0168 3.69433 20.5688L3.94633 23.9128C4.077 25.6355 5.53033 26.9862 7.257 26.9862H24.7237C26.4503 26.9862 27.905 25.6355 28.0343 23.9128L28.2877 20.5688C28.3303 20.0168 28.8197 19.6248 29.361 19.6461ZM18.7106 0.666016C20.7145 0.666016 22.3747 2.1677 22.6247 4.10472L25.2507 4.10588C28.0454 4.10588 30.3174 6.38455 30.3174 9.18722V15.7725C30.3174 16.1285 30.1281 16.4565 29.8227 16.6352C26.5317 18.5625 21.3626 19.6867 16.9901 19.8367L16.9906 22.2348C16.9906 22.7868 16.5426 23.2348 15.9906 23.2348C15.4386 23.2348 14.9906 22.7868 14.9906 22.2348L14.9897 19.837C10.6216 19.6884 5.45227 18.564 2.15873 16.6352C1.85206 16.4565 1.66406 16.1285 1.66406 15.7725V9.17388C1.66406 6.37922 3.94273 4.10588 6.74406 4.10588L9.35647 4.10472C9.60652 2.1677 11.2667 0.666016 13.2706 0.666016H18.7106ZM25.2507 6.10588H6.74406C5.0454 6.10588 3.66406 7.48188 3.66406 9.17388V15.1899C6.82901 16.9096 11.819 17.8521 15.9721 17.8539L15.9906 17.8521L16.0054 17.8527L16.6403 17.8461C20.568 17.7525 25.3149 16.8206 28.3174 15.1899V9.18722C28.3174 7.48722 26.9427 6.10588 25.2507 6.10588ZM18.7106 2.66602H13.2706C12.3728 2.66602 11.6149 3.27705 11.3911 4.10505H20.5901C20.3663 3.27705 19.6084 2.66602 18.7106 2.66602Z" fill="#D3D3D3"/>
</svg>
