<svg width="32" height="32" viewBox="0 0 32 32" fill="none" xmlns="http://www.w3.org/2000/svg">
<path d="M19.6394 2.66602H12.3594V8.47935H19.6394V2.66602Z" fill="#1DAA39"/>
<path d="M21.6406 2.66602V8.47935H29.1606C28.4806 4.81268 25.774 2.67935 21.6406 2.66602Z" fill="#1DAA39"/>
<path d="M2.66406 10.4805V21.5871C2.66406 26.4405 5.5574 29.3338 10.4107 29.3338H21.5841C26.4374 29.3338 29.3307 26.4405 29.3307 21.5871V10.4805H2.66406ZM19.2507 21.5738L16.4774 23.1738C15.8907 23.5071 15.3174 23.6805 14.7841 23.6805C14.3841 23.6805 14.0241 23.5871 13.6907 23.4005C12.9174 22.9605 12.4907 22.0538 12.4907 20.8805V17.6805C12.4907 16.5071 12.9174 15.6005 13.6907 15.1605C14.4641 14.7071 15.4507 14.7871 16.4774 15.3871L19.2507 16.9871C20.2774 17.5738 20.8374 18.4005 20.8374 19.2938C20.8374 20.1871 20.2641 20.9738 19.2507 21.5738Z" fill="#1DAA39"/>
<path d="M10.3637 2.66602C6.23042 2.67935 3.52375 4.81268 2.84375 8.47935H10.3637V2.66602Z" fill="#1DAA39"/>
</svg>
