<svg width="221" height="52" viewBox="0 0 221 52" fill="none" xmlns="http://www.w3.org/2000/svg">
<path fill-rule="evenodd" clip-rule="evenodd" d="M51.0242 40.9658C56.429 36.623 59.7717 30.625 59.7717 24C59.7717 10.7452 46.3913 0 29.8858 0C13.3803 0 0 10.7452 0 24C0 37.2548 13.3803 48 29.8858 48C35.5082 48 40.768 46.7532 45.2598 44.5851L52.6898 46.2163L51.0242 40.9658Z" fill="#1DAA39"/>
<path d="M11.6555 16.43L12.1695 15.6636L11.9248 15.2335L11.917 15.2199C11.5617 14.5955 11.3198 13.8714 11.2007 13.119C11.181 12.9966 11.165 12.8741 11.1525 12.7514C11.0726 11.9845 11.1194 11.2005 11.3022 10.4732C11.3643 10.2263 11.4703 9.93512 11.6026 9.63417C11.7917 9.16929 12.0341 8.72568 12.3264 8.3139C12.418 8.17972 12.5093 8.0579 12.5976 7.95377C12.6369 7.90746 12.6769 7.86162 12.7177 7.81626C13.2553 7.19765 13.9188 6.67338 14.693 6.28789C15.2076 6.03164 15.6045 5.87624 16.0471 5.78095C16.5175 5.66597 17.2212 5.61723 17.8757 5.63716C18.4142 5.64457 18.8512 5.70359 19.3031 5.83821C19.792 5.97699 20.268 6.18025 20.7209 6.44167C21.1051 6.63988 21.3259 6.78835 21.6405 7.0787C21.9874 7.36276 22.3133 7.68425 22.6124 8.0395L22.6489 8.08283L22.9471 8.3844L23.8162 8.16427C25.8039 7.66067 27.7142 7.43699 30.0182 7.43815C30.0341 7.43815 30.05 7.43817 30.0658 7.4382C30.0749 7.43818 30.0839 7.43817 30.093 7.43816L30.1135 7.43815C32.4174 7.43699 34.3278 7.66067 36.3155 8.16427L37.1845 8.3844L37.4828 8.08283L37.5193 8.0395C37.8184 7.68425 38.1443 7.36276 38.4911 7.0787C38.8058 6.78835 39.0265 6.63988 39.4108 6.44167C39.8637 6.18025 40.3396 5.97699 40.8286 5.83822C41.2805 5.70359 41.7175 5.64457 42.256 5.63716C42.9105 5.61723 43.6142 5.66597 44.0845 5.78095C44.5271 5.87624 44.924 6.03164 45.4387 6.28789C46.2128 6.67337 46.8763 7.19762 47.414 7.81622C47.4547 7.86159 47.4948 7.90744 47.5341 7.95377C47.6224 8.05792 47.7137 8.17976 47.8053 8.31396C48.0976 8.72572 48.34 9.16932 48.529 9.63417C48.6613 9.93512 48.7674 10.2263 48.8294 10.4732C49.0122 11.2003 49.059 11.984 48.9792 12.7507C48.9667 12.8738 48.9506 12.9969 48.9308 13.1197C48.8117 13.8719 48.5699 14.5957 48.2147 15.2199L48.2069 15.2335L47.9621 15.6636L48.4762 16.43C52.3749 22.2431 51.6565 29.4237 46.9098 34.8776C46.7184 35.0975 46.6084 35.2187 46.4064 35.429C45.7124 36.1513 45.3222 36.4875 44.5674 37.0956C44.1578 37.4255 43.8904 37.617 43.4925 37.907C42.7063 38.48 41.349 39.1764 41.349 39.1764C41.349 39.1764 40.9239 39.3603 40.5898 39.5241C39.186 40.2125 37.6216 40.7291 35.641 41.2412C34.7702 41.4663 34.2811 41.6015 33.3921 41.738C32.7045 41.8436 32.3142 41.8744 31.62 41.9195C30.4087 41.9982 29.1621 41.9683 28.5116 41.9195C27.9889 41.9043 27.4272 41.8436 26.7396 41.738C25.8506 41.6015 25.3614 41.4663 24.4906 41.2412C22.5101 40.7291 20.9457 40.2125 19.5419 39.5241C19.2077 39.3603 18.8631 39.2263 18.776 39.2263C18.6887 39.2263 17.1825 39.5095 15.4288 39.8555C13.6751 40.2015 12.2198 40.4641 12.1948 40.439C12.1699 40.414 12.5041 39.2764 12.9374 37.9112L13.7253 35.429L13.2219 34.8776C8.37924 29.5741 7.75678 22.2431 11.6555 16.43Z" fill="#202020"/>
<path d="M32.9273 9.48718C38.6299 10.1848 43.5851 12.8001 46.5726 16.6888C48.4801 19.1717 49.4295 21.8529 49.4295 24.7566C49.4295 29.3478 46.9304 33.6408 42.552 36.5708C39.3386 38.7211 35.6529 39.911 31.4592 40.1523C27.4074 40.3854 23.373 39.5624 19.7805 37.77L19.1661 37.4634L17.2983 37.8717C16.271 38.0962 15.4116 38.261 15.3886 38.2378C15.3656 38.2146 15.5333 37.6063 15.7616 36.8858C15.9897 36.1655 16.1731 35.5225 16.1691 35.457C16.1651 35.3915 15.9428 35.1421 15.6752 34.9027C13.202 32.6904 11.5494 29.754 11.0544 26.6917C10.9006 25.7398 10.9007 23.7732 11.0547 22.819C11.5116 19.9868 12.8185 17.5194 15.0705 15.237C16.1706 14.1221 17.1856 13.3105 18.4408 12.5418C22.6286 9.97722 27.8804 8.86984 32.9273 9.48718Z" fill="white"/>
<path fill-rule="evenodd" clip-rule="evenodd" d="M22.2907 18.0722C20.0777 18.5358 17.8273 20.5169 16.9586 22.7661C16.4024 24.2061 16.5388 26.075 17.3044 27.5078C17.3151 27.5279 17.3256 27.5475 17.3357 27.5665C17.3364 27.5678 17.337 27.569 17.3377 27.5702C17.3384 27.5716 17.3392 27.5729 17.3399 27.5743C17.5564 27.9801 17.6472 28.1502 17.7811 28.1969C17.8777 28.2306 17.9968 28.1999 18.2018 28.1471C18.2106 28.1448 18.2194 28.1426 18.2285 28.1402C18.235 28.1386 18.2417 28.1369 18.2484 28.1351C18.9122 27.9652 19.9052 27.8372 20.5561 27.8378C21.6374 27.8387 23.2315 28.1751 23.9679 28.5576L24.2115 28.6841L24.6086 28.2401C25.4606 27.2871 26.3154 25.5395 26.5861 24.1965C26.7668 23.3005 26.7516 21.946 26.5514 21.1064C26.0873 19.1602 24.979 18.0437 23.4528 17.9849C23.1065 17.9715 22.5836 18.0108 22.2907 18.0722ZM25.5488 22.6611C25.4867 21.5672 25.0482 20.7528 24.3618 20.4567C24.0363 20.3163 23.2648 20.3182 22.8123 20.4605C21.4422 20.8914 20.1559 22.3636 20.0236 23.6519C19.9032 24.825 20.5803 26.1113 21.5463 26.5444C22.0163 26.755 22.7487 26.7659 23.3288 26.5708C24.1893 26.2813 24.9957 25.2959 25.3762 24.0688C25.5593 23.4785 25.5838 23.2785 25.5488 22.6611Z" fill="#202020"/>
<path fill-rule="evenodd" clip-rule="evenodd" d="M35.9395 18.0838C33.6944 18.8086 32.739 22.1978 33.8819 25.3831C34.2848 26.5062 35.0257 27.7724 35.6178 28.3501L35.9325 28.657L36.4326 28.4539C37.5102 28.0163 38.2802 27.884 39.6974 27.8928C40.7384 27.8994 41.1428 27.9362 41.6633 28.0719L42.3186 28.2426L42.4962 28.0265C43.2949 27.0543 43.7096 24.9758 43.3916 23.5384C42.8736 21.1978 40.7411 18.9618 38.3048 18.2047C37.544 17.9683 36.4678 17.9133 35.9395 18.0838ZM39.0582 21.6012C38.5645 21.0758 38.0358 20.7263 37.4049 20.508C36.3914 20.1575 35.5019 20.3703 35.0614 21.0688C34.3661 22.1712 34.3898 23.5584 35.1283 24.9766C36.0689 26.7827 38.0997 27.2939 39.2828 26.0223C39.729 25.5427 39.9506 25.0637 40.068 24.3245C40.2176 23.3832 39.8818 22.4777 39.0582 21.6012Z" fill="#202020"/>
<path fill-rule="evenodd" clip-rule="evenodd" d="M28.948 28.2885C28.2309 28.4911 27.5627 29.0099 27.3747 29.5103C27.3268 29.6378 27.2875 29.8928 27.2875 30.0771C27.2875 30.3539 27.3378 30.4597 27.5778 30.6872C27.8867 30.9801 28.5635 31.2327 29.3149 31.3353L29.7449 31.394V32.9972V34.6005L29.3558 34.5437C28.4655 34.4137 27.1945 33.7623 26.3631 33.0098C25.9835 32.6662 25.9737 32.646 26.0556 32.3687C26.1408 32.0798 26.1073 31.8353 25.957 31.6463C25.8971 31.571 25.8152 31.671 25.6503 32.0217C25.4468 32.4543 24.8429 33.108 24.6467 33.108C24.6072 33.108 24.5975 33.145 24.6254 33.1903C24.692 33.2986 25.207 33.2961 25.4109 33.1864C25.5457 33.1139 25.6462 33.1646 26.0403 33.5034C27.4347 34.7024 28.631 35.1986 30.1135 35.1928C31.4548 35.1875 32.5942 34.7215 33.9436 33.6262C34.5359 33.1454 34.6209 33.1012 34.7981 33.1825C35.0384 33.2925 35.5336 33.301 35.5981 33.1963C35.6239 33.1543 35.5742 33.0972 35.4876 33.0696C35.2401 32.9906 34.6684 32.3182 34.4852 31.8908L34.3188 31.5021L34.1947 31.7386C34.0835 31.9506 34.0783 32.1739 34.1765 32.5249C34.2248 32.6974 32.9837 33.6736 32.2567 34.035C31.6896 34.3169 30.8176 34.5862 30.4617 34.5891C30.33 34.5903 30.3183 34.4594 30.3183 32.9844V31.3785L30.5026 31.3771C30.604 31.3763 30.9291 31.3241 31.225 31.261C32.6363 30.9602 33.1243 30.3596 32.7023 29.4432C32.4996 29.0028 32.1801 28.7164 31.5884 28.4443C31.1712 28.2525 30.968 28.2147 30.2368 28.193C29.6578 28.1758 29.2363 28.207 28.948 28.2885ZM28.9489 30.2315C29.5324 30.0379 29.9213 29.341 29.6059 29.0541C29.3594 28.8297 28.8539 28.7975 28.4614 28.9812C28.082 29.1586 27.9428 29.3551 27.9428 29.7132C27.9428 30.1448 28.4394 30.4006 28.9489 30.2315Z" fill="#202020"/>
<path fill-rule="evenodd" clip-rule="evenodd" d="M22.5663 21.8189C21.8279 22.1561 21.1441 23.0631 21.1441 23.7055C21.1441 24.4372 21.6384 25.2122 22.2026 25.3649C23.2782 25.6561 24.3107 24.6648 24.4028 23.2523C24.4683 22.2477 24.0453 21.6585 23.2612 21.6624C23.0654 21.6634 22.7527 21.7338 22.5663 21.8189ZM23.9243 23.2302C24.1645 22.9887 24.1433 22.6183 23.8771 22.4078C23.7584 22.314 23.6201 22.2377 23.5699 22.2384C23.3602 22.2412 23.0664 22.4617 22.9931 22.6714C22.8162 23.177 23.5432 23.6134 23.9243 23.2302Z" fill="#202020"/>
<path fill-rule="evenodd" clip-rule="evenodd" d="M35.8654 21.807C35.2816 22.1706 35.1319 23.2924 35.5498 24.1725C35.9063 24.9233 36.2885 25.265 36.9266 25.403C37.8184 25.5961 38.7203 24.5623 38.5569 23.5346C38.3586 22.2874 36.7508 21.2554 35.8654 21.807ZM36.2101 23.3901C36.6762 23.3901 36.931 22.7609 36.5997 22.4279C36.4036 22.2307 36.0956 22.2203 35.8644 22.4031C35.4452 22.7347 35.6748 23.3901 36.2101 23.3901Z" fill="#202020"/>
<path fill-rule="evenodd" clip-rule="evenodd" d="M16.9586 22.7661C17.8273 20.5169 20.0777 18.5358 22.2907 18.0722C22.5836 18.0108 23.1065 17.9715 23.4528 17.9849C24.979 18.0437 26.0873 19.1602 26.5514 21.1064C26.7516 21.946 26.7668 23.3005 26.5861 24.1965C26.3154 25.5395 25.4606 27.2871 24.6086 28.2401L24.2115 28.6841L23.9679 28.5576C23.2315 28.1751 21.6374 27.8387 20.5561 27.8378C19.9052 27.8372 18.9122 27.9652 18.2484 28.1351L18.2285 28.1402L18.2018 28.1471C17.9968 28.1999 17.8777 28.2306 17.7811 28.1969C17.6472 28.1502 17.5564 27.9801 17.3399 27.5743L17.3377 27.5702L17.3357 27.5665C17.3256 27.5475 17.3151 27.5279 17.3044 27.5078C16.5388 26.075 16.4024 24.2061 16.9586 22.7661ZM33.8819 25.3831C32.739 22.1978 33.6944 18.8086 35.9395 18.0838C36.4678 17.9133 37.544 17.9683 38.3048 18.2047C40.7411 18.9618 42.8736 21.1978 43.3916 23.5384C43.7096 24.9758 43.2949 27.0543 42.4962 28.0265L42.3186 28.2426L41.6633 28.0719C41.1428 27.9362 40.7384 27.8994 39.6974 27.8928C38.2802 27.884 37.5102 28.0163 36.4326 28.4539L35.9325 28.657L35.6178 28.3501C35.0257 27.7724 34.2848 26.5062 33.8819 25.3831ZM27.3747 29.5103C27.5627 29.0099 28.2309 28.4911 28.948 28.2885C29.2363 28.207 29.6578 28.1758 30.2368 28.193C30.968 28.2147 31.1712 28.2525 31.5884 28.4443C32.1801 28.7164 32.4996 29.0028 32.7023 29.4432C33.1243 30.3596 32.6363 30.9602 31.225 31.261C30.9291 31.3241 30.604 31.3763 30.5026 31.3771L30.3183 31.3785V32.9844C30.3183 34.4594 30.33 34.5903 30.4617 34.5891C30.8176 34.5862 31.6896 34.3169 32.2567 34.035C32.9837 33.6736 34.2248 32.6974 34.1765 32.5249C34.0783 32.1739 34.0835 31.9506 34.1947 31.7386L34.3188 31.5021L34.4852 31.8908C34.6684 32.3182 35.2401 32.9906 35.4876 33.0696C35.5742 33.0972 35.6239 33.1543 35.5981 33.1963C35.5336 33.301 35.0384 33.2925 34.7981 33.1825C34.6209 33.1012 34.5359 33.1454 33.9436 33.6262C32.5942 34.7215 31.4548 35.1875 30.1135 35.1928C28.631 35.1986 27.4347 34.7024 26.0403 33.5034C25.6462 33.1646 25.5457 33.1139 25.4109 33.1864C25.207 33.2961 24.692 33.2986 24.6254 33.1903C24.5975 33.145 24.6072 33.108 24.6467 33.108C24.8429 33.108 25.4468 32.4543 25.6503 32.0217C25.8152 31.671 25.8971 31.571 25.957 31.6463C26.1073 31.8353 26.1408 32.0798 26.0556 32.3687C25.9737 32.646 25.9835 32.6662 26.3631 33.0098C27.1945 33.7623 28.4655 34.4137 29.3558 34.5437L29.7449 34.6005V32.9972V31.394L29.3149 31.3353C28.5635 31.2327 27.8867 30.9801 27.5778 30.6872C27.3378 30.4597 27.2875 30.3539 27.2875 30.0771C27.2875 29.8928 27.3268 29.6378 27.3747 29.5103ZM39.0582 21.6012C38.5645 21.0758 38.0358 20.7263 37.4049 20.508C36.3914 20.1575 35.5019 20.3703 35.0614 21.0688C34.3661 22.1712 34.3898 23.5584 35.1283 24.9766C36.0689 26.7827 38.0997 27.2939 39.2828 26.0223C39.729 25.5427 39.9506 25.0637 40.068 24.3245C40.2176 23.3832 39.8818 22.4777 39.0582 21.6012ZM25.5488 22.6611C25.4867 21.5672 25.0482 20.7528 24.3618 20.4567C24.0363 20.3163 23.2648 20.3182 22.8123 20.4605C21.4422 20.8914 20.1559 22.3636 20.0236 23.6519C19.9032 24.825 20.5803 26.1113 21.5463 26.5444C22.0163 26.755 22.7487 26.7659 23.3288 26.5708C24.1893 26.2813 24.9957 25.2959 25.3762 24.0688C25.5593 23.4785 25.5838 23.2785 25.5488 22.6611ZM22.5663 21.8189C21.8279 22.1561 21.1441 23.0631 21.1441 23.7055C21.1441 24.4372 21.6384 25.2122 22.2026 25.3649C23.2782 25.6561 24.3107 24.6648 24.4028 23.2523C24.4683 22.2477 24.0453 21.6585 23.2612 21.6624C23.0654 21.6634 22.7527 21.7338 22.5663 21.8189ZM23.8771 22.4078C24.1433 22.6183 24.1645 22.9887 23.9243 23.2302C23.5432 23.6134 22.8162 23.177 22.9931 22.6714C23.0664 22.4617 23.3602 22.2412 23.5699 22.2384C23.6201 22.2377 23.7584 22.314 23.8771 22.4078ZM28.9489 30.2315C29.5324 30.0379 29.9213 29.341 29.6059 29.0541C29.3594 28.8297 28.8539 28.7975 28.4614 28.9812C28.082 29.1586 27.9428 29.3551 27.9428 29.7132C27.9428 30.1448 28.4394 30.4006 28.9489 30.2315Z" fill="#202020"/>
<path fill-rule="evenodd" clip-rule="evenodd" d="M51.0242 40.9658C56.429 36.623 59.7717 30.625 59.7717 24C59.7717 10.7452 46.3913 0 29.8858 0C13.3803 0 0 10.7452 0 24C0 37.2548 13.3803 48 29.8858 48C35.5082 48 40.768 46.7532 45.2598 44.5851L52.6898 46.2163L51.0242 40.9658Z" fill="#1DAA39"/>
<path d="M11.6555 16.43L12.1695 15.6636L11.9248 15.2335L11.917 15.2199C11.5617 14.5955 11.3198 13.8714 11.2007 13.119C11.181 12.9966 11.165 12.8741 11.1525 12.7514C11.0726 11.9845 11.1194 11.2005 11.3022 10.4732C11.3643 10.2263 11.4703 9.93512 11.6026 9.63417C11.7917 9.16929 12.0341 8.72568 12.3264 8.3139C12.418 8.17972 12.5093 8.0579 12.5976 7.95377C12.6369 7.90746 12.6769 7.86162 12.7177 7.81626C13.2553 7.19765 13.9188 6.67338 14.693 6.28789C15.2076 6.03164 15.6045 5.87624 16.0471 5.78095C16.5175 5.66597 17.2212 5.61723 17.8757 5.63716C18.4142 5.64457 18.8512 5.70359 19.3031 5.83821C19.792 5.97699 20.268 6.18025 20.7209 6.44167C21.1051 6.63988 21.3259 6.78835 21.6405 7.0787C21.9874 7.36276 22.3133 7.68425 22.6124 8.0395L22.6489 8.08283L22.9471 8.3844L23.8162 8.16427C25.8039 7.66067 27.7142 7.43699 30.0182 7.43815C30.0341 7.43815 30.05 7.43817 30.0658 7.4382C30.0749 7.43818 30.0839 7.43817 30.093 7.43816L30.1135 7.43815C32.4174 7.43699 34.3278 7.66067 36.3155 8.16427L37.1845 8.3844L37.4828 8.08283L37.5193 8.0395C37.8184 7.68425 38.1443 7.36276 38.4911 7.0787C38.8058 6.78835 39.0265 6.63988 39.4108 6.44167C39.8637 6.18025 40.3396 5.97699 40.8286 5.83822C41.2805 5.70359 41.7175 5.64457 42.256 5.63716C42.9105 5.61723 43.6142 5.66597 44.0845 5.78095C44.5271 5.87624 44.924 6.03164 45.4387 6.28789C46.2128 6.67337 46.8763 7.19762 47.414 7.81622C47.4547 7.86159 47.4948 7.90744 47.5341 7.95377C47.6224 8.05792 47.7137 8.17976 47.8053 8.31396C48.0976 8.72572 48.34 9.16932 48.529 9.63417C48.6613 9.93512 48.7674 10.2263 48.8294 10.4732C49.0122 11.2003 49.059 11.984 48.9792 12.7507C48.9667 12.8738 48.9506 12.9969 48.9308 13.1197C48.8117 13.8719 48.5699 14.5957 48.2147 15.2199L48.2069 15.2335L47.9621 15.6636L48.4762 16.43C52.3749 22.2431 51.6565 29.4237 46.9098 34.8776C46.7184 35.0975 46.6084 35.2187 46.4064 35.429C45.7124 36.1513 45.3222 36.4875 44.5674 37.0956C44.1578 37.4255 43.8904 37.617 43.4925 37.907C42.7063 38.48 41.349 39.1764 41.349 39.1764C41.349 39.1764 40.9239 39.3603 40.5898 39.5241C39.186 40.2125 37.6216 40.7291 35.641 41.2412C34.7702 41.4663 34.2811 41.6015 33.3921 41.738C32.7045 41.8436 32.3142 41.8744 31.62 41.9195C30.4087 41.9982 29.1621 41.9683 28.5116 41.9195C27.9889 41.9043 27.4272 41.8436 26.7396 41.738C25.8506 41.6015 25.3614 41.4663 24.4906 41.2412C22.5101 40.7291 20.9457 40.2125 19.5419 39.5241C19.2077 39.3603 18.8631 39.2263 18.776 39.2263C18.6887 39.2263 17.1825 39.5095 15.4288 39.8555C13.6751 40.2015 12.2198 40.4641 12.1948 40.439C12.1699 40.414 12.5041 39.2764 12.9374 37.9112L13.7253 35.429L13.2219 34.8776C8.37924 29.5741 7.75678 22.2431 11.6555 16.43Z" fill="#202020"/>
<path d="M32.9273 9.48718C38.6299 10.1848 43.5851 12.8001 46.5726 16.6888C48.4801 19.1717 49.4295 21.8529 49.4295 24.7566C49.4295 29.3478 46.9304 33.6408 42.552 36.5708C39.3386 38.7211 35.6529 39.911 31.4592 40.1523C27.4074 40.3854 23.373 39.5624 19.7805 37.77L19.1661 37.4634L17.2983 37.8717C16.271 38.0962 15.4116 38.261 15.3886 38.2378C15.3656 38.2146 15.5333 37.6063 15.7616 36.8858C15.9897 36.1655 16.1731 35.5225 16.1691 35.457C16.1651 35.3915 15.9428 35.1421 15.6752 34.9027C13.202 32.6904 11.5494 29.754 11.0544 26.6917C10.9006 25.7398 10.9007 23.7732 11.0547 22.819C11.5116 19.9868 12.8185 17.5194 15.0705 15.237C16.1706 14.1221 17.1856 13.3105 18.4408 12.5418C22.6286 9.97722 27.8804 8.86984 32.9273 9.48718Z" fill="white"/>
<path fill-rule="evenodd" clip-rule="evenodd" d="M22.2907 18.0722C20.0777 18.5358 17.8273 20.5169 16.9586 22.7661C16.4024 24.2061 16.5388 26.075 17.3044 27.5078C17.3151 27.5279 17.3256 27.5475 17.3357 27.5665C17.3364 27.5678 17.337 27.569 17.3377 27.5702C17.3384 27.5716 17.3392 27.5729 17.3399 27.5743C17.5564 27.9801 17.6472 28.1502 17.7811 28.1969C17.8777 28.2306 17.9968 28.1999 18.2018 28.1471C18.2106 28.1448 18.2194 28.1426 18.2285 28.1402C18.235 28.1386 18.2417 28.1369 18.2484 28.1351C18.9122 27.9652 19.9052 27.8372 20.5561 27.8378C21.6374 27.8387 23.2315 28.1751 23.9679 28.5576L24.2115 28.6841L24.6086 28.2401C25.4606 27.2871 26.3154 25.5395 26.5861 24.1965C26.7668 23.3005 26.7516 21.946 26.5514 21.1064C26.0873 19.1602 24.979 18.0437 23.4528 17.9849C23.1065 17.9715 22.5836 18.0108 22.2907 18.0722ZM25.5488 22.6611C25.4867 21.5672 25.0482 20.7528 24.3618 20.4567C24.0363 20.3163 23.2648 20.3182 22.8123 20.4605C21.4422 20.8914 20.1559 22.3636 20.0236 23.6519C19.9032 24.825 20.5803 26.1113 21.5463 26.5444C22.0163 26.755 22.7487 26.7659 23.3288 26.5708C24.1893 26.2813 24.9957 25.2959 25.3762 24.0688C25.5593 23.4785 25.5838 23.2785 25.5488 22.6611Z" fill="#202020"/>
<path fill-rule="evenodd" clip-rule="evenodd" d="M35.9395 18.0838C33.6944 18.8086 32.739 22.1978 33.8819 25.3831C34.2848 26.5062 35.0257 27.7724 35.6178 28.3501L35.9325 28.657L36.4326 28.4539C37.5102 28.0163 38.2802 27.884 39.6974 27.8928C40.7384 27.8994 41.1428 27.9362 41.6633 28.0719L42.3186 28.2426L42.4962 28.0265C43.2949 27.0543 43.7096 24.9758 43.3916 23.5384C42.8736 21.1978 40.7411 18.9618 38.3048 18.2047C37.544 17.9683 36.4678 17.9133 35.9395 18.0838ZM39.0582 21.6012C38.5645 21.0758 38.0358 20.7263 37.4049 20.508C36.3914 20.1575 35.5019 20.3703 35.0614 21.0688C34.3661 22.1712 34.3898 23.5584 35.1283 24.9766C36.0689 26.7827 38.0997 27.2939 39.2828 26.0223C39.729 25.5427 39.9506 25.0637 40.068 24.3245C40.2176 23.3832 39.8818 22.4777 39.0582 21.6012Z" fill="#202020"/>
<path fill-rule="evenodd" clip-rule="evenodd" d="M28.948 28.2885C28.2309 28.4911 27.5627 29.0099 27.3747 29.5103C27.3268 29.6378 27.2875 29.8928 27.2875 30.0771C27.2875 30.3539 27.3378 30.4597 27.5778 30.6872C27.8867 30.9801 28.5635 31.2327 29.3149 31.3353L29.7449 31.394V32.9972V34.6005L29.3558 34.5437C28.4655 34.4137 27.1945 33.7623 26.3631 33.0098C25.9835 32.6662 25.9737 32.646 26.0556 32.3687C26.1408 32.0798 26.1073 31.8353 25.957 31.6463C25.8971 31.571 25.8152 31.671 25.6503 32.0217C25.4468 32.4543 24.8429 33.108 24.6467 33.108C24.6072 33.108 24.5975 33.145 24.6254 33.1903C24.692 33.2986 25.207 33.2961 25.4109 33.1864C25.5457 33.1139 25.6462 33.1646 26.0403 33.5034C27.4347 34.7024 28.631 35.1986 30.1135 35.1928C31.4548 35.1875 32.5942 34.7215 33.9436 33.6262C34.5359 33.1454 34.6209 33.1012 34.7981 33.1825C35.0384 33.2925 35.5336 33.301 35.5981 33.1963C35.6239 33.1543 35.5742 33.0972 35.4876 33.0696C35.2401 32.9906 34.6684 32.3182 34.4852 31.8908L34.3188 31.5021L34.1947 31.7386C34.0835 31.9506 34.0783 32.1739 34.1765 32.5249C34.2248 32.6974 32.9837 33.6736 32.2567 34.035C31.6896 34.3169 30.8176 34.5862 30.4617 34.5891C30.33 34.5903 30.3183 34.4594 30.3183 32.9844V31.3785L30.5026 31.3771C30.604 31.3763 30.9291 31.3241 31.225 31.261C32.6363 30.9602 33.1243 30.3596 32.7023 29.4432C32.4996 29.0028 32.1801 28.7164 31.5884 28.4443C31.1712 28.2525 30.968 28.2147 30.2368 28.193C29.6578 28.1758 29.2363 28.207 28.948 28.2885ZM28.9489 30.2315C29.5324 30.0379 29.9213 29.341 29.6059 29.0541C29.3594 28.8297 28.8539 28.7975 28.4614 28.9812C28.082 29.1586 27.9428 29.3551 27.9428 29.7132C27.9428 30.1448 28.4394 30.4006 28.9489 30.2315Z" fill="#202020"/>
<path fill-rule="evenodd" clip-rule="evenodd" d="M22.5663 21.8189C21.8279 22.1561 21.1441 23.0631 21.1441 23.7055C21.1441 24.4372 21.6384 25.2122 22.2026 25.3649C23.2782 25.6561 24.3107 24.6648 24.4028 23.2523C24.4683 22.2477 24.0453 21.6585 23.2612 21.6624C23.0654 21.6634 22.7527 21.7338 22.5663 21.8189ZM23.9243 23.2302C24.1645 22.9887 24.1433 22.6183 23.8771 22.4078C23.7584 22.314 23.6201 22.2377 23.5699 22.2384C23.3602 22.2412 23.0664 22.4617 22.9931 22.6714C22.8162 23.177 23.5432 23.6134 23.9243 23.2302Z" fill="#202020"/>
<path fill-rule="evenodd" clip-rule="evenodd" d="M35.8654 21.807C35.2816 22.1706 35.1319 23.2924 35.5498 24.1725C35.9063 24.9233 36.2885 25.265 36.9266 25.403C37.8184 25.5961 38.7203 24.5623 38.5569 23.5346C38.3586 22.2874 36.7508 21.2554 35.8654 21.807ZM36.2101 23.3901C36.6762 23.3901 36.931 22.7609 36.5997 22.4279C36.4036 22.2307 36.0956 22.2203 35.8644 22.4031C35.4452 22.7347 35.6748 23.3901 36.2101 23.3901Z" fill="#202020"/>
<path fill-rule="evenodd" clip-rule="evenodd" d="M16.9586 22.7661C17.8273 20.5169 20.0777 18.5358 22.2907 18.0722C22.5836 18.0108 23.1065 17.9715 23.4528 17.9849C24.979 18.0437 26.0873 19.1602 26.5514 21.1064C26.7516 21.946 26.7668 23.3005 26.5861 24.1965C26.3154 25.5395 25.4606 27.2871 24.6086 28.2401L24.2115 28.6841L23.9679 28.5576C23.2315 28.1751 21.6374 27.8387 20.5561 27.8378C19.9052 27.8372 18.9122 27.9652 18.2484 28.1351L18.2285 28.1402L18.2018 28.1471C17.9968 28.1999 17.8777 28.2306 17.7811 28.1969C17.6472 28.1502 17.5564 27.9801 17.3399 27.5743L17.3377 27.5702L17.3357 27.5665C17.3256 27.5475 17.3151 27.5279 17.3044 27.5078C16.5388 26.075 16.4024 24.2061 16.9586 22.7661ZM33.8819 25.3831C32.739 22.1978 33.6944 18.8086 35.9395 18.0838C36.4678 17.9133 37.544 17.9683 38.3048 18.2047C40.7411 18.9618 42.8736 21.1978 43.3916 23.5384C43.7096 24.9758 43.2949 27.0543 42.4962 28.0265L42.3186 28.2426L41.6633 28.0719C41.1428 27.9362 40.7384 27.8994 39.6974 27.8928C38.2802 27.884 37.5102 28.0163 36.4326 28.4539L35.9325 28.657L35.6178 28.3501C35.0257 27.7724 34.2848 26.5062 33.8819 25.3831ZM27.3747 29.5103C27.5627 29.0099 28.2309 28.4911 28.948 28.2885C29.2363 28.207 29.6578 28.1758 30.2368 28.193C30.968 28.2147 31.1712 28.2525 31.5884 28.4443C32.1801 28.7164 32.4996 29.0028 32.7023 29.4432C33.1243 30.3596 32.6363 30.9602 31.225 31.261C30.9291 31.3241 30.604 31.3763 30.5026 31.3771L30.3183 31.3785V32.9844C30.3183 34.4594 30.33 34.5903 30.4617 34.5891C30.8176 34.5862 31.6896 34.3169 32.2567 34.035C32.9837 33.6736 34.2248 32.6974 34.1765 32.5249C34.0783 32.1739 34.0835 31.9506 34.1947 31.7386L34.3188 31.5021L34.4852 31.8908C34.6684 32.3182 35.2401 32.9906 35.4876 33.0696C35.5742 33.0972 35.6239 33.1543 35.5981 33.1963C35.5336 33.301 35.0384 33.2925 34.7981 33.1825C34.6209 33.1012 34.5359 33.1454 33.9436 33.6262C32.5942 34.7215 31.4548 35.1875 30.1135 35.1928C28.631 35.1986 27.4347 34.7024 26.0403 33.5034C25.6462 33.1646 25.5457 33.1139 25.4109 33.1864C25.207 33.2961 24.692 33.2986 24.6254 33.1903C24.5975 33.145 24.6072 33.108 24.6467 33.108C24.8429 33.108 25.4468 32.4543 25.6503 32.0217C25.8152 31.671 25.8971 31.571 25.957 31.6463C26.1073 31.8353 26.1408 32.0798 26.0556 32.3687C25.9737 32.646 25.9835 32.6662 26.3631 33.0098C27.1945 33.7623 28.4655 34.4137 29.3558 34.5437L29.7449 34.6005V32.9972V31.394L29.3149 31.3353C28.5635 31.2327 27.8867 30.9801 27.5778 30.6872C27.3378 30.4597 27.2875 30.3539 27.2875 30.0771C27.2875 29.8928 27.3268 29.6378 27.3747 29.5103ZM39.0582 21.6012C38.5645 21.0758 38.0358 20.7263 37.4049 20.508C36.3914 20.1575 35.5019 20.3703 35.0614 21.0688C34.3661 22.1712 34.3898 23.5584 35.1283 24.9766C36.0689 26.7827 38.0997 27.2939 39.2828 26.0223C39.729 25.5427 39.9506 25.0637 40.068 24.3245C40.2176 23.3832 39.8818 22.4777 39.0582 21.6012ZM25.5488 22.6611C25.4867 21.5672 25.0482 20.7528 24.3618 20.4567C24.0363 20.3163 23.2648 20.3182 22.8123 20.4605C21.4422 20.8914 20.1559 22.3636 20.0236 23.6519C19.9032 24.825 20.5803 26.1113 21.5463 26.5444C22.0163 26.755 22.7487 26.7659 23.3288 26.5708C24.1893 26.2813 24.9957 25.2959 25.3762 24.0688C25.5593 23.4785 25.5838 23.2785 25.5488 22.6611ZM22.5663 21.8189C21.8279 22.1561 21.1441 23.0631 21.1441 23.7055C21.1441 24.4372 21.6384 25.2122 22.2026 25.3649C23.2782 25.6561 24.3107 24.6648 24.4028 23.2523C24.4683 22.2477 24.0453 21.6585 23.2612 21.6624C23.0654 21.6634 22.7527 21.7338 22.5663 21.8189ZM23.8771 22.4078C24.1433 22.6183 24.1645 22.9887 23.9243 23.2302C23.5432 23.6134 22.8162 23.177 22.9931 22.6714C23.0664 22.4617 23.3602 22.2412 23.5699 22.2384C23.6201 22.2377 23.7584 22.314 23.8771 22.4078ZM28.9489 30.2315C29.5324 30.0379 29.9213 29.341 29.6059 29.0541C29.3594 28.8297 28.8539 28.7975 28.4614 28.9812C28.082 29.1586 27.9428 29.3551 27.9428 29.7132C27.9428 30.1448 28.4394 30.4006 28.9489 30.2315Z" fill="#202020"/>
<rect x="72" y="37" width="87" height="15" rx="7.5" fill="#1DAA39"/>
<path d="M80.7656 41.9961V43.0898H77.2188V41.9961H80.7656ZM78.1055 47.9961V41.4297C78.1055 41.026 78.1888 40.6901 78.3555 40.4219C78.5247 40.1536 78.7513 39.9531 79.0352 39.8203C79.319 39.6875 79.6341 39.6211 79.9805 39.6211C80.2253 39.6211 80.4427 39.6406 80.6328 39.6797C80.8229 39.7188 80.9635 39.7539 81.0547 39.7852L80.7734 40.8789C80.7135 40.8607 80.638 40.8424 80.5469 40.8242C80.4557 40.8034 80.3542 40.793 80.2422 40.793C79.9792 40.793 79.793 40.8568 79.6836 40.9844C79.5768 41.1094 79.5234 41.2891 79.5234 41.5234V47.9961H78.1055Z" fill="white"/>
<path d="M84.2646 48.1133C83.6787 48.1133 83.1709 47.9844 82.7412 47.7266C82.3115 47.4688 81.9782 47.1081 81.7412 46.6445C81.5068 46.181 81.3896 45.6393 81.3896 45.0195C81.3896 44.3997 81.5068 43.8568 81.7412 43.3906C81.9782 42.9245 82.3115 42.5625 82.7412 42.3047C83.1709 42.0469 83.6787 41.918 84.2646 41.918C84.8506 41.918 85.3584 42.0469 85.7881 42.3047C86.2178 42.5625 86.5498 42.9245 86.7842 43.3906C87.0212 43.8568 87.1396 44.3997 87.1396 45.0195C87.1396 45.6393 87.0212 46.181 86.7842 46.6445C86.5498 47.1081 86.2178 47.4688 85.7881 47.7266C85.3584 47.9844 84.8506 48.1133 84.2646 48.1133ZM84.2725 46.9805C84.5902 46.9805 84.8558 46.8932 85.0693 46.7188C85.2829 46.5417 85.4417 46.3047 85.5459 46.0078C85.6527 45.7109 85.7061 45.3802 85.7061 45.0156C85.7061 44.6484 85.6527 44.3164 85.5459 44.0195C85.4417 43.7201 85.2829 43.4818 85.0693 43.3047C84.8558 43.1276 84.5902 43.0391 84.2725 43.0391C83.9469 43.0391 83.6761 43.1276 83.46 43.3047C83.2464 43.4818 83.0863 43.7201 82.9795 44.0195C82.8753 44.3164 82.8232 44.6484 82.8232 45.0156C82.8232 45.3802 82.8753 45.7109 82.9795 46.0078C83.0863 46.3047 83.2464 46.5417 83.46 46.7188C83.6761 46.8932 83.9469 46.9805 84.2725 46.9805Z" fill="white"/>
<path d="M88.3398 47.9961V41.9961H89.7109V42.9961H89.7734C89.8828 42.6497 90.0703 42.3828 90.3359 42.1953C90.6042 42.0052 90.9102 41.9102 91.2539 41.9102C91.332 41.9102 91.4193 41.9141 91.5156 41.9219C91.6146 41.9271 91.6966 41.9362 91.7617 41.9492V43.25C91.7018 43.2292 91.6068 43.2109 91.4766 43.1953C91.349 43.1771 91.2253 43.168 91.1055 43.168C90.8477 43.168 90.6159 43.224 90.4102 43.3359C90.207 43.4453 90.0469 43.5977 89.9297 43.793C89.8125 43.9883 89.7539 44.2135 89.7539 44.4688V47.9961H88.3398Z" fill="white"/>
<path d="M98.0469 48.1133C97.4479 48.1133 96.9336 47.9818 96.5039 47.7188C96.0768 47.4557 95.7474 47.0924 95.5156 46.6289C95.2865 46.1628 95.1719 45.6263 95.1719 45.0195C95.1719 44.4102 95.2891 43.8724 95.5234 43.4063C95.7578 42.9375 96.0885 42.5729 96.5156 42.3125C96.9453 42.0495 97.4531 41.918 98.0391 41.918C98.526 41.918 98.957 42.0078 99.332 42.1875C99.7096 42.3646 100.01 42.6159 100.234 42.9414C100.458 43.2643 100.586 43.6419 100.617 44.0742H99.2656C99.2109 43.7852 99.0807 43.5443 98.875 43.3516C98.6719 43.1563 98.3997 43.0586 98.0586 43.0586C97.7695 43.0586 97.5156 43.1367 97.2969 43.293C97.0781 43.4466 96.9076 43.668 96.7852 43.957C96.6654 44.2461 96.6055 44.5924 96.6055 44.9961C96.6055 45.4049 96.6654 45.7565 96.7852 46.0508C96.9049 46.3424 97.0729 46.5677 97.2891 46.7266C97.5078 46.8828 97.7643 46.9609 98.0586 46.9609C98.2669 46.9609 98.4531 46.9219 98.6172 46.8438C98.7839 46.763 98.9232 46.6471 99.0352 46.4961C99.1471 46.3451 99.224 46.1615 99.2656 45.9453H100.617C100.583 46.3698 100.458 46.7461 100.242 47.0742C100.026 47.3997 99.7318 47.6549 99.3594 47.8398C98.987 48.0221 98.5495 48.1133 98.0469 48.1133Z" fill="white"/>
<path d="M103.505 48.1172C103.125 48.1172 102.782 48.0495 102.478 47.9141C102.175 47.776 101.936 47.5729 101.759 47.3047C101.584 47.0365 101.497 46.7057 101.497 46.3125C101.497 45.974 101.56 45.694 101.685 45.4727C101.81 45.2513 101.98 45.0742 102.196 44.9414C102.412 44.8086 102.656 44.7083 102.927 44.6406C103.2 44.5703 103.483 44.5195 103.774 44.4883C104.126 44.4518 104.411 44.4193 104.63 44.3906C104.849 44.3594 105.007 44.3125 105.106 44.25C105.208 44.1849 105.259 44.0846 105.259 43.9492V43.9258C105.259 43.6315 105.172 43.4036 104.997 43.2422C104.823 43.0807 104.571 43 104.243 43C103.897 43 103.622 43.0755 103.419 43.2266C103.218 43.3776 103.083 43.556 103.013 43.7617L101.692 43.5742C101.797 43.2096 101.968 42.9049 102.208 42.6602C102.448 42.4128 102.741 42.2279 103.087 42.1055C103.433 41.9805 103.816 41.918 104.235 41.918C104.524 41.918 104.812 41.9518 105.099 42.0195C105.385 42.0872 105.647 42.1992 105.884 42.3555C106.121 42.5091 106.311 42.7188 106.454 42.9844C106.6 43.25 106.673 43.582 106.673 43.9805V47.9961H105.313V47.1719H105.267C105.181 47.3385 105.06 47.4948 104.903 47.6406C104.75 47.7839 104.556 47.8997 104.321 47.9883C104.09 48.0742 103.817 48.1172 103.505 48.1172ZM103.872 47.0781C104.156 47.0781 104.402 47.0221 104.61 46.9102C104.819 46.7956 104.979 46.6445 105.091 46.457C105.205 46.2695 105.263 46.0651 105.263 45.8438V45.1367C105.218 45.1732 105.143 45.207 105.036 45.2383C104.932 45.2695 104.815 45.2969 104.685 45.3203C104.554 45.3438 104.425 45.3646 104.298 45.3828C104.17 45.401 104.06 45.4167 103.966 45.4297C103.755 45.4583 103.566 45.5052 103.399 45.5703C103.233 45.6354 103.101 45.7266 103.005 45.8438C102.909 45.9583 102.86 46.1068 102.86 46.2891C102.86 46.5495 102.955 46.7461 103.146 46.8789C103.336 47.0117 103.578 47.0781 103.872 47.0781Z" fill="white"/>
<path d="M109.509 44.4805V47.9961H108.095V41.9961H109.446V43.0156H109.517C109.655 42.6797 109.875 42.4128 110.177 42.2148C110.481 42.0169 110.858 41.918 111.306 41.918C111.72 41.918 112.08 42.0065 112.388 42.1836C112.698 42.3607 112.937 42.6172 113.106 42.9531C113.278 43.2891 113.363 43.6966 113.36 44.1758V47.9961H111.946V44.3945C111.946 43.9935 111.842 43.6797 111.634 43.4531C111.428 43.2266 111.143 43.1133 110.778 43.1133C110.531 43.1133 110.311 43.168 110.118 43.2773C109.928 43.3841 109.778 43.5391 109.669 43.7422C109.562 43.9453 109.509 44.1914 109.509 44.4805Z" fill="white"/>
<path d="M117.024 48.1016C116.553 48.1016 116.131 47.9805 115.759 47.7383C115.386 47.4961 115.092 47.1445 114.876 46.6836C114.66 46.2227 114.552 45.6628 114.552 45.0039C114.552 44.3372 114.661 43.7747 114.88 43.3164C115.101 42.8555 115.399 42.5078 115.774 42.2734C116.149 42.0365 116.567 41.918 117.028 41.918C117.38 41.918 117.669 41.9779 117.896 42.0977C118.122 42.2148 118.302 42.3568 118.435 42.5234C118.567 42.6875 118.67 42.8424 118.743 42.9883H118.802V39.9961H120.22V47.9961H118.829V47.0508H118.743C118.67 47.1966 118.565 47.3516 118.427 47.5156C118.289 47.6771 118.106 47.8151 117.88 47.9297C117.653 48.0443 117.368 48.1016 117.024 48.1016ZM117.419 46.9414C117.718 46.9414 117.974 46.8607 118.185 46.6992C118.396 46.5352 118.556 46.3073 118.665 46.0156C118.774 45.724 118.829 45.3841 118.829 44.9961C118.829 44.6081 118.774 44.2708 118.665 43.9844C118.558 43.6979 118.399 43.4753 118.188 43.3164C117.98 43.1576 117.724 43.0781 117.419 43.0781C117.104 43.0781 116.841 43.1602 116.63 43.3242C116.419 43.4883 116.26 43.7148 116.153 44.0039C116.047 44.293 115.993 44.6237 115.993 44.9961C115.993 45.3711 116.047 45.7057 116.153 46C116.263 46.2917 116.423 46.5221 116.634 46.6914C116.847 46.8581 117.109 46.9414 117.419 46.9414Z" fill="white"/>
<path d="M121.727 47.9961V41.9961H123.141V47.9961H121.727ZM122.438 41.1445C122.214 41.1445 122.021 41.0703 121.859 40.9219C121.698 40.7708 121.617 40.5898 121.617 40.3789C121.617 40.1654 121.698 39.9844 121.859 39.8359C122.021 39.6849 122.214 39.6094 122.438 39.6094C122.664 39.6094 122.857 39.6849 123.016 39.8359C123.177 39.9844 123.258 40.1654 123.258 40.3789C123.258 40.5898 123.177 40.7708 123.016 40.9219C122.857 41.0703 122.664 41.1445 122.438 41.1445Z" fill="white"/>
<path d="M126.821 48.1016C126.35 48.1016 125.928 47.9805 125.556 47.7383C125.183 47.4961 124.889 47.1445 124.673 46.6836C124.457 46.2227 124.349 45.6628 124.349 45.0039C124.349 44.3372 124.458 43.7747 124.677 43.3164C124.898 42.8555 125.196 42.5078 125.571 42.2734C125.946 42.0365 126.364 41.918 126.825 41.918C127.177 41.918 127.466 41.9779 127.692 42.0977C127.919 42.2148 128.099 42.3568 128.231 42.5234C128.364 42.6875 128.467 42.8424 128.54 42.9883H128.599V39.9961H130.017V47.9961H128.626V47.0508H128.54C128.467 47.1966 128.362 47.3516 128.224 47.5156C128.086 47.6771 127.903 47.8151 127.677 47.9297C127.45 48.0443 127.165 48.1016 126.821 48.1016ZM127.216 46.9414C127.515 46.9414 127.771 46.8607 127.981 46.6992C128.192 46.5352 128.353 46.3073 128.462 46.0156C128.571 45.724 128.626 45.3841 128.626 44.9961C128.626 44.6081 128.571 44.2708 128.462 43.9844C128.355 43.6979 128.196 43.4753 127.985 43.3164C127.777 43.1576 127.521 43.0781 127.216 43.0781C126.901 43.0781 126.638 43.1602 126.427 43.3242C126.216 43.4883 126.057 43.7148 125.95 44.0039C125.843 44.293 125.79 44.6237 125.79 44.9961C125.79 45.3711 125.843 45.7057 125.95 46C126.06 46.2917 126.22 46.5221 126.431 46.6914C126.644 46.8581 126.906 46.9414 127.216 46.9414Z" fill="white"/>
<path d="M133.25 48.1172C132.87 48.1172 132.527 48.0495 132.223 47.9141C131.921 47.776 131.681 47.5729 131.504 47.3047C131.329 47.0365 131.242 46.7057 131.242 46.3125C131.242 45.974 131.305 45.694 131.43 45.4727C131.555 45.2513 131.725 45.0742 131.941 44.9414C132.158 44.8086 132.401 44.7083 132.672 44.6406C132.945 44.5703 133.228 44.5195 133.52 44.4883C133.871 44.4518 134.156 44.4193 134.375 44.3906C134.594 44.3594 134.753 44.3125 134.852 44.25C134.953 44.1849 135.004 44.0846 135.004 43.9492V43.9258C135.004 43.6315 134.917 43.4036 134.742 43.2422C134.568 43.0807 134.316 43 133.988 43C133.642 43 133.367 43.0755 133.164 43.2266C132.964 43.3776 132.828 43.556 132.758 43.7617L131.438 43.5742C131.542 43.2096 131.714 42.9049 131.953 42.6602C132.193 42.4128 132.486 42.2279 132.832 42.1055C133.178 41.9805 133.561 41.918 133.98 41.918C134.27 41.918 134.557 41.9518 134.844 42.0195C135.13 42.0872 135.392 42.1992 135.629 42.3555C135.866 42.5091 136.056 42.7188 136.199 42.9844C136.345 43.25 136.418 43.582 136.418 43.9805V47.9961H135.059V47.1719H135.012C134.926 47.3385 134.805 47.4948 134.648 47.6406C134.495 47.7839 134.301 47.8997 134.066 47.9883C133.835 48.0742 133.562 48.1172 133.25 48.1172ZM133.617 47.0781C133.901 47.0781 134.147 47.0221 134.355 46.9102C134.564 46.7956 134.724 46.6445 134.836 46.457C134.951 46.2695 135.008 46.0651 135.008 45.8438V45.1367C134.964 45.1732 134.888 45.207 134.781 45.2383C134.677 45.2695 134.56 45.2969 134.43 45.3203C134.299 45.3438 134.171 45.3646 134.043 45.3828C133.915 45.401 133.805 45.4167 133.711 45.4297C133.5 45.4583 133.311 45.5052 133.145 45.5703C132.978 45.6354 132.846 45.7266 132.75 45.8438C132.654 45.9583 132.605 46.1068 132.605 46.2891C132.605 46.5495 132.701 46.7461 132.891 46.8789C133.081 47.0117 133.323 47.0781 133.617 47.0781Z" fill="white"/>
<path d="M140.836 41.9961V43.0898H137.387V41.9961H140.836ZM138.238 40.5586H139.652V46.1914C139.652 46.3815 139.681 46.5273 139.738 46.6289C139.798 46.7279 139.876 46.7956 139.973 46.832C140.069 46.8685 140.176 46.8867 140.293 46.8867C140.382 46.8867 140.462 46.8802 140.535 46.8672C140.611 46.8542 140.668 46.8424 140.707 46.832L140.945 47.9375C140.87 47.9635 140.762 47.9922 140.621 48.0234C140.483 48.0547 140.314 48.0729 140.113 48.0781C139.759 48.0885 139.44 48.0352 139.156 47.918C138.872 47.7982 138.647 47.6133 138.48 47.3633C138.316 47.1133 138.236 46.8008 138.238 46.4258V40.5586Z" fill="white"/>
<path d="M144.61 48.1133C144.009 48.1133 143.489 47.9883 143.052 47.7383C142.617 47.4857 142.282 47.1289 142.048 46.668C141.813 46.2044 141.696 45.6589 141.696 45.0312C141.696 44.4141 141.813 43.8724 142.048 43.4063C142.285 42.9375 142.616 42.5729 143.04 42.3125C143.465 42.0495 143.963 41.918 144.536 41.918C144.906 41.918 145.255 41.9779 145.583 42.0977C145.914 42.2148 146.205 42.3971 146.458 42.6445C146.713 42.8919 146.914 43.207 147.06 43.5898C147.205 43.9701 147.278 44.4232 147.278 44.9492V45.3828H142.36V44.4297H145.923C145.92 44.1589 145.862 43.918 145.747 43.707C145.632 43.4935 145.472 43.3255 145.267 43.2031C145.063 43.0807 144.826 43.0195 144.556 43.0195C144.267 43.0195 144.013 43.0898 143.794 43.2305C143.575 43.3685 143.405 43.5508 143.282 43.7773C143.162 44.0013 143.101 44.2474 143.099 44.5156V45.3477C143.099 45.6966 143.162 45.9961 143.29 46.2461C143.418 46.4935 143.596 46.6836 143.825 46.8164C144.054 46.9466 144.323 47.0117 144.63 47.0117C144.836 47.0117 145.022 46.9831 145.188 46.9258C145.355 46.8659 145.5 46.7786 145.622 46.6641C145.744 46.5495 145.837 46.4076 145.899 46.2383L147.22 46.3867C147.136 46.7357 146.978 47.0404 146.743 47.3008C146.511 47.5586 146.215 47.7591 145.853 47.9023C145.491 48.043 145.076 48.1133 144.61 48.1133Z" fill="white"/>
<path d="M153.217 43.582L151.928 43.7227C151.891 43.5924 151.827 43.4701 151.736 43.3555C151.648 43.2409 151.528 43.1484 151.377 43.0781C151.226 43.0078 151.041 42.9727 150.822 42.9727C150.528 42.9727 150.281 43.0365 150.08 43.1641C149.882 43.2917 149.785 43.457 149.787 43.6602C149.785 43.8346 149.848 43.9766 149.979 44.0859C150.111 44.1953 150.33 44.2852 150.635 44.3555L151.658 44.5742C152.226 44.6966 152.648 44.8906 152.924 45.1562C153.202 45.4219 153.343 45.7695 153.346 46.1992C153.343 46.5768 153.232 46.9102 153.014 47.1992C152.798 47.4857 152.497 47.7096 152.111 47.8711C151.726 48.0326 151.283 48.1133 150.783 48.1133C150.049 48.1133 149.458 47.9596 149.01 47.6523C148.562 47.3424 148.295 46.9115 148.209 46.3594L149.588 46.2266C149.65 46.4974 149.783 46.7018 149.986 46.8398C150.189 46.9779 150.454 47.0469 150.779 47.0469C151.115 47.0469 151.385 46.9779 151.588 46.8398C151.794 46.7018 151.896 46.5312 151.896 46.3281C151.896 46.1562 151.83 46.0143 151.697 45.9023C151.567 45.7904 151.364 45.7044 151.088 45.6445L150.064 45.4297C149.489 45.3099 149.063 45.1081 148.787 44.8242C148.511 44.5378 148.374 44.1758 148.377 43.7383C148.374 43.3685 148.475 43.0482 148.678 42.7773C148.883 42.5039 149.169 42.293 149.533 42.1445C149.9 41.9935 150.324 41.918 150.803 41.918C151.506 41.918 152.059 42.0677 152.463 42.3672C152.869 42.6667 153.12 43.0716 153.217 43.582Z" fill="white"/>
<path d="M78.6399 24.4553L76.3089 31.0007H74.6044L72.2734 24.4553H73.9183L75.4226 29.3175H75.4908L76.9993 24.4553H78.6399Z" fill="#1DAA39"/>
<path d="M79.7074 31.0007V24.4553H81.25V31.0007H79.7074ZM80.483 23.5263C80.2386 23.5263 80.0284 23.4453 79.8523 23.2834C79.6761 23.1186 79.5881 22.9212 79.5881 22.6911C79.5881 22.4581 79.6761 22.2607 79.8523 22.0987C80.0284 21.9339 80.2386 21.8516 80.483 21.8516C80.7301 21.8516 80.9403 21.9339 81.1136 22.0987C81.2898 22.2607 81.3778 22.4581 81.3778 22.6911C81.3778 22.9212 81.2898 23.1186 81.1136 23.2834C80.9403 23.4453 80.7301 23.5263 80.483 23.5263Z" fill="#1DAA39"/>
<path d="M85.2653 31.1158C84.7511 31.1158 84.2908 30.9837 83.8846 30.7195C83.4783 30.4553 83.1573 30.0717 82.9215 29.5689C82.6857 29.0661 82.5678 28.4553 82.5678 27.7365C82.5678 27.0092 82.6871 26.3956 82.9258 25.8956C83.1673 25.3928 83.4925 25.0135 83.9016 24.7578C84.3107 24.4993 84.7667 24.37 85.2695 24.37C85.6531 24.37 85.9684 24.4354 86.2156 24.5661C86.4627 24.6939 86.6587 24.8487 86.8036 25.0305C86.9485 25.2095 87.0607 25.3786 87.1403 25.5376H87.2042V22.2734H88.7511V31.0007H87.234V29.9695H87.1403C87.0607 30.1286 86.9457 30.2976 86.7951 30.4766C86.6445 30.6527 86.4457 30.8033 86.1985 30.9283C85.9514 31.0533 85.6403 31.1158 85.2653 31.1158ZM85.6957 29.8501C86.0224 29.8501 86.3008 29.7621 86.5309 29.5859C86.761 29.407 86.9357 29.1584 87.055 28.8402C87.1744 28.522 87.234 28.1513 87.234 27.728C87.234 27.3047 87.1744 26.9368 87.055 26.6243C86.9386 26.3118 86.7653 26.0689 86.5352 25.8956C86.3079 25.7223 86.0281 25.6357 85.6957 25.6357C85.3519 25.6357 85.065 25.7251 84.8349 25.9041C84.6048 26.0831 84.4315 26.3303 84.315 26.6456C84.1985 26.9609 84.1403 27.3217 84.1403 27.728C84.1403 28.1371 84.1985 28.5021 84.315 28.8232C84.4343 29.1413 84.609 29.3928 84.8391 29.5774C85.0721 29.7592 85.3576 29.8501 85.6957 29.8501Z" fill="#1DAA39"/>
<path d="M93.2926 31.1286C92.6364 31.1286 92.0696 30.9922 91.5923 30.7195C91.1179 30.4439 90.7528 30.0547 90.4972 29.5518C90.2415 29.0462 90.1136 28.451 90.1136 27.7663C90.1136 27.093 90.2415 26.5021 90.4972 25.9936C90.7557 25.4822 91.1165 25.0845 91.5795 24.8004C92.0426 24.5135 92.5866 24.37 93.2116 24.37C93.6151 24.37 93.9957 24.4354 94.3537 24.5661C94.7145 24.6939 95.0327 24.8928 95.3082 25.1626C95.5866 25.4325 95.8054 25.7763 95.9645 26.1939C96.1236 26.6087 96.2031 27.103 96.2031 27.6768V28.1499H90.8381V27.1101H94.7244C94.7216 26.8146 94.6577 26.5518 94.5327 26.3217C94.4077 26.0888 94.233 25.9055 94.0085 25.772C93.7869 25.6385 93.5284 25.5717 93.233 25.5717C92.9176 25.5717 92.6406 25.6484 92.402 25.8018C92.1634 25.9524 91.9773 26.1513 91.8438 26.3984C91.7131 26.6428 91.6463 26.9112 91.6435 27.2038V28.1115C91.6435 28.4922 91.7131 28.8189 91.8523 29.0916C91.9915 29.3615 92.1861 29.5689 92.4361 29.7138C92.6861 29.8558 92.9787 29.9268 93.3139 29.9268C93.5384 29.9268 93.7415 29.8956 93.9233 29.8331C94.1051 29.7678 94.2628 29.6726 94.3963 29.5476C94.5298 29.4226 94.6307 29.2678 94.6989 29.0831L96.1392 29.245C96.0483 29.6257 95.875 29.9581 95.6193 30.2422C95.3665 30.5234 95.0426 30.7422 94.6477 30.8984C94.2528 31.0518 93.8011 31.1286 93.2926 31.1286Z" fill="#1DAA39"/>
<path d="M100.363 31.1286C99.7241 31.1286 99.1701 30.9879 98.7013 30.7067C98.2326 30.4254 97.869 30.032 97.6104 29.5263C97.3548 29.0206 97.2269 28.4297 97.2269 27.7536C97.2269 27.0774 97.3548 26.4851 97.6104 25.9766C97.869 25.468 98.2326 25.0732 98.7013 24.7919C99.1701 24.5107 99.7241 24.37 100.363 24.37C101.002 24.37 101.556 24.5107 102.025 24.7919C102.494 25.0732 102.856 25.468 103.112 25.9766C103.37 26.4851 103.5 27.0774 103.5 27.7536C103.5 28.4297 103.37 29.0206 103.112 29.5263C102.856 30.032 102.494 30.4254 102.025 30.7067C101.556 30.9879 101.002 31.1286 100.363 31.1286ZM100.372 29.8928C100.718 29.8928 101.008 29.7976 101.241 29.6072C101.474 29.4141 101.647 29.1555 101.761 28.8317C101.877 28.5078 101.936 28.147 101.936 27.7493C101.936 27.3487 101.877 26.9865 101.761 26.6626C101.647 26.3359 101.474 26.076 101.241 25.8828C101.008 25.6896 100.718 25.593 100.372 25.593C100.017 25.593 99.7212 25.6896 99.4854 25.8828C99.2525 26.076 99.0778 26.3359 98.9613 26.6626C98.8477 26.9865 98.7908 27.3487 98.7908 27.7493C98.7908 28.147 98.8477 28.5078 98.9613 28.8317C99.0778 29.1555 99.2525 29.4141 99.4854 29.6072C99.7212 29.7976 100.017 29.8928 100.372 29.8928Z" fill="#1DAA39"/>
<path d="M110.641 31.1286C109.987 31.1286 109.426 30.9851 108.957 30.6982C108.491 30.4112 108.132 30.0149 107.879 29.5092C107.629 29.0007 107.504 28.4155 107.504 27.7536C107.504 27.0888 107.632 26.5021 107.888 25.9936C108.143 25.4822 108.504 25.0845 108.97 24.8004C109.439 24.5135 109.993 24.37 110.632 24.37C111.163 24.37 111.634 24.468 112.043 24.6641C112.455 24.8572 112.783 25.1314 113.027 25.4865C113.271 25.8388 113.411 26.2507 113.445 26.7223H111.97C111.911 26.407 111.768 26.1442 111.544 25.9339C111.322 25.7209 111.026 25.6143 110.653 25.6143C110.338 25.6143 110.061 25.6996 109.822 25.87C109.584 26.0376 109.398 26.2791 109.264 26.5945C109.134 26.9098 109.068 27.2876 109.068 27.728C109.068 28.174 109.134 28.5575 109.264 28.8786C109.395 29.1967 109.578 29.4425 109.814 29.6158C110.053 29.7862 110.332 29.8714 110.653 29.8714C110.881 29.8714 111.084 29.8288 111.263 29.7436C111.445 29.6555 111.597 29.5291 111.719 29.3643C111.841 29.1996 111.925 28.9993 111.97 28.7635H113.445C113.408 29.2266 113.271 29.6371 113.036 29.995C112.8 30.3501 112.479 30.6286 112.072 30.8303C111.666 31.0291 111.189 31.1286 110.641 31.1286Z" fill="#1DAA39"/>
<path d="M116.254 22.2734V31.0007H114.711V22.2734H116.254Z" fill="#1DAA39"/>
<path d="M119.724 31.1328C119.309 31.1328 118.935 31.0589 118.603 30.9112C118.273 30.7607 118.012 30.5391 117.819 30.2464C117.629 29.9538 117.533 29.593 117.533 29.1641C117.533 28.7947 117.602 28.4893 117.738 28.2479C117.874 28.0064 118.06 27.8132 118.296 27.6683C118.532 27.5234 118.798 27.4141 119.093 27.3402C119.391 27.2635 119.7 27.2081 120.018 27.174C120.401 27.1342 120.712 27.0987 120.951 27.0675C121.19 27.0334 121.363 26.9822 121.471 26.9141C121.582 26.843 121.637 26.7337 121.637 26.5859V26.5604C121.637 26.2393 121.542 25.9908 121.352 25.8146C121.161 25.6385 120.887 25.5504 120.529 25.5504C120.151 25.5504 119.852 25.6328 119.63 25.7976C119.411 25.9624 119.263 26.157 119.187 26.3814L117.746 26.1768C117.86 25.7791 118.048 25.4467 118.309 25.1797C118.57 24.9098 118.89 24.7081 119.268 24.5746C119.646 24.4382 120.063 24.37 120.521 24.37C120.836 24.37 121.15 24.407 121.462 24.4808C121.775 24.5547 122.06 24.6768 122.319 24.8473C122.577 25.0149 122.785 25.2436 122.941 25.5334C123.1 25.8232 123.18 26.1854 123.18 26.62V31.0007H121.697V30.1016H121.646C121.552 30.2834 121.42 30.4538 121.249 30.6129C121.082 30.7692 120.87 30.8956 120.614 30.9922C120.362 31.0859 120.065 31.1328 119.724 31.1328ZM120.124 29.9993C120.434 29.9993 120.702 29.9382 120.93 29.8161C121.157 29.6911 121.332 29.5263 121.454 29.3217C121.579 29.1172 121.641 28.8942 121.641 28.6527V27.8814C121.593 27.9212 121.511 27.9581 121.394 27.9922C121.281 28.0263 121.153 28.0561 121.011 28.0817C120.869 28.1072 120.728 28.13 120.589 28.1499C120.45 28.1697 120.329 28.1868 120.227 28.201C119.996 28.2322 119.79 28.2834 119.609 28.3544C119.427 28.4254 119.283 28.5249 119.178 28.6527C119.073 28.7777 119.021 28.9396 119.021 29.1385C119.021 29.4226 119.124 29.6371 119.332 29.782C119.539 29.9268 119.803 29.9993 120.124 29.9993Z" fill="#1DAA39"/>
<path d="M129.904 26.1854L128.498 26.3388C128.458 26.1967 128.388 26.0632 128.289 25.9382C128.192 25.8132 128.062 25.7124 127.897 25.6357C127.732 25.5589 127.531 25.5206 127.292 25.5206C126.971 25.5206 126.701 25.5902 126.482 25.7294C126.266 25.8686 126.16 26.049 126.163 26.2706C126.16 26.4609 126.229 26.6158 126.371 26.7351C126.516 26.8544 126.755 26.9524 127.087 27.0291L128.204 27.2678C128.823 27.4013 129.283 27.6129 129.585 27.9027C129.888 28.1925 130.042 28.5717 130.045 29.0405C130.042 29.4524 129.921 29.8161 129.683 30.1314C129.447 30.4439 129.119 30.6882 128.698 30.8643C128.278 31.0405 127.795 31.1286 127.249 31.1286C126.448 31.1286 125.803 30.9609 125.315 30.6257C124.826 30.2876 124.535 29.8175 124.441 29.2152L125.945 29.0703C126.013 29.3658 126.158 29.5888 126.38 29.7393C126.602 29.8899 126.89 29.9652 127.245 29.9652C127.612 29.9652 127.906 29.8899 128.127 29.7393C128.352 29.5888 128.464 29.4027 128.464 29.1811C128.464 28.9936 128.391 28.8388 128.246 28.7166C128.104 28.5945 127.883 28.5007 127.582 28.4354L126.465 28.201C125.837 28.0703 125.373 27.8501 125.072 27.5405C124.771 27.228 124.621 26.8331 124.624 26.3558C124.621 25.9524 124.731 25.603 124.952 25.3075C125.177 25.0092 125.488 24.7791 125.886 24.6172C126.286 24.4524 126.748 24.37 127.271 24.37C128.038 24.37 128.641 24.5334 129.082 24.8601C129.525 25.1868 129.799 25.6286 129.904 26.1854Z" fill="#1DAA39"/>
<path d="M136.49 26.1854L135.084 26.3388C135.044 26.1967 134.974 26.0632 134.875 25.9382C134.778 25.8132 134.648 25.7124 134.483 25.6357C134.318 25.5589 134.116 25.5206 133.878 25.5206C133.557 25.5206 133.287 25.5902 133.068 25.7294C132.852 25.8686 132.746 26.049 132.749 26.2706C132.746 26.4609 132.815 26.6158 132.957 26.7351C133.102 26.8544 133.341 26.9524 133.673 27.0291L134.79 27.2678C135.409 27.4013 135.869 27.6129 136.17 27.9027C136.474 28.1925 136.628 28.5717 136.631 29.0405C136.628 29.4524 136.507 29.8161 136.268 30.1314C136.033 30.4439 135.705 30.6882 135.284 30.8643C134.864 31.0405 134.381 31.1286 133.835 31.1286C133.034 31.1286 132.389 30.9609 131.901 30.6257C131.412 30.2876 131.121 29.8175 131.027 29.2152L132.531 29.0703C132.599 29.3658 132.744 29.5888 132.966 29.7393C133.188 29.8899 133.476 29.9652 133.831 29.9652C134.197 29.9652 134.491 29.8899 134.713 29.7393C134.937 29.5888 135.05 29.4027 135.05 29.1811C135.05 28.9936 134.977 28.8388 134.832 28.7166C134.69 28.5945 134.469 28.5007 134.168 28.4354L133.051 28.201C132.423 28.0703 131.959 27.8501 131.658 27.5405C131.357 27.228 131.207 26.8331 131.21 26.3558C131.207 25.9524 131.317 25.603 131.538 25.3075C131.763 25.0092 132.074 24.7791 132.472 24.6172C132.872 24.4524 133.334 24.37 133.857 24.37C134.624 24.37 135.227 24.5334 135.668 24.8601C136.111 25.1868 136.385 25.6286 136.49 26.1854Z" fill="#1DAA39"/>
<path d="M137.903 31.0007V24.4553H139.445V31.0007H137.903ZM138.678 23.5263C138.434 23.5263 138.224 23.4453 138.048 23.2834C137.871 23.1186 137.783 22.9212 137.783 22.6911C137.783 22.4581 137.871 22.2607 138.048 22.0987C138.224 21.9339 138.434 21.8516 138.678 21.8516C138.925 21.8516 139.136 21.9339 139.309 22.0987C139.485 22.2607 139.573 22.4581 139.573 22.6911C139.573 22.9212 139.485 23.1186 139.309 23.2834C139.136 23.4453 138.925 23.5263 138.678 23.5263Z" fill="#1DAA39"/>
<path d="M144.347 24.4553V25.6484H140.478V24.4553H144.347ZM141.445 31.0007V23.8374C141.445 23.397 141.536 23.0305 141.718 22.7379C141.902 22.4453 142.149 22.2266 142.459 22.0817C142.769 21.9368 143.113 21.8643 143.49 21.8643C143.757 21.8643 143.995 21.8857 144.202 21.9283C144.409 21.9709 144.563 22.0092 144.662 22.0433L144.355 23.2365C144.29 23.2166 144.208 23.1967 144.108 23.1768C144.009 23.1541 143.898 23.1428 143.776 23.1428C143.489 23.1428 143.286 23.2124 143.167 23.3516C143.05 23.4879 142.992 23.6839 142.992 23.9396V31.0007H141.445Z" fill="#1DAA39"/>
<path d="M145.555 31.0007V24.4553H147.098V31.0007H145.555ZM146.331 23.5263C146.086 23.5263 145.876 23.4453 145.7 23.2834C145.524 23.1186 145.436 22.9212 145.436 22.6911C145.436 22.4581 145.524 22.2607 145.7 22.0987C145.876 21.9339 146.086 21.8516 146.331 21.8516C146.578 21.8516 146.788 21.9339 146.961 22.0987C147.137 22.2607 147.225 22.4581 147.225 22.6911C147.225 22.9212 147.137 23.1186 146.961 23.2834C146.788 23.4453 146.578 23.5263 146.331 23.5263Z" fill="#1DAA39"/>
<path d="M151.582 31.1286C150.925 31.1286 150.359 30.9922 149.881 30.7195C149.407 30.4439 149.042 30.0547 148.786 29.5518C148.531 29.0462 148.403 28.451 148.403 27.7663C148.403 27.093 148.531 26.5021 148.786 25.9936C149.045 25.4822 149.406 25.0845 149.869 24.8004C150.332 24.5135 150.876 24.37 151.501 24.37C151.904 24.37 152.285 24.4354 152.643 24.5661C153.004 24.6939 153.322 24.8928 153.597 25.1626C153.876 25.4325 154.094 25.7763 154.254 26.1939C154.413 26.6087 154.492 27.103 154.492 27.6768V28.1499H149.127V27.1101H153.013C153.011 26.8146 152.947 26.5518 152.822 26.3217C152.697 26.0888 152.522 25.9055 152.298 25.772C152.076 25.6385 151.817 25.5717 151.522 25.5717C151.207 25.5717 150.93 25.6484 150.691 25.8018C150.452 25.9524 150.266 26.1513 150.133 26.3984C150.002 26.6428 149.935 26.9112 149.933 27.2038V28.1115C149.933 28.4922 150.002 28.8189 150.141 29.0916C150.281 29.3615 150.475 29.5689 150.725 29.7138C150.975 29.8558 151.268 29.9268 151.603 29.9268C151.827 29.9268 152.031 29.8956 152.212 29.8331C152.394 29.7678 152.552 29.6726 152.685 29.5476C152.819 29.4226 152.92 29.2678 152.988 29.0831L154.428 29.245C154.337 29.6257 154.164 29.9581 153.908 30.2422C153.656 30.5234 153.332 30.7422 152.937 30.8984C152.542 31.0518 152.09 31.1286 151.582 31.1286Z" fill="#1DAA39"/>
<path d="M158.226 31.1158C157.712 31.1158 157.252 30.9837 156.846 30.7195C156.439 30.4553 156.118 30.0717 155.882 29.5689C155.647 29.0661 155.529 28.4553 155.529 27.7365C155.529 27.0092 155.648 26.3956 155.887 25.8956C156.128 25.3928 156.453 25.0135 156.863 24.7578C157.272 24.4993 157.728 24.37 158.23 24.37C158.614 24.37 158.929 24.4354 159.176 24.5661C159.424 24.6939 159.62 24.8487 159.765 25.0305C159.909 25.2095 160.022 25.3786 160.101 25.5376H160.165V22.2734H161.712V31.0007H160.195V29.9695H160.101C160.022 30.1286 159.907 30.2976 159.756 30.4766C159.605 30.6527 159.407 30.8033 159.159 30.9283C158.912 31.0533 158.601 31.1158 158.226 31.1158ZM158.657 29.8501C158.983 29.8501 159.262 29.7621 159.492 29.5859C159.722 29.407 159.897 29.1584 160.016 28.8402C160.135 28.522 160.195 28.1513 160.195 27.728C160.195 27.3047 160.135 26.9368 160.016 26.6243C159.899 26.3118 159.726 26.0689 159.496 25.8956C159.269 25.7223 158.989 25.6357 158.657 25.6357C158.313 25.6357 158.026 25.7251 157.796 25.9041C157.566 26.0831 157.392 26.3303 157.276 26.6456C157.159 26.9609 157.101 27.3217 157.101 27.728C157.101 28.1371 157.159 28.5021 157.276 28.8232C157.395 29.1413 157.57 29.3928 157.8 29.5774C158.033 29.7592 158.319 29.8501 158.657 29.8501Z" fill="#1DAA39"/>
<path d="M84.435 8.02663C84.0504 4.83523 81.6349 3 78.4368 3C74.7866 3 72 5.57742 72 10.098C72 14.6051 74.7393 17.196 78.4368 17.196C81.979 17.196 84.1179 14.8413 84.435 12.2976L81.4798 12.2841C81.2031 13.7617 80.0426 14.6119 78.484 14.6119C76.3857 14.6119 74.962 13.0533 74.962 10.098C74.962 7.22372 76.3654 5.58416 78.5043 5.58416C80.1033 5.58416 81.2571 6.50852 81.4798 8.02663H84.435Z" fill="#202020"/>
<path d="M89.4313 17.2028C90.9629 17.2028 91.9547 16.5348 92.4608 15.57H92.5417V17.0071H95.2676V10.017C95.2676 7.54759 93.176 6.50852 90.8684 6.50852C88.3855 6.50852 86.7527 7.69602 86.3546 9.58523L89.013 9.80114C89.2086 9.11293 89.8226 8.60689 90.8549 8.60689C91.8333 8.60689 92.3933 9.09943 92.3933 9.94957V9.99006C92.3933 10.658 91.6848 10.7457 89.8833 10.9212C87.8322 11.1101 85.9902 11.7983 85.9902 14.1126C85.9902 16.1637 87.4544 17.2028 89.4313 17.2028ZM90.2544 15.2191C89.3706 15.2191 88.7363 14.8075 88.7363 14.0181C88.7363 13.2085 89.4043 12.8104 90.4164 12.6687C91.0439 12.581 92.0694 12.4325 92.4135 12.2031V13.3029C92.4135 14.3892 91.5162 15.2191 90.2544 15.2191Z" fill="#202020"/>
<path d="M100.372 3.18892H97.4975V17.0071H100.372V3.18892Z" fill="#202020"/>
<path d="M105.549 3.18892H102.674V17.0071H105.549V3.18892Z" fill="#202020"/>
<path d="M107.905 17.0071H110.827V12.527H113.282C116.46 12.527 118.309 10.631 118.309 7.87145C118.309 5.12536 116.494 3.18892 113.357 3.18892H107.905V17.0071ZM110.827 10.1857V5.57742H112.797C114.483 5.57742 115.3 6.49503 115.3 7.87145C115.3 9.24112 114.483 10.1857 112.81 10.1857H110.827Z" fill="#202020"/>
<path d="M122.83 17.2028C124.361 17.2028 125.353 16.5348 125.859 15.57H125.94V17.0071H128.666V10.017C128.666 7.54759 126.574 6.50852 124.267 6.50852C121.784 6.50852 120.151 7.69602 119.753 9.58523L122.411 9.80114C122.607 9.11293 123.221 8.60689 124.253 8.60689C125.232 8.60689 125.792 9.09943 125.792 9.94957V9.99006C125.792 10.658 125.083 10.7457 123.282 10.9212C121.231 11.1101 119.389 11.7983 119.389 14.1126C119.389 16.1637 120.853 17.2028 122.83 17.2028ZM123.653 15.2191C122.769 15.2191 122.135 14.8075 122.135 14.0181C122.135 13.2085 122.803 12.8104 123.815 12.6687C124.442 12.581 125.468 12.4325 125.812 12.2031V13.3029C125.812 14.3892 124.915 15.2191 123.653 15.2191Z" fill="#202020"/>
<path d="M133.77 11.0156C133.777 9.67969 134.573 8.89702 135.734 8.89702C136.887 8.89702 137.582 9.6527 137.576 10.9212V17.0071H140.45V10.4084C140.45 7.9929 139.033 6.50852 136.874 6.50852C135.336 6.50852 134.222 7.2642 133.757 8.47195H133.635V6.64347H130.896V17.0071H133.77V11.0156Z" fill="#202020"/>
<path d="M146.534 17.1758C148.207 17.1758 149.078 16.2109 149.476 15.3473H149.597V17.0071H152.431V3.18892H149.564V8.38423H149.476C149.091 7.54084 148.261 6.50852 146.527 6.50852C144.254 6.50852 142.331 8.27628 142.331 11.8388C142.331 15.3068 144.173 17.1758 146.534 17.1758ZM147.445 14.8885C146.035 14.8885 145.266 13.6335 145.266 11.8253C145.266 10.0305 146.021 8.79581 147.445 8.79581C148.842 8.79581 149.624 9.97656 149.624 11.8253C149.624 13.674 148.828 14.8885 147.445 14.8885Z" fill="#202020"/>
<path d="M157.75 17.2028C159.281 17.2028 160.273 16.5348 160.779 15.57H160.86V17.0071H163.586V10.017C163.586 7.54759 161.494 6.50852 159.187 6.50852C156.704 6.50852 155.071 7.69602 154.673 9.58523L157.331 9.80114C157.527 9.11293 158.141 8.60689 159.173 8.60689C160.152 8.60689 160.712 9.09943 160.712 9.94957V9.99006C160.712 10.658 160.003 10.7457 158.202 10.9212C156.151 11.1101 154.309 11.7983 154.309 14.1126C154.309 16.1637 155.773 17.2028 157.75 17.2028ZM158.573 15.2191C157.689 15.2191 157.055 14.8075 157.055 14.0181C157.055 13.2085 157.723 12.8104 158.735 12.6687C159.362 12.581 160.388 12.4325 160.732 12.2031V13.3029C160.732 14.3892 159.835 15.2191 158.573 15.2191Z" fill="#202020"/>
<path d="M167.496 17.1825C168.36 17.1825 169.108 16.4606 169.115 15.5632C169.108 14.6793 168.36 13.9574 167.496 13.9574C166.605 13.9574 165.87 14.6793 165.877 15.5632C165.87 16.4606 166.605 17.1825 167.496 17.1825Z" fill="#202020"/>
<path d="M176.158 17.2095C178.917 17.2095 180.651 15.5902 180.786 13.2085H178.074C177.905 14.315 177.176 14.9357 176.191 14.9357C174.849 14.9357 173.978 13.8089 173.978 11.8253C173.978 9.86861 174.855 8.74858 176.191 8.74858C177.244 8.74858 177.919 9.44354 178.074 10.4759H180.786C180.665 8.08061 178.85 6.50852 176.144 6.50852C173 6.50852 171.057 8.68786 171.057 11.8658C171.057 15.0167 172.966 17.2095 176.158 17.2095Z" fill="#202020"/>
<path d="M187.309 17.2095C190.453 17.2095 192.41 15.0572 192.41 11.8658C192.41 8.65412 190.453 6.50852 187.309 6.50852C184.165 6.50852 182.208 8.65412 182.208 11.8658C182.208 15.0572 184.165 17.2095 187.309 17.2095ZM187.322 14.983C185.872 14.983 185.13 13.6538 185.13 11.8455C185.13 10.0373 185.872 8.70135 187.322 8.70135C188.746 8.70135 189.488 10.0373 189.488 11.8455C189.488 13.6538 188.746 14.983 187.322 14.983Z" fill="#202020"/>
<path d="M194.279 17.0071H197.153V10.7862C197.153 9.63921 197.882 8.87678 198.84 8.87678C199.784 8.87678 200.419 9.5245 200.419 10.5433V17.0071H203.205V10.6783C203.205 9.60547 203.819 8.87678 204.865 8.87678C205.783 8.87678 206.471 9.45028 206.471 10.604V17.0071H209.338V10.0373C209.338 7.79048 208.002 6.50852 206.073 6.50852C204.555 6.50852 203.374 7.28445 202.949 8.47195H202.841C202.51 7.27095 201.451 6.50852 200.027 6.50852C198.631 6.50852 197.571 7.25071 197.14 8.47195H197.018V6.64347H194.279V17.0071Z" fill="#202020"/>
<path d="M214.876 9.76705V6.09801H216.671C216.903 6.09801 217.115 6.14607 217.308 6.24219C217.503 6.3383 217.657 6.47751 217.77 6.6598C217.886 6.83878 217.944 7.05753 217.944 7.31605C217.944 7.57457 217.884 7.79498 217.765 7.97727C217.646 8.15956 217.487 8.29877 217.288 8.39489C217.089 8.48769 216.868 8.53409 216.626 8.53409H215.398V7.84304H216.428C216.567 7.84304 216.686 7.7983 216.786 7.70881C216.888 7.61932 216.94 7.48674 216.94 7.31108C216.94 7.12879 216.888 6.99953 216.786 6.9233C216.686 6.84375 216.568 6.80398 216.433 6.80398H215.831V9.76705H214.876ZM217.218 8.07173L218.053 9.76705H217.009L216.229 8.07173H217.218ZM216.313 11.9545C215.763 11.9545 215.248 11.8518 214.767 11.6463C214.286 11.4408 213.864 11.1558 213.499 10.7912C213.135 10.4266 212.85 10.004 212.644 9.52344C212.439 9.04285 212.336 8.52746 212.336 7.97727C212.336 7.42708 212.439 6.91169 212.644 6.43111C212.85 5.95052 213.135 5.52794 213.499 5.16335C213.864 4.79877 214.286 4.51373 214.767 4.30824C215.248 4.10275 215.763 4 216.313 4C216.863 4 217.379 4.10275 217.859 4.30824C218.34 4.51373 218.763 4.79877 219.127 5.16335C219.492 5.52794 219.777 5.95052 219.982 6.43111C220.188 6.91169 220.29 7.42708 220.29 7.97727C220.29 8.52746 220.188 9.04285 219.982 9.52344C219.777 10.004 219.492 10.4266 219.127 10.7912C218.763 11.1558 218.34 11.4408 217.859 11.6463C217.379 11.8518 216.863 11.9545 216.313 11.9545ZM216.313 10.9055C216.857 10.9055 217.349 10.7746 217.79 10.5128C218.234 10.2476 218.587 9.89465 218.849 9.45384C219.111 9.00971 219.241 8.51752 219.241 7.97727C219.241 7.43703 219.109 6.9465 218.844 6.50568C218.582 6.06155 218.229 5.70857 217.785 5.44673C217.344 5.18158 216.853 5.04901 216.313 5.04901C215.776 5.04901 215.286 5.18158 214.842 5.44673C214.397 5.70857 214.045 6.06155 213.783 6.50568C213.521 6.9465 213.39 7.43703 213.39 7.97727C213.39 8.51752 213.521 9.00971 213.783 9.45384C214.045 9.89465 214.397 10.2476 214.842 10.5128C215.286 10.7746 215.776 10.9055 216.313 10.9055Z" fill="#202020"/>
</svg>
