<svg width="32" height="32" viewBox="0 0 32 32" fill="none" xmlns="http://www.w3.org/2000/svg">
<path d="M16.2116 15.4927C16.1716 15.4927 16.145 15.4927 16.105 15.4927C16.0383 15.4793 15.945 15.4793 15.865 15.4927C11.9983 15.3727 9.07831 12.3327 9.07831 8.58602C9.06497 6.74602 9.78497 5.01268 11.0916 3.70602C12.3983 2.39935 14.1316 1.66602 15.985 1.66602C19.7983 1.66602 22.905 4.77268 22.905 8.58602C22.905 12.3327 19.985 15.3593 16.2516 15.4927C16.2383 15.4927 16.225 15.4927 16.2116 15.4927ZM15.985 3.66602C14.665 3.66602 13.4383 4.18602 12.505 5.10602C11.585 6.03935 11.0783 7.26602 11.0783 8.57268C11.0783 11.2393 13.1583 13.3993 15.8116 13.4793C15.8916 13.466 16.065 13.466 16.2383 13.4793C18.865 13.3593 20.905 11.2127 20.905 8.57268C20.905 5.87935 18.6916 3.66602 15.985 3.66602Z" fill="#D3D3D3"/>
<path fill-rule="evenodd" clip-rule="evenodd" d="M15.0026 28.6673C15.0026 29.214 15.4559 29.6673 16.0026 29.6673C16.5493 29.6673 17.0026 29.214 17.0026 28.6673V27.0007H18.6693C19.2159 27.0007 19.6693 26.5473 19.6693 26.0007C19.6693 25.454 19.2159 25.0007 18.6693 25.0007H17.0026V23.334C17.0026 22.7873 16.5493 22.334 16.0026 22.334C15.4559 22.334 15.0026 22.7873 15.0026 23.334V25.0007H13.3359C12.7893 25.0007 12.3359 25.454 12.3359 26.0007C12.3359 26.5473 12.7893 27.0007 13.3359 27.0007H15.0026V28.6673Z" fill="#D3D3D3"/>
<path fill-rule="evenodd" clip-rule="evenodd" d="M16.0153 18.547C14.3175 18.539 12.6826 18.8618 11.3151 19.4458C9.94021 20.033 8.97655 20.8215 8.43042 21.6225C7.90312 22.396 7.77383 23.1548 7.92845 23.856C8.08938 24.5857 8.59584 25.4112 9.59138 26.169C10.0308 26.5035 10.1159 27.1309 9.78138 27.5704C9.44687 28.0098 8.81944 28.0949 8.37999 27.7604C7.09436 26.7817 6.25956 25.5753 5.97538 24.2867C5.69121 22.9981 5.96957 21.6816 6.77791 20.4959C7.58592 19.3107 8.88879 18.3072 10.5296 17.6065C12.1703 16.9058 14.0787 16.5379 16.0248 16.547C17.9708 16.5562 19.8713 16.9421 21.4971 17.6581C23.1231 18.3742 24.4047 19.3899 25.1878 20.5826C25.9711 21.7757 26.2218 23.0947 25.9106 24.3805C25.5994 25.6663 24.7394 26.8648 23.4333 27.8312C22.9894 28.1597 22.3632 28.0661 22.0347 27.6222C21.7061 27.1782 21.7997 26.552 22.2437 26.2235C23.2608 25.4709 23.7891 24.6439 23.9668 23.91C24.137 23.2066 24.0216 22.4505 23.5159 21.6802C22.9911 20.8809 22.05 20.087 20.691 19.4885C19.3393 18.8932 17.7133 18.555 16.0153 18.547Z" fill="#D3D3D3"/>
</svg>
