<svg width="33" height="32" viewBox="0 0 33 32" fill="none" xmlns="http://www.w3.org/2000/svg">
<path d="M16.4974 2.66602C13.0041 2.66602 10.1641 5.50602 10.1641 8.99935C10.1641 12.426 12.8441 15.1993 16.3374 15.3193C16.4441 15.306 16.5507 15.306 16.6307 15.3193C16.6574 15.3193 16.6707 15.3193 16.6974 15.3193C16.7107 15.3193 16.7107 15.3193 16.7241 15.3193C20.1374 15.1993 22.8174 12.426 22.8307 8.99935C22.8307 5.50602 19.9907 2.66602 16.4974 2.66602Z" fill="#1DAA39"/>
<path d="M23.2694 18.8659C19.5494 16.3859 13.4827 16.3859 9.73604 18.8659C8.04271 19.9992 7.10938 21.5325 7.10938 23.1725C7.10938 24.8125 8.04271 26.3325 9.72271 27.4525C11.5894 28.7059 14.0427 29.3325 16.496 29.3325C18.9494 29.3325 21.4027 28.7059 23.2694 27.4525C24.9494 26.3192 25.8827 24.7992 25.8827 23.1459C25.8694 21.5059 24.9494 19.9859 23.2694 18.8659ZM19.1627 24.1725H17.496V25.8392C17.496 26.3859 17.0427 26.8392 16.496 26.8392C15.9494 26.8392 15.496 26.3859 15.496 25.8392V24.1725H13.8294C13.2827 24.1725 12.8294 23.7192 12.8294 23.1725C12.8294 22.6259 13.2827 22.1725 13.8294 22.1725H15.496V20.5059C15.496 19.9592 15.9494 19.5059 16.496 19.5059C17.0427 19.5059 17.496 19.9592 17.496 20.5059V22.1725H19.1627C19.7094 22.1725 20.1627 22.6259 20.1627 23.1725C20.1627 23.7192 19.7094 24.1725 19.1627 24.1725Z" fill="#1DAA39"/>
</svg>
