<svg width="32" height="32" viewBox="0 0 32 32" fill="none" xmlns="http://www.w3.org/2000/svg">
<path fill-rule="evenodd" clip-rule="evenodd" d="M4.12362 4.12558C5.90291 2.34628 8.56543 1.66602 11.9974 1.66602H19.9974C23.4294 1.66602 26.0919 2.34628 27.8712 4.12558C29.6505 5.90487 30.3307 8.56739 30.3307 11.9993V19.9993C30.3307 23.4313 29.6505 26.0938 27.8712 27.8731C26.0919 29.6524 23.4294 30.3327 19.9974 30.3327H11.9974C8.56543 30.3327 5.90291 29.6524 4.12362 27.8731C2.34433 26.0938 1.66406 23.4313 1.66406 19.9993V11.9993C1.66406 8.56739 2.34433 5.90487 4.12362 4.12558ZM5.53784 5.53979C4.31713 6.7605 3.66406 8.76465 3.66406 11.9993V19.9993C3.66406 23.2341 4.31713 25.2382 5.53784 26.4589C6.75854 27.6796 8.76269 28.3327 11.9974 28.3327H19.9974C23.2321 28.3327 25.2362 27.6796 26.457 26.4589C27.6777 25.2382 28.3307 23.2341 28.3307 19.9993V11.9993C28.3307 8.76465 27.6777 6.7605 26.457 5.53979C25.2362 4.31908 23.2321 3.66602 19.9974 3.66602H11.9974C8.76269 3.66602 6.75854 4.31908 5.53784 5.53979Z" fill="#D3D3D3"/>
<path fill-rule="evenodd" clip-rule="evenodd" d="M2.35938 9.48047C2.35938 8.92818 2.80709 8.48047 3.35938 8.48047H28.6394C29.1917 8.48047 29.6394 8.92818 29.6394 9.48047C29.6394 10.0328 29.1917 10.4805 28.6394 10.4805H3.35938C2.80709 10.4805 2.35938 10.0328 2.35938 9.48047Z" fill="#D3D3D3"/>
<path fill-rule="evenodd" clip-rule="evenodd" d="M11.3594 1.8125C11.9117 1.8125 12.3594 2.26022 12.3594 2.8125V9.2925C12.3594 9.84478 11.9117 10.2925 11.3594 10.2925C10.8071 10.2925 10.3594 9.84478 10.3594 9.2925V2.8125C10.3594 2.26022 10.8071 1.8125 11.3594 1.8125Z" fill="#D3D3D3"/>
<path fill-rule="evenodd" clip-rule="evenodd" d="M20.6406 1.8125C21.1929 1.8125 21.6406 2.26022 21.6406 2.8125V8.6925C21.6406 9.24478 21.1929 9.6925 20.6406 9.6925C20.0883 9.6925 19.6406 9.24478 19.6406 8.6925V2.8125C19.6406 2.26022 20.0883 1.8125 20.6406 1.8125Z" fill="#D3D3D3"/>
<path fill-rule="evenodd" clip-rule="evenodd" d="M14.449 16.4442C14.2798 16.5421 14 16.8539 14 17.6669V20.8669C14 21.6799 14.2798 21.9917 14.449 22.0896C14.6175 22.187 15.0249 22.2738 15.7256 21.8681L18.499 20.2681C18.4988 20.2682 18.4992 20.268 18.499 20.2681C19.199 19.8626 19.33 19.4645 19.33 19.2669C19.33 19.0693 19.1996 18.6715 18.4996 18.266C18.4994 18.2659 18.4998 18.2661 18.4996 18.266L15.7256 16.6656C15.0249 16.26 14.6175 16.3468 14.449 16.4442ZM16.727 14.9344C15.6546 14.3137 14.449 14.1338 13.4477 14.7129C12.4469 15.2917 12 16.4266 12 17.6669V20.8669C12 22.1072 12.4469 23.2421 13.4477 23.8209C14.449 24.4 15.6546 24.22 16.7271 23.5993C16.7269 23.5995 16.7273 23.5992 16.7271 23.5993L19.501 21.999C20.5738 21.3779 21.33 20.4226 21.33 19.2669C21.33 18.1112 20.5738 17.1558 19.501 16.5348L18.1131 15.734L16.727 14.9344C16.7272 14.9345 16.7268 14.9343 16.727 14.9344Z" fill="#D3D3D3"/>
</svg>
