<svg width="32" height="32" viewBox="0 0 32 32" fill="none" xmlns="http://www.w3.org/2000/svg">
<path d="M29.0773 17.0863C29.1733 17.1403 29.1925 17.2548 29.1964 17.2985L29.1973 17.3159L29.0906 24.2019C29.0906 26.9487 26.9623 29.1887 24.2824 29.326L24.0214 29.3327H7.96004C5.24619 29.3327 3.0331 27.1786 2.89743 24.4661L2.89084 24.2019L2.79746 17.3159C2.79746 17.3159 2.79746 17.1538 2.91752 17.0863C3.02424 17.0188 3.15764 17.0998 3.17098 17.1133C5.86566 18.9226 9.10728 20.1243 12.509 20.6239C12.9892 20.6914 13.4695 20.3808 13.6029 19.8948C13.878 18.8568 14.7276 18.1511 15.7671 18.0669L15.9774 18.0585H16.0174C17.1513 18.0585 18.0984 18.7876 18.3919 19.8948C18.5253 20.3808 19.0056 20.6914 19.4858 20.6239C22.8875 20.1243 26.1291 18.9226 28.8238 17.1133C28.8238 17.1133 28.8505 17.0998 28.8772 17.0863C28.9305 17.0593 29.0106 17.0458 29.0773 17.0863ZM15.9907 19.9893C15.4894 19.9893 15.0665 20.375 14.9995 20.8657L14.9902 21.0019V22.7437C14.9902 23.3108 15.4438 23.7563 15.9907 23.7563C16.5043 23.7563 16.917 23.3819 16.9822 22.8827L16.9912 22.7437V21.0019C16.9912 20.4483 16.551 19.9893 15.9907 19.9893ZM17.7116 2.66602C19.7126 2.66602 21.3534 4.19175 21.6069 6.14954H24.2482C27.0496 6.14954 29.3307 8.45839 29.3307 11.2938C29.3307 11.2938 29.2507 12.4942 29.224 14.1657C29.2213 14.298 29.1573 14.4276 29.0519 14.506C28.4103 14.9799 27.8233 15.3714 27.7699 15.3984C25.5555 16.8837 22.9822 17.9287 20.2409 18.4486C20.0621 18.4837 19.886 18.3905 19.7953 18.2312C19.0269 16.8999 17.5915 16.033 15.9907 16.033C14.4006 16.033 12.9519 16.8904 12.1608 18.2231C12.0688 18.3797 11.8953 18.4702 11.7179 18.4364C8.99923 17.9152 6.42594 16.8715 4.22484 15.4119L2.9442 14.5208C2.83748 14.4533 2.77078 14.3318 2.77078 14.1968C2.73076 13.5082 2.66406 11.2938 2.66406 11.2938C2.66406 8.45839 4.9452 6.14954 7.7466 6.14954H10.3746C10.628 4.19175 12.2689 2.66602 14.2699 2.66602H17.7116ZM17.7116 4.69132H14.2699C13.3761 4.69132 12.6157 5.31242 12.4023 6.14954H19.5792C19.3657 5.31242 18.6054 4.69132 17.7116 4.69132Z" fill="#1DAA39"/>
</svg>
