<svg width="24" height="24" viewBox="0 0 24 24" fill="none" xmlns="http://www.w3.org/2000/svg">
<path fill-rule="evenodd" clip-rule="evenodd" d="M0 8.32C0 4.717 2.511 2 5.841 2H15.659C18.7539 2 21.1413 4.34688 21.463 7.57073C21.5042 7.9829 21.1642 8.32 20.75 8.32V8.32C20.3358 8.32 20.0054 7.98277 19.9548 7.57166C19.6592 5.17216 17.9433 3.5 15.659 3.5H5.841C3.326 3.5 1.5 5.527 1.5 8.32V15.188C1.5 16.631 1.995 17.92 2.896 18.817C3.672 19.592 4.684 20 5.825 20C5.831 20 5.839 19.998 5.841 20H15.675C16.5507 20 17.3515 19.7592 18.0275 19.2963C18.3695 19.0621 18.8413 19.0552 19.1338 19.3488V19.3488C19.4261 19.6422 19.428 20.1219 19.0989 20.3732C18.1297 21.1129 16.9609 21.5 15.678 21.5H5.825C4.279 21.5 2.9 20.939 1.837 19.88C0.652 18.698 0 17.032 0 15.188V8.32ZM4.374 9.1838C4.053 8.9218 4.004 8.4498 4.265 8.1288C4.527 7.8068 4.999 7.7568 5.321 8.0198L9.757 11.6258C10.324 12.0758 11.117 12.0758 11.68 11.6298L16.161 8.0178C16.483 7.7588 16.955 7.8098 17.216 8.1308C17.475 8.4528 17.425 8.9258 17.102 9.1858L12.617 12.8018C12.059 13.2438 11.392 13.4648 10.723 13.4648C10.052 13.4648 9.38 13.2418 8.818 12.7958L4.374 9.1838Z" fill="white"/>
<path fill-rule="evenodd" clip-rule="evenodd" d="M23.9993 13.7771C23.9998 13.7662 24 13.7552 24 13.7441C24 13.7339 23.9998 13.7235 23.9993 13.7132C23.9929 13.5561 23.9382 13.4006 23.8295 13.2692C23.814 13.25 23.7975 13.2316 23.78 13.2141L21.78 11.2141C21.49 10.9241 21.01 10.9241 20.72 11.2141C20.43 11.5041 20.43 11.9841 20.72 12.2741L21.44 12.9941H17.25C16.84 12.9941 16.5 13.3341 16.5 13.7441C16.5 14.1541 16.84 14.4941 17.25 14.4941H21.4405L20.7199 15.2147C20.4299 15.5047 20.4299 15.9847 20.7199 16.2747C21.0099 16.5647 21.4899 16.5647 21.7799 16.2747L23.7476 14.307C23.805 14.2565 23.8546 14.197 23.8937 14.1298C23.9598 14.0203 23.9941 13.8992 23.9993 13.7771Z" fill="white"/>
</svg>
