<svg width="16" height="16" viewBox="0 0 16 16" fill="none" xmlns="http://www.w3.org/2000/svg">
<path d="M14.0026 13.5H7.33594C7.0626 13.5 6.83594 13.2733 6.83594 13C6.83594 12.7267 7.0626 12.5 7.33594 12.5H14.0026C14.2759 12.5 14.5026 12.7267 14.5026 13C14.5026 13.2733 14.2759 13.5 14.0026 13.5Z" fill="#1DAA39"/>
<path d="M14.0026 8.83594H7.33594C7.0626 8.83594 6.83594 8.60927 6.83594 8.33594C6.83594 8.0626 7.0626 7.83594 7.33594 7.83594H14.0026C14.2759 7.83594 14.5026 8.0626 14.5026 8.33594C14.5026 8.60927 14.2759 8.83594 14.0026 8.83594Z" fill="#1DAA39"/>
<path d="M14.0026 4.16406H7.33594C7.0626 4.16406 6.83594 3.9374 6.83594 3.66406C6.83594 3.39073 7.0626 3.16406 7.33594 3.16406H14.0026C14.2759 3.16406 14.5026 3.39073 14.5026 3.66406C14.5026 3.9374 14.2759 4.16406 14.0026 4.16406Z" fill="#1DAA39"/>
<ellipse cx="3" cy="3.66406" rx="1" ry="1" fill="#1DAA39"/>
<ellipse cx="3" cy="8.33594" rx="1" ry="1" fill="#1DAA39"/>
<circle cx="3" cy="13" r="1" fill="#1DAA39"/>
</svg>
