<svg width="60" height="48" viewBox="0 0 60 48" fill="none" xmlns="http://www.w3.org/2000/svg">
<path fill-rule="evenodd" clip-rule="evenodd" d="M51.0242 40.9658C56.429 36.623 59.7717 30.625 59.7717 24C59.7717 10.7452 46.3913 0 29.8858 0C13.3803 0 0 10.7452 0 24C0 37.2548 13.3803 48 29.8858 48C35.5082 48 40.768 46.7532 45.2598 44.5851L52.6898 46.2163L51.0242 40.9658Z" fill="#1DAA39"/>
<path d="M11.6555 16.43L12.1695 15.6636L11.9248 15.2335L11.917 15.2199C11.5617 14.5955 11.3198 13.8714 11.2007 13.119C11.181 12.9966 11.165 12.8741 11.1525 12.7514C11.0726 11.9845 11.1194 11.2005 11.3022 10.4732C11.3643 10.2263 11.4703 9.93512 11.6026 9.63417C11.7917 9.16929 12.0341 8.72568 12.3264 8.3139C12.418 8.17972 12.5093 8.0579 12.5976 7.95377C12.6369 7.90746 12.6769 7.86162 12.7177 7.81626C13.2553 7.19765 13.9188 6.67338 14.693 6.28789C15.2076 6.03164 15.6045 5.87624 16.0471 5.78095C16.5175 5.66597 17.2212 5.61723 17.8757 5.63716C18.4142 5.64457 18.8512 5.70359 19.3031 5.83821C19.792 5.97699 20.268 6.18025 20.7209 6.44167C21.1051 6.63988 21.3259 6.78835 21.6405 7.0787C21.9874 7.36276 22.3133 7.68425 22.6124 8.0395L22.6489 8.08283L22.9471 8.3844L23.8162 8.16427C25.8039 7.66067 27.7142 7.43699 30.0182 7.43815C30.0341 7.43815 30.05 7.43817 30.0658 7.4382C30.0749 7.43818 30.0839 7.43817 30.093 7.43816L30.1135 7.43815C32.4174 7.43699 34.3278 7.66067 36.3155 8.16427L37.1845 8.3844L37.4828 8.08283L37.5193 8.0395C37.8184 7.68425 38.1443 7.36276 38.4911 7.0787C38.8058 6.78835 39.0265 6.63988 39.4108 6.44167C39.8637 6.18025 40.3396 5.97699 40.8286 5.83822C41.2805 5.70359 41.7175 5.64457 42.256 5.63716C42.9105 5.61723 43.6142 5.66597 44.0845 5.78095C44.5271 5.87624 44.924 6.03164 45.4387 6.28789C46.2128 6.67337 46.8763 7.19762 47.414 7.81622C47.4547 7.86159 47.4948 7.90744 47.5341 7.95377C47.6224 8.05792 47.7137 8.17976 47.8053 8.31396C48.0976 8.72572 48.34 9.16932 48.529 9.63417C48.6613 9.93512 48.7674 10.2263 48.8294 10.4732C49.0122 11.2003 49.059 11.984 48.9792 12.7507C48.9667 12.8738 48.9506 12.9969 48.9308 13.1197C48.8117 13.8719 48.5699 14.5957 48.2147 15.2199L48.2069 15.2335L47.9621 15.6636L48.4762 16.43C52.3749 22.2431 51.6565 29.4237 46.9098 34.8776C46.7184 35.0975 46.6084 35.2187 46.4064 35.429C45.7124 36.1513 45.3222 36.4875 44.5674 37.0956C44.1578 37.4255 43.8904 37.617 43.4925 37.907C42.7063 38.48 41.349 39.1764 41.349 39.1764C41.349 39.1764 40.9239 39.3603 40.5898 39.5241C39.186 40.2125 37.6216 40.7291 35.641 41.2412C34.7702 41.4663 34.2811 41.6015 33.3921 41.738C32.7045 41.8436 32.3142 41.8744 31.62 41.9195C30.4087 41.9982 29.1621 41.9683 28.5116 41.9195C27.9889 41.9043 27.4272 41.8436 26.7396 41.738C25.8506 41.6015 25.3614 41.4663 24.4906 41.2412C22.5101 40.7291 20.9457 40.2125 19.5419 39.5241C19.2077 39.3603 18.8631 39.2263 18.776 39.2263C18.6887 39.2263 17.1825 39.5095 15.4288 39.8555C13.6751 40.2015 12.2198 40.4641 12.1948 40.439C12.1699 40.414 12.5041 39.2764 12.9374 37.9112L13.7253 35.429L13.2219 34.8776C8.37924 29.5741 7.75678 22.2431 11.6555 16.43Z" fill="#202020"/>
<path d="M32.9273 9.48718C38.6299 10.1848 43.5851 12.8001 46.5726 16.6888C48.4801 19.1717 49.4295 21.8529 49.4295 24.7566C49.4295 29.3478 46.9304 33.6408 42.552 36.5708C39.3386 38.7211 35.6529 39.911 31.4592 40.1523C27.4074 40.3854 23.373 39.5624 19.7805 37.77L19.1661 37.4634L17.2983 37.8717C16.271 38.0962 15.4116 38.261 15.3886 38.2378C15.3656 38.2146 15.5333 37.6063 15.7616 36.8858C15.9897 36.1655 16.1731 35.5225 16.1691 35.457C16.1651 35.3915 15.9428 35.1421 15.6752 34.9027C13.202 32.6904 11.5494 29.754 11.0544 26.6917C10.9006 25.7398 10.9007 23.7732 11.0547 22.819C11.5116 19.9868 12.8185 17.5194 15.0705 15.237C16.1706 14.1221 17.1856 13.3105 18.4408 12.5418C22.6286 9.97722 27.8804 8.86984 32.9273 9.48718Z" fill="white"/>
<path fill-rule="evenodd" clip-rule="evenodd" d="M22.2907 18.0722C20.0777 18.5358 17.8273 20.5169 16.9586 22.7661C16.4024 24.2061 16.5388 26.075 17.3044 27.5078C17.3151 27.5279 17.3256 27.5475 17.3357 27.5665C17.3364 27.5678 17.337 27.569 17.3377 27.5702C17.3384 27.5716 17.3392 27.5729 17.3399 27.5743C17.5564 27.9801 17.6472 28.1502 17.7811 28.1969C17.8777 28.2306 17.9968 28.1999 18.2018 28.1471C18.2106 28.1448 18.2194 28.1426 18.2285 28.1402C18.235 28.1386 18.2417 28.1369 18.2484 28.1351C18.9122 27.9652 19.9052 27.8372 20.5561 27.8378C21.6374 27.8387 23.2315 28.1751 23.9679 28.5576L24.2115 28.6841L24.6086 28.2401C25.4606 27.2871 26.3154 25.5395 26.5861 24.1965C26.7668 23.3005 26.7516 21.946 26.5514 21.1064C26.0873 19.1602 24.979 18.0437 23.4528 17.9849C23.1065 17.9715 22.5836 18.0108 22.2907 18.0722ZM25.5488 22.6611C25.4867 21.5672 25.0482 20.7528 24.3618 20.4567C24.0363 20.3163 23.2648 20.3182 22.8123 20.4605C21.4422 20.8914 20.1559 22.3636 20.0236 23.6519C19.9032 24.825 20.5803 26.1113 21.5463 26.5444C22.0163 26.755 22.7487 26.7659 23.3288 26.5708C24.1893 26.2813 24.9957 25.2959 25.3762 24.0688C25.5593 23.4785 25.5838 23.2785 25.5488 22.6611Z" fill="#202020"/>
<path fill-rule="evenodd" clip-rule="evenodd" d="M35.9395 18.0838C33.6944 18.8086 32.739 22.1978 33.8819 25.3831C34.2848 26.5062 35.0257 27.7724 35.6178 28.3501L35.9325 28.657L36.4326 28.4539C37.5102 28.0163 38.2802 27.884 39.6974 27.8928C40.7384 27.8994 41.1428 27.9362 41.6633 28.0719L42.3186 28.2426L42.4962 28.0265C43.2949 27.0543 43.7096 24.9758 43.3916 23.5384C42.8736 21.1978 40.7411 18.9618 38.3048 18.2047C37.544 17.9683 36.4678 17.9133 35.9395 18.0838ZM39.0582 21.6012C38.5645 21.0758 38.0358 20.7263 37.4049 20.508C36.3914 20.1575 35.5019 20.3703 35.0614 21.0688C34.3661 22.1712 34.3898 23.5584 35.1283 24.9766C36.0689 26.7827 38.0997 27.2939 39.2828 26.0223C39.729 25.5427 39.9506 25.0637 40.068 24.3245C40.2176 23.3832 39.8818 22.4777 39.0582 21.6012Z" fill="#202020"/>
<path fill-rule="evenodd" clip-rule="evenodd" d="M28.948 28.2885C28.2309 28.4911 27.5627 29.0099 27.3747 29.5103C27.3268 29.6378 27.2875 29.8928 27.2875 30.0771C27.2875 30.3539 27.3378 30.4597 27.5778 30.6872C27.8867 30.9801 28.5635 31.2327 29.3149 31.3353L29.7449 31.394V32.9972V34.6005L29.3558 34.5437C28.4655 34.4137 27.1945 33.7623 26.3631 33.0098C25.9835 32.6662 25.9737 32.646 26.0556 32.3687C26.1408 32.0798 26.1073 31.8353 25.957 31.6463C25.8971 31.571 25.8152 31.671 25.6503 32.0217C25.4468 32.4543 24.8429 33.108 24.6467 33.108C24.6072 33.108 24.5975 33.145 24.6254 33.1903C24.692 33.2986 25.207 33.2961 25.4109 33.1864C25.5457 33.1139 25.6462 33.1646 26.0403 33.5034C27.4347 34.7024 28.631 35.1986 30.1135 35.1928C31.4548 35.1875 32.5942 34.7215 33.9436 33.6262C34.5359 33.1454 34.6209 33.1012 34.7981 33.1825C35.0384 33.2925 35.5336 33.301 35.5981 33.1963C35.6239 33.1543 35.5742 33.0972 35.4876 33.0696C35.2401 32.9906 34.6684 32.3182 34.4852 31.8908L34.3188 31.5021L34.1947 31.7386C34.0835 31.9506 34.0783 32.1739 34.1765 32.5249C34.2248 32.6974 32.9837 33.6736 32.2567 34.035C31.6896 34.3169 30.8176 34.5862 30.4617 34.5891C30.33 34.5903 30.3183 34.4594 30.3183 32.9844V31.3785L30.5026 31.3771C30.604 31.3763 30.9291 31.3241 31.225 31.261C32.6363 30.9602 33.1243 30.3596 32.7023 29.4432C32.4996 29.0028 32.1801 28.7164 31.5884 28.4443C31.1712 28.2525 30.968 28.2147 30.2368 28.193C29.6578 28.1758 29.2363 28.207 28.948 28.2885ZM28.9489 30.2315C29.5324 30.0379 29.9213 29.341 29.6059 29.0541C29.3594 28.8297 28.8539 28.7975 28.4614 28.9812C28.082 29.1586 27.9428 29.3551 27.9428 29.7132C27.9428 30.1448 28.4394 30.4006 28.9489 30.2315Z" fill="#202020"/>
<path fill-rule="evenodd" clip-rule="evenodd" d="M22.5663 21.8189C21.8279 22.1561 21.1441 23.0631 21.1441 23.7055C21.1441 24.4372 21.6384 25.2122 22.2026 25.3649C23.2782 25.6561 24.3107 24.6648 24.4028 23.2523C24.4683 22.2477 24.0453 21.6585 23.2612 21.6624C23.0654 21.6634 22.7527 21.7338 22.5663 21.8189ZM23.9243 23.2302C24.1645 22.9887 24.1433 22.6183 23.8771 22.4078C23.7584 22.314 23.6201 22.2377 23.5699 22.2384C23.3602 22.2412 23.0664 22.4617 22.9931 22.6714C22.8162 23.177 23.5432 23.6134 23.9243 23.2302Z" fill="#202020"/>
<path fill-rule="evenodd" clip-rule="evenodd" d="M35.8654 21.807C35.2816 22.1706 35.1319 23.2924 35.5498 24.1725C35.9063 24.9233 36.2885 25.265 36.9266 25.403C37.8184 25.5961 38.7203 24.5623 38.5569 23.5346C38.3586 22.2874 36.7508 21.2554 35.8654 21.807ZM36.2101 23.3901C36.6762 23.3901 36.931 22.7609 36.5997 22.4279C36.4036 22.2307 36.0956 22.2203 35.8644 22.4031C35.4452 22.7347 35.6748 23.3901 36.2101 23.3901Z" fill="#202020"/>
<path fill-rule="evenodd" clip-rule="evenodd" d="M16.9586 22.7661C17.8273 20.5169 20.0777 18.5358 22.2907 18.0722C22.5836 18.0108 23.1065 17.9715 23.4528 17.9849C24.979 18.0437 26.0873 19.1602 26.5514 21.1064C26.7516 21.946 26.7668 23.3005 26.5861 24.1965C26.3154 25.5395 25.4606 27.2871 24.6086 28.2401L24.2115 28.6841L23.9679 28.5576C23.2315 28.1751 21.6374 27.8387 20.5561 27.8378C19.9052 27.8372 18.9122 27.9652 18.2484 28.1351L18.2285 28.1402L18.2018 28.1471C17.9968 28.1999 17.8777 28.2306 17.7811 28.1969C17.6472 28.1502 17.5564 27.9801 17.3399 27.5743L17.3377 27.5702L17.3357 27.5665C17.3256 27.5475 17.3151 27.5279 17.3044 27.5078C16.5388 26.075 16.4024 24.2061 16.9586 22.7661ZM33.8819 25.3831C32.739 22.1978 33.6944 18.8086 35.9395 18.0838C36.4678 17.9133 37.544 17.9683 38.3048 18.2047C40.7411 18.9618 42.8736 21.1978 43.3916 23.5384C43.7096 24.9758 43.2949 27.0543 42.4962 28.0265L42.3186 28.2426L41.6633 28.0719C41.1428 27.9362 40.7384 27.8994 39.6974 27.8928C38.2802 27.884 37.5102 28.0163 36.4326 28.4539L35.9325 28.657L35.6178 28.3501C35.0257 27.7724 34.2848 26.5062 33.8819 25.3831ZM27.3747 29.5103C27.5627 29.0099 28.2309 28.4911 28.948 28.2885C29.2363 28.207 29.6578 28.1758 30.2368 28.193C30.968 28.2147 31.1712 28.2525 31.5884 28.4443C32.1801 28.7164 32.4996 29.0028 32.7023 29.4432C33.1243 30.3596 32.6363 30.9602 31.225 31.261C30.9291 31.3241 30.604 31.3763 30.5026 31.3771L30.3183 31.3785V32.9844C30.3183 34.4594 30.33 34.5903 30.4617 34.5891C30.8176 34.5862 31.6896 34.3169 32.2567 34.035C32.9837 33.6736 34.2248 32.6974 34.1765 32.5249C34.0783 32.1739 34.0835 31.9506 34.1947 31.7386L34.3188 31.5021L34.4852 31.8908C34.6684 32.3182 35.2401 32.9906 35.4876 33.0696C35.5742 33.0972 35.6239 33.1543 35.5981 33.1963C35.5336 33.301 35.0384 33.2925 34.7981 33.1825C34.6209 33.1012 34.5359 33.1454 33.9436 33.6262C32.5942 34.7215 31.4548 35.1875 30.1135 35.1928C28.631 35.1986 27.4347 34.7024 26.0403 33.5034C25.6462 33.1646 25.5457 33.1139 25.4109 33.1864C25.207 33.2961 24.692 33.2986 24.6254 33.1903C24.5975 33.145 24.6072 33.108 24.6467 33.108C24.8429 33.108 25.4468 32.4543 25.6503 32.0217C25.8152 31.671 25.8971 31.571 25.957 31.6463C26.1073 31.8353 26.1408 32.0798 26.0556 32.3687C25.9737 32.646 25.9835 32.6662 26.3631 33.0098C27.1945 33.7623 28.4655 34.4137 29.3558 34.5437L29.7449 34.6005V32.9972V31.394L29.3149 31.3353C28.5635 31.2327 27.8867 30.9801 27.5778 30.6872C27.3378 30.4597 27.2875 30.3539 27.2875 30.0771C27.2875 29.8928 27.3268 29.6378 27.3747 29.5103ZM39.0582 21.6012C38.5645 21.0758 38.0358 20.7263 37.4049 20.508C36.3914 20.1575 35.5019 20.3703 35.0614 21.0688C34.3661 22.1712 34.3898 23.5584 35.1283 24.9766C36.0689 26.7827 38.0997 27.2939 39.2828 26.0223C39.729 25.5427 39.9506 25.0637 40.068 24.3245C40.2176 23.3832 39.8818 22.4777 39.0582 21.6012ZM25.5488 22.6611C25.4867 21.5672 25.0482 20.7528 24.3618 20.4567C24.0363 20.3163 23.2648 20.3182 22.8123 20.4605C21.4422 20.8914 20.1559 22.3636 20.0236 23.6519C19.9032 24.825 20.5803 26.1113 21.5463 26.5444C22.0163 26.755 22.7487 26.7659 23.3288 26.5708C24.1893 26.2813 24.9957 25.2959 25.3762 24.0688C25.5593 23.4785 25.5838 23.2785 25.5488 22.6611ZM22.5663 21.8189C21.8279 22.1561 21.1441 23.0631 21.1441 23.7055C21.1441 24.4372 21.6384 25.2122 22.2026 25.3649C23.2782 25.6561 24.3107 24.6648 24.4028 23.2523C24.4683 22.2477 24.0453 21.6585 23.2612 21.6624C23.0654 21.6634 22.7527 21.7338 22.5663 21.8189ZM23.8771 22.4078C24.1433 22.6183 24.1645 22.9887 23.9243 23.2302C23.5432 23.6134 22.8162 23.177 22.9931 22.6714C23.0664 22.4617 23.3602 22.2412 23.5699 22.2384C23.6201 22.2377 23.7584 22.314 23.8771 22.4078ZM28.9489 30.2315C29.5324 30.0379 29.9213 29.341 29.6059 29.0541C29.3594 28.8297 28.8539 28.7975 28.4614 28.9812C28.082 29.1586 27.9428 29.3551 27.9428 29.7132C27.9428 30.1448 28.4394 30.4006 28.9489 30.2315Z" fill="#202020"/>
</svg>
