<svg width="149" height="48" viewBox="0 0 149 48" fill="none" xmlns="http://www.w3.org/2000/svg">
<rect y="33" width="76" height="15" rx="7.5" fill="#98D8A5" fill-opacity="0.3"/>
<path d="M8.76563 37.9961V39.0898H5.21875V37.9961H8.76563ZM6.10547 43.9961V37.4297C6.10547 37.026 6.1888 36.6901 6.35547 36.4219C6.52474 36.1536 6.7513 35.9531 7.03516 35.8203C7.31901 35.6875 7.63411 35.6211 7.98047 35.6211C8.22526 35.6211 8.44271 35.6406 8.63281 35.6797C8.82292 35.7188 8.96354 35.7539 9.05469 35.7852L8.77344 36.8789C8.71354 36.8607 8.63802 36.8424 8.54688 36.8242C8.45573 36.8034 8.35417 36.793 8.24219 36.793C7.97917 36.793 7.79297 36.8568 7.68359 36.9844C7.57682 37.1094 7.52344 37.2891 7.52344 37.5234V43.9961H6.10547Z" fill="#E2E2E2"/>
<path d="M12.2646 44.1133C11.6787 44.1133 11.1709 43.9844 10.7412 43.7266C10.3115 43.4688 9.97819 43.1081 9.74121 42.6445C9.50684 42.181 9.38965 41.6393 9.38965 41.0195C9.38965 40.3997 9.50684 39.8568 9.74121 39.3906C9.97819 38.9245 10.3115 38.5625 10.7412 38.3047C11.1709 38.0469 11.6787 37.918 12.2646 37.918C12.8506 37.918 13.3584 38.0469 13.7881 38.3047C14.2178 38.5625 14.5498 38.9245 14.7842 39.3906C15.0212 39.8568 15.1396 40.3997 15.1396 41.0195C15.1396 41.6393 15.0212 42.181 14.7842 42.6445C14.5498 43.1081 14.2178 43.4688 13.7881 43.7266C13.3584 43.9844 12.8506 44.1133 12.2646 44.1133ZM12.2725 42.9805C12.5902 42.9805 12.8558 42.8932 13.0693 42.7188C13.2829 42.5417 13.4417 42.3047 13.5459 42.0078C13.6527 41.7109 13.7061 41.3802 13.7061 41.0156C13.7061 40.6484 13.6527 40.3164 13.5459 40.0195C13.4417 39.7201 13.2829 39.4818 13.0693 39.3047C12.8558 39.1276 12.5902 39.0391 12.2725 39.0391C11.9469 39.0391 11.6761 39.1276 11.46 39.3047C11.2464 39.4818 11.0863 39.7201 10.9795 40.0195C10.8753 40.3164 10.8232 40.6484 10.8232 41.0156C10.8232 41.3802 10.8753 41.7109 10.9795 42.0078C11.0863 42.3047 11.2464 42.5417 11.46 42.7188C11.6761 42.8932 11.9469 42.9805 12.2725 42.9805Z" fill="#E2E2E2"/>
<path d="M16.3398 43.9961V37.9961H17.7109V38.9961H17.7734C17.8828 38.6497 18.0703 38.3828 18.3359 38.1953C18.6042 38.0052 18.9102 37.9102 19.2539 37.9102C19.332 37.9102 19.4193 37.9141 19.5156 37.9219C19.6146 37.9271 19.6966 37.9362 19.7617 37.9492V39.25C19.7018 39.2292 19.6068 39.2109 19.4766 39.1953C19.349 39.1771 19.2253 39.168 19.1055 39.168C18.8477 39.168 18.6159 39.224 18.4102 39.3359C18.207 39.4453 18.0469 39.5977 17.9297 39.793C17.8125 39.9883 17.7539 40.2135 17.7539 40.4688V43.9961H16.3398Z" fill="#E2E2E2"/>
<path d="M23.4922 43.9961V35.9961H24.9062V38.9883H24.9648C25.0378 38.8424 25.1406 38.6875 25.2734 38.5234C25.4062 38.3568 25.5859 38.2148 25.8125 38.0977C26.0391 37.9779 26.3281 37.918 26.6797 37.918C27.1432 37.918 27.5612 38.0365 27.9336 38.2734C28.3086 38.5078 28.6055 38.8555 28.8242 39.3164C29.0456 39.7747 29.1562 40.3372 29.1562 41.0039C29.1562 41.6628 29.0482 42.2227 28.832 42.6836C28.6159 43.1445 28.3216 43.4961 27.9492 43.7383C27.5768 43.9805 27.1549 44.1016 26.6836 44.1016C26.3398 44.1016 26.0547 44.0443 25.8281 43.9297C25.6016 43.8151 25.4193 43.6771 25.2812 43.5156C25.1458 43.3516 25.0404 43.1966 24.9648 43.0508H24.8828V43.9961H23.4922ZM24.8789 40.9961C24.8789 41.3841 24.9336 41.724 25.043 42.0156C25.1549 42.3073 25.3151 42.5352 25.5234 42.6992C25.7344 42.8607 25.9896 42.9414 26.2891 42.9414C26.6016 42.9414 26.8633 42.8581 27.0742 42.6914C27.2852 42.5221 27.444 42.2917 27.5508 42C27.6602 41.7057 27.7148 41.3711 27.7148 40.9961C27.7148 40.6237 27.6615 40.293 27.5547 40.0039C27.4479 39.7148 27.2891 39.4883 27.0781 39.3242C26.8672 39.1602 26.6042 39.0781 26.2891 39.0781C25.987 39.0781 25.7305 39.1576 25.5195 39.3164C25.3086 39.4753 25.1484 39.6979 25.0391 39.9844C24.9323 40.2708 24.8789 40.6081 24.8789 40.9961Z" fill="#E2E2E2"/>
<path d="M34.1826 41.4727V37.9961H35.5967V43.9961H34.2256V42.9297H34.1631C34.0277 43.2656 33.805 43.5404 33.4951 43.7539C33.1878 43.9674 32.8089 44.0742 32.3584 44.0742C31.9652 44.0742 31.6175 43.987 31.3154 43.8125C31.016 43.6354 30.7816 43.3789 30.6123 43.043C30.443 42.7044 30.3584 42.2956 30.3584 41.8164V37.9961H31.7725V41.5977C31.7725 41.9779 31.8766 42.2799 32.085 42.5039C32.2933 42.7279 32.5667 42.8398 32.9053 42.8398C33.1136 42.8398 33.3154 42.7891 33.5107 42.6875C33.7061 42.5859 33.8662 42.4349 33.9912 42.2344C34.1188 42.0312 34.1826 41.7773 34.1826 41.4727Z" fill="#E2E2E2"/>
<path d="M41.793 39.582L40.5039 39.7227C40.4674 39.5924 40.4036 39.4701 40.3125 39.3555C40.224 39.2409 40.1042 39.1484 39.9531 39.0781C39.8021 39.0078 39.6172 38.9727 39.3984 38.9727C39.1042 38.9727 38.8568 39.0365 38.6562 39.1641C38.4583 39.2917 38.3607 39.457 38.3633 39.6602C38.3607 39.8346 38.4245 39.9766 38.5547 40.0859C38.6875 40.1953 38.9062 40.2852 39.2109 40.3555L40.2344 40.5742C40.8021 40.6966 41.224 40.8906 41.5 41.1562C41.7786 41.4219 41.9193 41.7695 41.9219 42.1992C41.9193 42.5768 41.8086 42.9102 41.5898 43.1992C41.3737 43.4857 41.0729 43.7096 40.6875 43.8711C40.3021 44.0326 39.8594 44.1133 39.3594 44.1133C38.625 44.1133 38.0339 43.9596 37.5859 43.6523C37.138 43.3424 36.8711 42.9115 36.7852 42.3594L38.1641 42.2266C38.2266 42.4974 38.3594 42.7018 38.5625 42.8398C38.7656 42.9779 39.0299 43.0469 39.3555 43.0469C39.6914 43.0469 39.9609 42.9779 40.1641 42.8398C40.3698 42.7018 40.4727 42.5312 40.4727 42.3281C40.4727 42.1562 40.4062 42.0143 40.2734 41.9023C40.1432 41.7904 39.9401 41.7044 39.6641 41.6445L38.6406 41.4297C38.0651 41.3099 37.6393 41.1081 37.3633 40.8242C37.0872 40.5378 36.9505 40.1758 36.9531 39.7383C36.9505 39.3685 37.0508 39.0482 37.2539 38.7773C37.4596 38.5039 37.7448 38.293 38.1094 38.1445C38.4766 37.9935 38.8997 37.918 39.3789 37.918C40.082 37.918 40.6354 38.0677 41.0391 38.3672C41.4453 38.6667 41.6966 39.0716 41.793 39.582Z" fill="#E2E2E2"/>
<path d="M43.0879 43.9961V37.9961H44.502V43.9961H43.0879ZM43.7988 37.1445C43.5749 37.1445 43.3822 37.0703 43.2207 36.9219C43.0592 36.7708 42.9785 36.5898 42.9785 36.3789C42.9785 36.1654 43.0592 35.9844 43.2207 35.8359C43.3822 35.6849 43.5749 35.6094 43.7988 35.6094C44.0254 35.6094 44.2181 35.6849 44.377 35.8359C44.5384 35.9844 44.6191 36.1654 44.6191 36.3789C44.6191 36.5898 44.5384 36.7708 44.377 36.9219C44.2181 37.0703 44.0254 37.1445 43.7988 37.1445Z" fill="#E2E2E2"/>
<path d="M47.3701 40.4805V43.9961H45.9561V37.9961H47.3076V39.0156H47.3779C47.5159 38.6797 47.736 38.4128 48.0381 38.2148C48.3428 38.0169 48.7191 37.918 49.167 37.918C49.5811 37.918 49.9417 38.0065 50.249 38.1836C50.5589 38.3607 50.7985 38.6172 50.9678 38.9531C51.1396 39.2891 51.2243 39.6966 51.2217 40.1758V43.9961H49.8076V40.3945C49.8076 39.9935 49.7034 39.6797 49.4951 39.4531C49.2894 39.2266 49.0042 39.1133 48.6396 39.1133C48.3923 39.1133 48.1722 39.168 47.9795 39.2773C47.7894 39.3841 47.6396 39.5391 47.5303 39.7422C47.4235 39.9453 47.3701 40.1914 47.3701 40.4805Z" fill="#E2E2E2"/>
<path d="M55.3154 44.1133C54.7139 44.1133 54.1943 43.9883 53.7568 43.7383C53.3219 43.4857 52.9873 43.1289 52.7529 42.668C52.5186 42.2044 52.4014 41.6589 52.4014 41.0312C52.4014 40.4141 52.5186 39.8724 52.7529 39.4063C52.9899 38.9375 53.3206 38.5729 53.7451 38.3125C54.1696 38.0495 54.6683 37.918 55.2412 37.918C55.611 37.918 55.96 37.9779 56.2881 38.0977C56.6188 38.2148 56.9105 38.3971 57.1631 38.6445C57.4183 38.8919 57.6188 39.207 57.7646 39.5898C57.9105 39.9701 57.9834 40.4232 57.9834 40.9492V41.3828H53.0654V40.4297H56.6279C56.6253 40.1589 56.5667 39.918 56.4521 39.707C56.3376 39.4935 56.1774 39.3255 55.9717 39.2031C55.7686 39.0807 55.5316 39.0195 55.2607 39.0195C54.9717 39.0195 54.7178 39.0898 54.499 39.2305C54.2803 39.3685 54.1097 39.5508 53.9873 39.7773C53.8675 40.0013 53.8063 40.2474 53.8037 40.5156V41.3477C53.8037 41.6966 53.8675 41.9961 53.9951 42.2461C54.1227 42.4935 54.3011 42.6836 54.5303 42.8164C54.7594 42.9466 55.0277 43.0117 55.335 43.0117C55.5407 43.0117 55.7269 42.9831 55.8936 42.9258C56.0602 42.8659 56.2048 42.7786 56.3271 42.6641C56.4495 42.5495 56.542 42.4076 56.6045 42.2383L57.9248 42.3867C57.8415 42.7357 57.6826 43.0404 57.4482 43.3008C57.2165 43.5586 56.9196 43.7591 56.5576 43.9023C56.1956 44.043 55.7816 44.1133 55.3154 44.1133Z" fill="#E2E2E2"/>
<path d="M63.9219 39.582L62.6328 39.7227C62.5964 39.5924 62.5326 39.4701 62.4414 39.3555C62.3529 39.2409 62.2331 39.1484 62.082 39.0781C61.931 39.0078 61.7461 38.9727 61.5273 38.9727C61.2331 38.9727 60.9857 39.0365 60.7852 39.1641C60.5872 39.2917 60.4896 39.457 60.4922 39.6602C60.4896 39.8346 60.5534 39.9766 60.6836 40.0859C60.8164 40.1953 61.0352 40.2852 61.3398 40.3555L62.3633 40.5742C62.931 40.6966 63.3529 40.8906 63.6289 41.1562C63.9076 41.4219 64.0482 41.7695 64.0508 42.1992C64.0482 42.5768 63.9375 42.9102 63.7188 43.1992C63.5026 43.4857 63.2018 43.7096 62.8164 43.8711C62.431 44.0326 61.9883 44.1133 61.4883 44.1133C60.7539 44.1133 60.1628 43.9596 59.7148 43.6523C59.2669 43.3424 59 42.9115 58.9141 42.3594L60.293 42.2266C60.3555 42.4974 60.4883 42.7018 60.6914 42.8398C60.8945 42.9779 61.1589 43.0469 61.4844 43.0469C61.8203 43.0469 62.0898 42.9779 62.293 42.8398C62.4987 42.7018 62.6016 42.5312 62.6016 42.3281C62.6016 42.1562 62.5352 42.0143 62.4023 41.9023C62.2721 41.7904 62.069 41.7044 61.793 41.6445L60.7695 41.4297C60.194 41.3099 59.7682 41.1081 59.4922 40.8242C59.2161 40.5378 59.0794 40.1758 59.082 39.7383C59.0794 39.3685 59.1797 39.0482 59.3828 38.7773C59.5885 38.5039 59.8737 38.293 60.2383 38.1445C60.6055 37.9935 61.0286 37.918 61.5078 37.918C62.2109 37.918 62.7643 38.0677 63.168 38.3672C63.5742 38.6667 63.8255 39.0716 63.9219 39.582Z" fill="#E2E2E2"/>
<path d="M69.959 39.582L68.6699 39.7227C68.6335 39.5924 68.5697 39.4701 68.4785 39.3555C68.39 39.2409 68.2702 39.1484 68.1191 39.0781C67.9681 39.0078 67.7832 38.9727 67.5645 38.9727C67.2702 38.9727 67.0228 39.0365 66.8223 39.1641C66.6243 39.2917 66.5267 39.457 66.5293 39.6602C66.5267 39.8346 66.5905 39.9766 66.7207 40.0859C66.8535 40.1953 67.0723 40.2852 67.377 40.3555L68.4004 40.5742C68.9681 40.6966 69.39 40.8906 69.666 41.1562C69.9447 41.4219 70.0853 41.7695 70.0879 42.1992C70.0853 42.5768 69.9746 42.9102 69.7559 43.1992C69.5397 43.4857 69.2389 43.7096 68.8535 43.8711C68.4681 44.0326 68.0254 44.1133 67.5254 44.1133C66.791 44.1133 66.1999 43.9596 65.752 43.6523C65.304 43.3424 65.0371 42.9115 64.9512 42.3594L66.3301 42.2266C66.3926 42.4974 66.5254 42.7018 66.7285 42.8398C66.9316 42.9779 67.196 43.0469 67.5215 43.0469C67.8574 43.0469 68.127 42.9779 68.3301 42.8398C68.5358 42.7018 68.6387 42.5312 68.6387 42.3281C68.6387 42.1562 68.5723 42.0143 68.4395 41.9023C68.3092 41.7904 68.1061 41.7044 67.8301 41.6445L66.8066 41.4297C66.2311 41.3099 65.8053 41.1081 65.5293 40.8242C65.2533 40.5378 65.1165 40.1758 65.1191 39.7383C65.1165 39.3685 65.2168 39.0482 65.4199 38.7773C65.6257 38.5039 65.9108 38.293 66.2754 38.1445C66.6426 37.9935 67.0658 37.918 67.5449 37.918C68.248 37.918 68.8014 38.0677 69.2051 38.3672C69.6113 38.6667 69.8626 39.0716 69.959 39.582Z" fill="#E2E2E2"/>
<path d="M6.63991 21.4553L4.30895 28.0007H2.6044L0.273438 21.4553H1.91832L3.42259 26.3175H3.49077L4.99929 21.4553H6.63991Z" fill="#1DAA39"/>
<path d="M7.70739 28.0007V21.4553H9.25V28.0007H7.70739ZM8.48295 20.5263C8.23864 20.5263 8.02841 20.4453 7.85227 20.2834C7.67614 20.1186 7.58807 19.9212 7.58807 19.6911C7.58807 19.4581 7.67614 19.2607 7.85227 19.0987C8.02841 18.9339 8.23864 18.8516 8.48295 18.8516C8.73011 18.8516 8.94034 18.9339 9.11364 19.0987C9.28977 19.2607 9.37784 19.4581 9.37784 19.6911C9.37784 19.9212 9.28977 20.1186 9.11364 20.2834C8.94034 20.4453 8.73011 20.5263 8.48295 20.5263Z" fill="#1DAA39"/>
<path d="M13.2653 28.1158C12.7511 28.1158 12.2908 27.9837 11.8846 27.7195C11.4783 27.4553 11.1573 27.0717 10.9215 26.5689C10.6857 26.0661 10.5678 25.4553 10.5678 24.7365C10.5678 24.0092 10.6871 23.3956 10.9258 22.8956C11.1673 22.3928 11.4925 22.0135 11.9016 21.7578C12.3107 21.4993 12.7667 21.37 13.2695 21.37C13.6531 21.37 13.9684 21.4354 14.2156 21.5661C14.4627 21.6939 14.6587 21.8487 14.8036 22.0305C14.9485 22.2095 15.0607 22.3786 15.1403 22.5376H15.2042V19.2734H16.7511V28.0007H15.234V26.9695H15.1403C15.0607 27.1286 14.9457 27.2976 14.7951 27.4766C14.6445 27.6527 14.4457 27.8033 14.1985 27.9283C13.9514 28.0533 13.6403 28.1158 13.2653 28.1158ZM13.6957 26.8501C14.0224 26.8501 14.3008 26.7621 14.5309 26.5859C14.761 26.407 14.9357 26.1584 15.055 25.8402C15.1744 25.522 15.234 25.1513 15.234 24.728C15.234 24.3047 15.1744 23.9368 15.055 23.6243C14.9386 23.3118 14.7653 23.0689 14.5352 22.8956C14.3079 22.7223 14.0281 22.6357 13.6957 22.6357C13.3519 22.6357 13.065 22.7251 12.8349 22.9041C12.6048 23.0831 12.4315 23.3303 12.315 23.6456C12.1985 23.9609 12.1403 24.3217 12.1403 24.728C12.1403 25.1371 12.1985 25.5021 12.315 25.8232C12.4343 26.1413 12.609 26.3928 12.8391 26.5774C13.0721 26.7592 13.3576 26.8501 13.6957 26.8501Z" fill="#1DAA39"/>
<path d="M21.2926 28.1286C20.6364 28.1286 20.0696 27.9922 19.5923 27.7195C19.1179 27.4439 18.7528 27.0547 18.4972 26.5518C18.2415 26.0462 18.1136 25.451 18.1136 24.7663C18.1136 24.093 18.2415 23.5021 18.4972 22.9936C18.7557 22.4822 19.1165 22.0845 19.5795 21.8004C20.0426 21.5135 20.5866 21.37 21.2116 21.37C21.6151 21.37 21.9957 21.4354 22.3537 21.5661C22.7145 21.6939 23.0327 21.8928 23.3082 22.1626C23.5866 22.4325 23.8054 22.7763 23.9645 23.1939C24.1236 23.6087 24.2031 24.103 24.2031 24.6768V25.1499H18.8381V24.1101H22.7244C22.7216 23.8146 22.6577 23.5518 22.5327 23.3217C22.4077 23.0888 22.233 22.9055 22.0085 22.772C21.7869 22.6385 21.5284 22.5717 21.233 22.5717C20.9176 22.5717 20.6406 22.6484 20.402 22.8018C20.1634 22.9524 19.9773 23.1513 19.8438 23.3984C19.7131 23.6428 19.6463 23.9112 19.6435 24.2038V25.1115C19.6435 25.4922 19.7131 25.8189 19.8523 26.0916C19.9915 26.3615 20.1861 26.5689 20.4361 26.7138C20.6861 26.8558 20.9787 26.9268 21.3139 26.9268C21.5384 26.9268 21.7415 26.8956 21.9233 26.8331C22.1051 26.7678 22.2628 26.6726 22.3963 26.5476C22.5298 26.4226 22.6307 26.2678 22.6989 26.0831L24.1392 26.245C24.0483 26.6257 23.875 26.9581 23.6193 27.2422C23.3665 27.5234 23.0426 27.7422 22.6477 27.8984C22.2528 28.0518 21.8011 28.1286 21.2926 28.1286Z" fill="#1DAA39"/>
<path d="M28.3633 28.1286C27.7241 28.1286 27.1701 27.9879 26.7013 27.7067C26.2326 27.4254 25.869 27.032 25.6104 26.5263C25.3548 26.0206 25.2269 25.4297 25.2269 24.7536C25.2269 24.0774 25.3548 23.4851 25.6104 22.9766C25.869 22.468 26.2326 22.0732 26.7013 21.7919C27.1701 21.5107 27.7241 21.37 28.3633 21.37C29.0025 21.37 29.5565 21.5107 30.0252 21.7919C30.494 22.0732 30.8562 22.468 31.1119 22.9766C31.3704 23.4851 31.4996 24.0774 31.4996 24.7536C31.4996 25.4297 31.3704 26.0206 31.1119 26.5263C30.8562 27.032 30.494 27.4254 30.0252 27.7067C29.5565 27.9879 29.0025 28.1286 28.3633 28.1286ZM28.3718 26.8928C28.7184 26.8928 29.0082 26.7976 29.2411 26.6072C29.4741 26.4141 29.6474 26.1555 29.761 25.8317C29.8775 25.5078 29.9357 25.147 29.9357 24.7493C29.9357 24.3487 29.8775 23.9865 29.761 23.6626C29.6474 23.3359 29.4741 23.076 29.2411 22.8828C29.0082 22.6896 28.7184 22.593 28.3718 22.593C28.0167 22.593 27.7212 22.6896 27.4854 22.8828C27.2525 23.076 27.0778 23.3359 26.9613 23.6626C26.8477 23.9865 26.7908 24.3487 26.7908 24.7493C26.7908 25.147 26.8477 25.5078 26.9613 25.8317C27.0778 26.1555 27.2525 26.4141 27.4854 26.6072C27.7212 26.7976 28.0167 26.8928 28.3718 26.8928Z" fill="#1DAA39"/>
<path d="M38.6406 28.1286C37.9872 28.1286 37.4261 27.9851 36.9574 27.6982C36.4915 27.4112 36.1321 27.0149 35.8793 26.5092C35.6293 26.0007 35.5043 25.4155 35.5043 24.7536C35.5043 24.0888 35.6321 23.5021 35.8878 22.9936C36.1435 22.4822 36.5043 22.0845 36.9702 21.8004C37.4389 21.5135 37.9929 21.37 38.6321 21.37C39.1634 21.37 39.6335 21.468 40.0426 21.6641C40.4545 21.8572 40.7827 22.1314 41.027 22.4865C41.2713 22.8388 41.4105 23.2507 41.4446 23.7223H39.9702C39.9105 23.407 39.7685 23.1442 39.544 22.9339C39.3224 22.7209 39.0256 22.6143 38.6534 22.6143C38.3381 22.6143 38.0611 22.6996 37.8224 22.87C37.5838 23.0376 37.3977 23.2791 37.2642 23.5945C37.1335 23.9098 37.0682 24.2876 37.0682 24.728C37.0682 25.174 37.1335 25.5575 37.2642 25.8786C37.3949 26.1967 37.5781 26.4425 37.8139 26.6158C38.0526 26.7862 38.3324 26.8714 38.6534 26.8714C38.8807 26.8714 39.0838 26.8288 39.2628 26.7436C39.4446 26.6555 39.5966 26.5291 39.7188 26.3643C39.8409 26.1996 39.9247 25.9993 39.9702 25.7635H41.4446C41.4077 26.2266 41.2713 26.6371 41.0355 26.995C40.7997 27.3501 40.4787 27.6286 40.0724 27.8303C39.6662 28.0291 39.1889 28.1286 38.6406 28.1286Z" fill="#1DAA39"/>
<path d="M44.2539 19.2734V28.0007H42.7113V19.2734H44.2539Z" fill="#1DAA39"/>
<path d="M47.7237 28.1328C47.3089 28.1328 46.9354 28.0589 46.603 27.9112C46.2734 27.7607 46.0121 27.5391 45.8189 27.2464C45.6285 26.9538 45.5334 26.593 45.5334 26.1641C45.5334 25.7947 45.6016 25.4893 45.7379 25.2479C45.8743 25.0064 46.0604 24.8132 46.2962 24.6683C46.532 24.5234 46.7976 24.4141 47.093 24.3402C47.3913 24.2635 47.6996 24.2081 48.0178 24.174C48.4013 24.1342 48.7124 24.0987 48.951 24.0675C49.1896 24.0334 49.3629 23.9822 49.4709 23.9141C49.5817 23.843 49.6371 23.7337 49.6371 23.5859V23.5604C49.6371 23.2393 49.5419 22.9908 49.3516 22.8146C49.1612 22.6385 48.8871 22.5504 48.5291 22.5504C48.1513 22.5504 47.8516 22.6328 47.63 22.7976C47.4112 22.9624 47.2635 23.157 47.1868 23.3814L45.7464 23.1768C45.8601 22.7791 46.0476 22.4467 46.3089 22.1797C46.5703 21.9098 46.8899 21.7081 47.2678 21.5746C47.6456 21.4382 48.0632 21.37 48.5206 21.37C48.8359 21.37 49.1499 21.407 49.4624 21.4808C49.7749 21.5547 50.0604 21.6768 50.3189 21.8473C50.5774 22.0149 50.7848 22.2436 50.9411 22.5334C51.1001 22.8232 51.1797 23.1854 51.1797 23.62V28.0007H49.6967V27.1016H49.6456C49.5518 27.2834 49.4197 27.4538 49.2493 27.6129C49.0817 27.7692 48.87 27.8956 48.6143 27.9922C48.3615 28.0859 48.0646 28.1328 47.7237 28.1328ZM48.1243 26.9993C48.4339 26.9993 48.7024 26.9382 48.9297 26.8161C49.157 26.6911 49.3317 26.5263 49.4538 26.3217C49.5788 26.1172 49.6413 25.8942 49.6413 25.6527V24.8814C49.593 24.9212 49.5107 24.9581 49.3942 24.9922C49.2805 25.0263 49.1527 25.0561 49.0107 25.0817C48.8686 25.1072 48.728 25.13 48.5888 25.1499C48.4496 25.1697 48.3288 25.1868 48.2266 25.201C47.9964 25.2322 47.7905 25.2834 47.6087 25.3544C47.4268 25.4254 47.2834 25.5249 47.1783 25.6527C47.0732 25.7777 47.0206 25.9396 47.0206 26.1385C47.0206 26.4226 47.1243 26.6371 47.3317 26.782C47.5391 26.9268 47.8033 26.9993 48.1243 26.9993Z" fill="#1DAA39"/>
<path d="M57.9041 23.1854L56.4979 23.3388C56.4581 23.1967 56.3885 23.0632 56.2891 22.9382C56.1925 22.8132 56.0618 22.7124 55.897 22.6357C55.7322 22.5589 55.5305 22.5206 55.2919 22.5206C54.9709 22.5206 54.701 22.5902 54.4822 22.7294C54.2663 22.8686 54.1598 23.049 54.1626 23.2706C54.1598 23.4609 54.2294 23.6158 54.3714 23.7351C54.5163 23.8544 54.755 23.9524 55.0874 24.0291L56.2038 24.2678C56.8232 24.4013 57.2834 24.6129 57.5845 24.9027C57.8885 25.1925 58.0419 25.5717 58.0447 26.0405C58.0419 26.4524 57.9212 26.8161 57.6825 27.1314C57.4467 27.4439 57.1186 27.6882 56.6982 27.8643C56.2777 28.0405 55.7947 28.1286 55.2493 28.1286C54.4482 28.1286 53.8033 27.9609 53.3146 27.6257C52.826 27.2876 52.5348 26.8175 52.4411 26.2152L53.9453 26.0703C54.0135 26.3658 54.1584 26.5888 54.38 26.7393C54.6016 26.8899 54.8899 26.9652 55.245 26.9652C55.6115 26.9652 55.9055 26.8899 56.1271 26.7393C56.3516 26.5888 56.4638 26.4027 56.4638 26.1811C56.4638 25.9936 56.3913 25.8388 56.2464 25.7166C56.1044 25.5945 55.8828 25.5007 55.5817 25.4354L54.4652 25.201C53.8374 25.0703 53.3729 24.8501 53.0717 24.5405C52.7706 24.228 52.6214 23.8331 52.6243 23.3558C52.6214 22.9524 52.7308 22.603 52.9524 22.3075C53.1768 22.0092 53.4879 21.7791 53.8857 21.6172C54.2862 21.4524 54.7479 21.37 55.2706 21.37C56.0376 21.37 56.6413 21.5334 57.0817 21.8601C57.5249 22.1868 57.799 22.6286 57.9041 23.1854Z" fill="#1DAA39"/>
<path d="M64.4901 23.1854L63.0838 23.3388C63.044 23.1967 62.9744 23.0632 62.875 22.9382C62.7784 22.8132 62.6477 22.7124 62.483 22.6357C62.3182 22.5589 62.1165 22.5206 61.8778 22.5206C61.5568 22.5206 61.2869 22.5902 61.0682 22.7294C60.8523 22.8686 60.7457 23.049 60.7486 23.2706C60.7457 23.4609 60.8153 23.6158 60.9574 23.7351C61.1023 23.8544 61.3409 23.9524 61.6733 24.0291L62.7898 24.2678C63.4091 24.4013 63.8693 24.6129 64.1705 24.9027C64.4744 25.1925 64.6278 25.5717 64.6307 26.0405C64.6278 26.4524 64.5071 26.8161 64.2685 27.1314C64.0327 27.4439 63.7045 27.6882 63.2841 27.8643C62.8636 28.0405 62.3807 28.1286 61.8352 28.1286C61.0341 28.1286 60.3892 27.9609 59.9006 27.6257C59.4119 27.2876 59.1207 26.8175 59.027 26.2152L60.5312 26.0703C60.5994 26.3658 60.7443 26.5888 60.9659 26.7393C61.1875 26.8899 61.4759 26.9652 61.831 26.9652C62.1974 26.9652 62.4915 26.8899 62.7131 26.7393C62.9375 26.5888 63.0497 26.4027 63.0497 26.1811C63.0497 25.9936 62.9773 25.8388 62.8324 25.7166C62.6903 25.5945 62.4688 25.5007 62.1676 25.4354L61.0511 25.201C60.4233 25.0703 59.9588 24.8501 59.6577 24.5405C59.3565 24.228 59.2074 23.8331 59.2102 23.3558C59.2074 22.9524 59.3168 22.603 59.5384 22.3075C59.7628 22.0092 60.0739 21.7791 60.4716 21.6172C60.8722 21.4524 61.3338 21.37 61.8565 21.37C62.6236 21.37 63.2273 21.5334 63.6676 21.8601C64.1108 22.1868 64.3849 22.6286 64.4901 23.1854Z" fill="#1DAA39"/>
<path d="M65.9027 28.0007V21.4553H67.4453V28.0007H65.9027ZM66.6783 20.5263C66.434 20.5263 66.2237 20.4453 66.0476 20.2834C65.8714 20.1186 65.7834 19.9212 65.7834 19.6911C65.7834 19.4581 65.8714 19.2607 66.0476 19.0987C66.2237 18.9339 66.434 18.8516 66.6783 18.8516C66.9254 18.8516 67.1357 18.9339 67.3089 19.0987C67.4851 19.2607 67.5732 19.4581 67.5732 19.6911C67.5732 19.9212 67.4851 20.1186 67.3089 20.2834C67.1357 20.4453 66.9254 20.5263 66.6783 20.5263Z" fill="#1DAA39"/>
<path d="M72.3469 21.4553V22.6484H68.4776V21.4553H72.3469ZM69.445 28.0007V20.8374C69.445 20.397 69.5359 20.0305 69.7177 19.7379C69.9023 19.4453 70.1495 19.2266 70.4592 19.0817C70.7688 18.9368 71.1126 18.8643 71.4904 18.8643C71.7575 18.8643 71.9947 18.8857 72.2021 18.9283C72.4094 18.9709 72.5629 19.0092 72.6623 19.0433L72.3555 20.2365C72.2901 20.2166 72.2077 20.1967 72.1083 20.1768C72.0089 20.1541 71.8981 20.1428 71.7759 20.1428C71.489 20.1428 71.2859 20.2124 71.1665 20.3516C71.0501 20.4879 70.9918 20.6839 70.9918 20.9396V28.0007H69.445Z" fill="#1DAA39"/>
<path d="M73.555 28.0007V21.4553H75.0977V28.0007H73.555ZM74.3306 20.5263C74.0863 20.5263 73.8761 20.4453 73.6999 20.2834C73.5238 20.1186 73.4357 19.9212 73.4357 19.6911C73.4357 19.4581 73.5238 19.2607 73.6999 19.0987C73.8761 18.9339 74.0863 18.8516 74.3306 18.8516C74.5778 18.8516 74.788 18.9339 74.9613 19.0987C75.1374 19.2607 75.2255 19.4581 75.2255 19.6911C75.2255 19.9212 75.1374 20.1186 74.9613 20.2834C74.788 20.4453 74.5778 20.5263 74.3306 20.5263Z" fill="#1DAA39"/>
<path d="M79.5817 28.1286C78.9254 28.1286 78.3587 27.9922 77.8814 27.7195C77.407 27.4439 77.0419 27.0547 76.7862 26.5518C76.5305 26.0462 76.4027 25.451 76.4027 24.7663C76.4027 24.093 76.5305 23.5021 76.7862 22.9936C77.0447 22.4822 77.4055 22.0845 77.8686 21.8004C78.3317 21.5135 78.8757 21.37 79.5007 21.37C79.9041 21.37 80.2848 21.4354 80.6428 21.5661C81.0035 21.6939 81.3217 21.8928 81.5973 22.1626C81.8757 22.4325 82.0945 22.7763 82.2535 23.1939C82.4126 23.6087 82.4922 24.103 82.4922 24.6768V25.1499H77.1271V24.1101H81.0135C81.0107 23.8146 80.9467 23.5518 80.8217 23.3217C80.6967 23.0888 80.522 22.9055 80.2976 22.772C80.076 22.6385 79.8175 22.5717 79.522 22.5717C79.2067 22.5717 78.9297 22.6484 78.691 22.8018C78.4524 22.9524 78.2663 23.1513 78.1328 23.3984C78.0021 23.6428 77.9354 23.9112 77.9325 24.2038V25.1115C77.9325 25.4922 78.0021 25.8189 78.1413 26.0916C78.2805 26.3615 78.4751 26.5689 78.7251 26.7138C78.9751 26.8558 79.2678 26.9268 79.603 26.9268C79.8274 26.9268 80.0305 26.8956 80.2124 26.8331C80.3942 26.7678 80.5518 26.6726 80.6854 26.5476C80.8189 26.4226 80.9197 26.2678 80.9879 26.0831L82.4283 26.245C82.3374 26.6257 82.1641 26.9581 81.9084 27.2422C81.6555 27.5234 81.3317 27.7422 80.9368 27.8984C80.5419 28.0518 80.0902 28.1286 79.5817 28.1286Z" fill="#1DAA39"/>
<path d="M86.2262 28.1158C85.712 28.1158 85.2518 27.9837 84.8455 27.7195C84.4393 27.4553 84.1182 27.0717 83.8825 26.5689C83.6467 26.0661 83.5288 25.4553 83.5288 24.7365C83.5288 24.0092 83.6481 23.3956 83.8867 22.8956C84.1282 22.3928 84.4535 22.0135 84.8626 21.7578C85.2717 21.4993 85.7276 21.37 86.2305 21.37C86.614 21.37 86.9293 21.4354 87.1765 21.5661C87.4237 21.6939 87.6197 21.8487 87.7646 22.0305C87.9094 22.2095 88.0217 22.3786 88.1012 22.5376H88.1651V19.2734H89.712V28.0007H88.195V26.9695H88.1012C88.0217 27.1286 87.9066 27.2976 87.756 27.4766C87.6055 27.6527 87.4066 27.8033 87.1594 27.9283C86.9123 28.0533 86.6012 28.1158 86.2262 28.1158ZM86.6566 26.8501C86.9833 26.8501 87.2617 26.7621 87.4918 26.5859C87.7219 26.407 87.8967 26.1584 88.016 25.8402C88.1353 25.522 88.195 25.1513 88.195 24.728C88.195 24.3047 88.1353 23.9368 88.016 23.6243C87.8995 23.3118 87.7262 23.0689 87.4961 22.8956C87.2688 22.7223 86.989 22.6357 86.6566 22.6357C86.3129 22.6357 86.0259 22.7251 85.7958 22.9041C85.5657 23.0831 85.3924 23.3303 85.2759 23.6456C85.1594 23.9609 85.1012 24.3217 85.1012 24.728C85.1012 25.1371 85.1594 25.5021 85.2759 25.8232C85.3952 26.1413 85.57 26.3928 85.8001 26.5774C86.033 26.7592 86.3185 26.8501 86.6566 26.8501Z" fill="#1DAA39"/>
<path d="M12.435 5.02663C12.0504 1.83523 9.63494 0 6.43679 0C2.78658 0 0 2.57742 0 7.09801C0 11.6051 2.73935 14.196 6.43679 14.196C9.97905 14.196 12.1179 11.8413 12.435 9.29759L9.47976 9.28409C9.20312 10.7617 8.04261 11.6119 6.48402 11.6119C4.38565 11.6119 2.962 10.0533 2.962 7.09801C2.962 4.22372 4.36541 2.58416 6.50426 2.58416C8.10334 2.58416 9.2571 3.50852 9.47976 5.02663H12.435Z" fill="white"/>
<path d="M17.4313 14.2028C18.9629 14.2028 19.9547 13.5348 20.4608 12.57H20.5417V14.0071H23.2676V7.01705C23.2676 4.54759 21.176 3.50852 18.8684 3.50852C16.3855 3.50852 14.7527 4.69602 14.3546 6.58523L17.013 6.80114C17.2086 6.11293 17.8226 5.60689 18.8549 5.60689C19.8333 5.60689 20.3933 6.09943 20.3933 6.94957V6.99006C20.3933 7.65803 19.6848 7.74574 17.8833 7.92117C15.8322 8.11009 13.9902 8.7983 13.9902 11.1126C13.9902 13.1637 15.4544 14.2028 17.4313 14.2028ZM18.2544 12.2191C17.3706 12.2191 16.7363 11.8075 16.7363 11.0181C16.7363 10.2085 17.4043 9.81037 18.4164 9.66868C19.0439 9.58097 20.0694 9.43253 20.4135 9.20313V10.3029C20.4135 11.3892 19.5162 12.2191 18.2544 12.2191Z" fill="white"/>
<path d="M28.3718 0.188921H25.4975V14.0071H28.3718V0.188921Z" fill="white"/>
<path d="M33.5486 0.188921H30.6743V14.0071H33.5486V0.188921Z" fill="white"/>
<path d="M35.905 14.0071H38.8265V9.52699H41.2825C44.4604 9.52699 46.3091 7.63104 46.3091 4.87145C46.3091 2.12536 44.4941 0.188921 41.3567 0.188921H35.905V14.0071ZM38.8265 7.18573V2.57742H40.7967C42.4835 2.57742 43.2999 3.49503 43.2999 4.87145C43.2999 6.24112 42.4835 7.18573 40.8102 7.18573H38.8265Z" fill="white"/>
<path d="M50.8297 14.2028C52.3613 14.2028 53.3532 13.5348 53.8592 12.57H53.9402V14.0071H56.666V7.01705C56.666 4.54759 54.5744 3.50852 52.2669 3.50852C49.7839 3.50852 48.1511 4.69602 47.753 6.58523L50.4114 6.80114C50.6071 6.11293 51.2211 5.60689 52.2534 5.60689C53.2317 5.60689 53.7917 6.09943 53.7917 6.94957V6.99006C53.7917 7.65803 53.0833 7.74574 51.2818 7.92117C49.2306 8.11009 47.3887 8.7983 47.3887 11.1126C47.3887 13.1637 48.8528 14.2028 50.8297 14.2028ZM51.6529 12.2191C50.769 12.2191 50.1348 11.8075 50.1348 11.0181C50.1348 10.2085 50.8027 9.81037 51.8148 9.66868C52.4423 9.58097 53.4679 9.43253 53.812 9.20313V10.3029C53.812 11.3892 52.9146 12.2191 51.6529 12.2191Z" fill="white"/>
<path d="M61.7702 8.01563C61.777 6.67969 62.5732 5.89702 63.7337 5.89702C64.8874 5.89702 65.5824 6.6527 65.5756 7.92117V14.0071H68.4499V7.40838C68.4499 4.9929 67.033 3.50852 64.8739 3.50852C63.3356 3.50852 62.2223 4.2642 61.7567 5.47195H61.6353V3.64347H58.896V14.0071H61.7702V8.01563Z" fill="white"/>
<path d="M74.5342 14.1758C76.2075 14.1758 77.0779 13.2109 77.4759 12.3473H77.5974V14.0071H80.4312V0.188921H77.5637V5.38423H77.4759C77.0913 4.54084 76.2614 3.50852 74.5274 3.50852C72.2536 3.50852 70.3307 5.27628 70.3307 8.83878C70.3307 12.3068 72.1727 14.1758 74.5342 14.1758ZM75.445 11.8885C74.0349 11.8885 73.2657 10.6335 73.2657 8.82528C73.2657 7.03054 74.0214 5.79581 75.445 5.79581C76.8417 5.79581 77.6244 6.97656 77.6244 8.82528C77.6244 10.674 76.8282 11.8885 75.445 11.8885Z" fill="white"/>
<path d="M85.7496 14.2028C87.2812 14.2028 88.2731 13.5348 88.7791 12.57H88.8601V14.0071H91.5859V7.01705C91.5859 4.54759 89.4943 3.50852 87.1868 3.50852C84.7038 3.50852 83.071 4.69602 82.6729 6.58523L85.3313 6.80114C85.527 6.11293 86.141 5.60689 87.1733 5.60689C88.1516 5.60689 88.7116 6.09943 88.7116 6.94957V6.99006C88.7116 7.65803 88.0032 7.74574 86.2017 7.92117C84.1506 8.11009 82.3086 8.7983 82.3086 11.1126C82.3086 13.1637 83.7727 14.2028 85.7496 14.2028ZM86.5728 12.2191C85.6889 12.2191 85.0547 11.8075 85.0547 11.0181C85.0547 10.2085 85.7226 9.81037 86.7347 9.66868C87.3622 9.58097 88.3878 9.43253 88.7319 9.20313V10.3029C88.7319 11.3892 87.8345 12.2191 86.5728 12.2191Z" fill="white"/>
<path d="M95.4959 14.1825C96.3596 14.1825 97.1085 13.4606 97.1152 12.5632C97.1085 11.6793 96.3596 10.9574 95.4959 10.9574C94.6053 10.9574 93.8699 11.6793 93.8766 12.5632C93.8699 13.4606 94.6053 14.1825 95.4959 14.1825Z" fill="white"/>
<path d="M104.158 14.2095C106.917 14.2095 108.651 12.5902 108.786 10.2085H106.074C105.905 11.315 105.176 11.9357 104.191 11.9357C102.849 11.9357 101.978 10.8089 101.978 8.82528C101.978 6.86861 102.855 5.74858 104.191 5.74858C105.244 5.74858 105.919 6.44354 106.074 7.47585H108.786C108.665 5.08061 106.85 3.50852 104.144 3.50852C101 3.50852 99.0567 5.68786 99.0567 8.86577C99.0567 12.0167 100.966 14.2095 104.158 14.2095Z" fill="white"/>
<path d="M115.309 14.2095C118.453 14.2095 120.41 12.0572 120.41 8.86577C120.41 5.65412 118.453 3.50852 115.309 3.50852C112.165 3.50852 110.208 5.65412 110.208 8.86577C110.208 12.0572 112.165 14.2095 115.309 14.2095ZM115.322 11.983C113.872 11.983 113.13 10.6538 113.13 8.84553C113.13 7.03729 113.872 5.70135 115.322 5.70135C116.746 5.70135 117.488 7.03729 117.488 8.84553C117.488 10.6538 116.746 11.983 115.322 11.983Z" fill="white"/>
<path d="M122.279 14.0071H125.153V7.78622C125.153 6.63921 125.882 5.87678 126.84 5.87678C127.784 5.87678 128.419 6.5245 128.419 7.54332V14.0071H131.205V7.67827C131.205 6.60547 131.819 5.87678 132.865 5.87678C133.783 5.87678 134.471 6.45028 134.471 7.60405V14.0071H137.338V7.03729C137.338 4.79048 136.002 3.50852 134.073 3.50852C132.555 3.50852 131.374 4.28445 130.949 5.47195H130.841C130.51 4.27095 129.451 3.50852 128.027 3.50852C126.631 3.50852 125.571 4.25071 125.14 5.47195H125.018V3.64347H122.279V14.0071Z" fill="white"/>
<path d="M142.876 6.76705V3.09801H144.671C144.903 3.09801 145.115 3.14607 145.308 3.24219C145.503 3.3383 145.657 3.47751 145.77 3.6598C145.886 3.83878 145.944 4.05753 145.944 4.31605C145.944 4.57457 145.884 4.79498 145.765 4.97727C145.646 5.15956 145.487 5.29877 145.288 5.39489C145.089 5.48769 144.868 5.53409 144.626 5.53409H143.398V4.84304H144.428C144.567 4.84304 144.686 4.7983 144.786 4.70881C144.888 4.61932 144.94 4.48674 144.94 4.31108C144.94 4.12879 144.888 3.99953 144.786 3.9233C144.686 3.84375 144.568 3.80398 144.433 3.80398H143.831V6.76705H142.876ZM145.218 5.07173L146.053 6.76705H145.009L144.229 5.07173H145.218ZM144.313 8.95455C143.763 8.95455 143.248 8.8518 142.767 8.64631C142.286 8.44081 141.864 8.15578 141.499 7.79119C141.135 7.42661 140.85 7.00402 140.644 6.52344C140.439 6.04285 140.336 5.52746 140.336 4.97727C140.336 4.42708 140.439 3.91169 140.644 3.43111C140.85 2.95052 141.135 2.52794 141.499 2.16335C141.864 1.79877 142.286 1.51373 142.767 1.30824C143.248 1.10275 143.763 1 144.313 1C144.863 1 145.379 1.10275 145.859 1.30824C146.34 1.51373 146.763 1.79877 147.127 2.16335C147.492 2.52794 147.777 2.95052 147.982 3.43111C148.188 3.91169 148.29 4.42708 148.29 4.97727C148.29 5.52746 148.188 6.04285 147.982 6.52344C147.777 7.00402 147.492 7.42661 147.127 7.79119C146.763 8.15578 146.34 8.44081 145.859 8.64631C145.379 8.8518 144.863 8.95455 144.313 8.95455ZM144.313 7.90554C144.857 7.90554 145.349 7.77462 145.79 7.51278C146.234 7.24763 146.587 6.89465 146.849 6.45384C147.111 6.00971 147.241 5.51752 147.241 4.97727C147.241 4.43703 147.109 3.9465 146.844 3.50568C146.582 3.06155 146.229 2.70857 145.785 2.44673C145.344 2.18158 144.853 2.04901 144.313 2.04901C143.776 2.04901 143.286 2.18158 142.842 2.44673C142.397 2.70857 142.045 3.06155 141.783 3.50568C141.521 3.9465 141.39 4.43703 141.39 4.97727C141.39 5.51752 141.521 6.00971 141.783 6.45384C142.045 6.89465 142.397 7.24763 142.842 7.51278C143.286 7.77462 143.776 7.90554 144.313 7.90554Z" fill="white"/>
</svg>
