<svg width="25" height="24" viewBox="0 0 25 24" fill="none" xmlns="http://www.w3.org/2000/svg">
<path d="M12.5 22.81C11.81 22.81 11.16 22.46 10.7 21.85L9.2 19.85C9.17 19.81 9.05 19.76 9 19.75H8.5C4.33 19.75 1.75 18.62 1.75 13V8C1.75 3.58 4.08 1.25 8.5 1.25H16.5C20.92 1.25 23.25 3.58 23.25 8V13C23.25 17.42 20.92 19.75 16.5 19.75H16C15.92 19.75 15.85 19.79 15.8 19.85L14.3 21.85C13.84 22.46 13.19 22.81 12.5 22.81ZM8.5 2.75C4.92 2.75 3.25 4.42 3.25 8V13C3.25 17.52 4.8 18.25 8.5 18.25H9C9.51 18.25 10.09 18.54 10.4 18.95L11.9 20.95C12.25 21.41 12.75 21.41 13.1 20.95L14.6 18.95C14.93 18.51 15.45 18.25 16 18.25H16.5C20.08 18.25 21.75 16.58 21.75 13V8C21.75 4.42 20.08 2.75 16.5 2.75H8.5Z" fill="#1DAA39"/>
<path d="M12.5 12C11.94 12 11.5 11.55 11.5 11C11.5 10.45 11.95 10 12.5 10C13.05 10 13.5 10.45 13.5 11C13.5 11.55 13.06 12 12.5 12Z" fill="#1DAA39"/>
<path d="M16.5 12C15.94 12 15.5 11.55 15.5 11C15.5 10.45 15.95 10 16.5 10C17.05 10 17.5 10.45 17.5 11C17.5 11.55 17.06 12 16.5 12Z" fill="#1DAA39"/>
<path d="M8.5 12C7.94 12 7.5 11.55 7.5 11C7.5 10.45 7.95 10 8.5 10C9.05 10 9.5 10.45 9.5 11C9.5 11.55 9.06 12 8.5 12Z" fill="#D3D3D3"/>
</svg>
