<svg width="32" height="32" viewBox="0 0 32 32" fill="none" xmlns="http://www.w3.org/2000/svg">
<path d="M22.667 2.66406H9.33366C5.65366 2.66406 2.66699 5.6374 2.66699 9.30406V17.2774V18.6107C2.66699 22.2774 5.65366 25.2507 9.33366 25.2507H11.3337C11.6937 25.2507 12.1737 25.4907 12.4003 25.7841L14.4003 28.4374C15.2803 29.6107 16.7203 29.6107 17.6003 28.4374L19.6003 25.7841C19.8537 25.4507 20.2537 25.2507 20.667 25.2507H22.667C26.347 25.2507 29.3337 22.2774 29.3337 18.6107V9.30406C29.3337 5.6374 26.347 2.66406 22.667 2.66406ZM10.667 15.9974C9.92033 15.9974 9.33366 15.3974 9.33366 14.6641C9.33366 13.9307 9.93366 13.3307 10.667 13.3307C11.4003 13.3307 12.0003 13.9307 12.0003 14.6641C12.0003 15.3974 11.4137 15.9974 10.667 15.9974ZM16.0003 15.9974C15.2537 15.9974 14.667 15.3974 14.667 14.6641C14.667 13.9307 15.267 13.3307 16.0003 13.3307C16.7337 13.3307 17.3337 13.9307 17.3337 14.6641C17.3337 15.3974 16.747 15.9974 16.0003 15.9974ZM21.3337 15.9974C20.587 15.9974 20.0003 15.3974 20.0003 14.6641C20.0003 13.9307 20.6003 13.3307 21.3337 13.3307C22.067 13.3307 22.667 13.9307 22.667 14.6641C22.667 15.3974 22.0803 15.9974 21.3337 15.9974Z" fill="#D3D3D3"/>
</svg>
