<svg width="42" height="42" viewBox="0 0 32 32" fill="none" xmlns="http://www.w3.org/2000/svg">
<path fill-rule="evenodd" clip-rule="evenodd" d="M3 16.0007C3 13.9817 4.64772 12.334 6.66667 12.334C8.68562 12.334 10.3333 13.9817 10.3333 16.0007C10.3333 18.0196 8.68562 19.6673 6.66667 19.6673C4.64772 19.6673 3 18.0196 3 16.0007ZM6.66667 14.334C5.75228 14.334 5 15.0863 5 16.0007C5 16.915 5.75228 17.6673 6.66667 17.6673C7.58105 17.6673 8.33333 16.915 8.33333 16.0007C8.33333 15.0863 7.58105 14.334 6.66667 14.334Z" fill="#D3D3D3"/>
<path fill-rule="evenodd" clip-rule="evenodd" d="M21.6641 16.0007C21.6641 13.9817 23.3118 12.334 25.3307 12.334C27.3497 12.334 28.9974 13.9817 28.9974 16.0007C28.9974 18.0196 27.3497 19.6673 25.3307 19.6673C23.3118 19.6673 21.6641 18.0196 21.6641 16.0007ZM25.3307 14.334C24.4163 14.334 23.6641 15.0863 23.6641 16.0007C23.6641 16.915 24.4163 17.6673 25.3307 17.6673C26.2451 17.6673 26.9974 16.915 26.9974 16.0007C26.9974 15.0863 26.2451 14.334 25.3307 14.334Z" fill="#D3D3D3"/>
<path fill-rule="evenodd" clip-rule="evenodd" d="M12.3359 16.0007C12.3359 13.9817 13.9837 12.334 16.0026 12.334C18.0216 12.334 19.6693 13.9817 19.6693 16.0007C19.6693 18.0196 18.0216 19.6673 16.0026 19.6673C13.9837 19.6673 12.3359 18.0196 12.3359 16.0007ZM16.0026 14.334C15.0882 14.334 14.3359 15.0863 14.3359 16.0007C14.3359 16.915 15.0882 17.6673 16.0026 17.6673C16.917 17.6673 17.6693 16.915 17.6693 16.0007C17.6693 15.0863 16.917 14.334 16.0026 14.334Z" fill="#D3D3D3"/>
</svg>
