<svg width="24" height="24" viewBox="0 0 24 24" fill="none" xmlns="http://www.w3.org/2000/svg">
<path fill-rule="evenodd" clip-rule="evenodd" d="M4.35917 5.0613C4.36117 5.0613 4.31117 5.1133 4.24817 5.1753C4.00617 5.4103 3.50517 5.8993 3.50012 6.9223C3.49217 8.3533 4.43317 11.0103 8.96417 15.5403C13.4742 20.0483 16.1272 21.0003 17.5612 21.0003H17.5822C18.6052 20.9953 19.0932 20.4933 19.3292 20.2523C19.4012 20.1783 19.4592 20.1243 19.5002 20.0903C20.4962 19.0883 21.0062 18.3423 21.0012 17.8643C20.9942 17.3763 20.3872 16.7993 19.5482 16.0013C19.2812 15.7473 18.9912 15.4713 18.6852 15.1653C17.8922 14.3743 17.4992 14.5093 16.6352 14.8133C15.4402 15.2323 13.8002 15.8023 11.2522 13.2533C8.70017 10.7033 9.27117 9.0653 9.68917 7.8703C9.99117 7.0063 10.1292 6.6123 9.33517 5.8183C9.02417 5.5083 8.74517 5.2143 8.48817 4.9443C7.69517 4.1103 7.12317 3.5073 6.63817 3.5003H6.63017C6.15117 3.5003 5.40717 4.0123 4.35417 5.0653C4.35717 5.0623 4.35817 5.0613 4.35917 5.0613ZM17.5622 22.5003C15.0702 22.5003 11.8212 20.5163 7.90417 16.6013C3.97217 12.6703 1.98517 9.4113 2.00008 6.9143C2.00917 5.2643 2.87417 4.4193 3.19917 4.1023C3.21617 4.0813 3.27417 4.0243 3.29417 4.0043C4.72817 2.5693 5.69517 1.9893 6.65717 2.00015C7.77417 2.0153 8.56917 2.8513 9.57517 3.9103C9.82417 4.1723 10.0942 4.4573 10.3952 4.7573C11.8552 6.2173 11.4392 7.4083 11.1052 8.3643C10.7412 9.4073 10.4262 10.3073 12.3122 12.1933C14.2002 14.0793 15.1002 13.7643 16.1392 13.3973C17.0962 13.0633 18.2842 12.6453 19.7462 14.1053C20.0422 14.4013 20.3232 14.6683 20.5822 14.9153C21.6462 15.9263 22.4862 16.7253 22.5004 17.8453C22.5122 18.8003 21.9322 19.7733 20.5002 21.2063L19.8662 20.7763L20.4022 21.3003C20.0852 21.6253 19.2412 22.4913 17.5902 22.5003H17.5622Z" fill="#1DAA39"/>
</svg>
