<svg width="16" height="16" viewBox="0 0 16 16" xmlns="http://www.w3.org/2000/svg">
<path d="M7.98014 15.1693C4.03348 15.1693 0.813477 11.9559 0.813477 8.0026C0.813477 4.04927 4.03348 0.835938 7.98014 0.835938C11.9268 0.835938 15.1468 4.04927 15.1468 8.0026C15.1468 11.9559 11.9335 15.1693 7.98014 15.1693ZM7.98014 1.83594C4.58014 1.83594 1.81348 4.6026 1.81348 8.0026C1.81348 11.4026 4.58014 14.1693 7.98014 14.1693C11.3801 14.1693 14.1468 11.4026 14.1468 8.0026C14.1468 4.6026 11.3801 1.83594 7.98014 1.83594Z" fill="#1DAA39"/>
<path d="M7.33333 9.76539H8.41667V9.69342C8.43182 8.82221 8.68182 8.43205 9.32576 8.03433C10.0038 7.62524 10.4205 7.04948 10.4205 6.19721C10.4205 4.96615 9.48864 4.13281 8.09848 4.13281C6.82197 4.13281 5.79924 4.87902 5.75 6.24266H6.90152C6.94697 5.43963 7.51894 5.08736 8.09848 5.08736C8.74242 5.08736 9.26515 5.51539 9.26515 6.18584C9.26515 6.75024 8.91288 7.14796 8.46212 7.42827C7.75758 7.86009 7.34091 8.28812 7.33333 9.69342V9.76539ZM7.9053 12.0684C8.31818 12.0684 8.66288 11.7313 8.66288 11.3108C8.66288 10.898 8.31818 10.5571 7.9053 10.5571C7.48864 10.5571 7.14773 10.898 7.14773 11.3108C7.14773 11.7313 7.48864 12.0684 7.9053 12.0684Z" fill="#1DAA39"/>
</svg>
