<svg width="33" height="32" viewBox="0 0 33 32" fill="none" xmlns="http://www.w3.org/2000/svg">
<path d="M28.9995 8.22927C28.4528 7.93594 27.3061 7.62927 25.7461 8.7226L23.7861 10.1093C23.6395 5.9626 21.8395 4.33594 17.4661 4.33594H9.46615C4.90615 4.33594 3.13281 6.10927 3.13281 10.6693V21.3359C3.13281 24.4026 4.79948 27.6693 9.46615 27.6693H17.4661C21.8395 27.6693 23.6395 26.0426 23.7861 21.8959L25.7461 23.2826C26.5728 23.8693 27.2928 24.0559 27.8661 24.0559C28.3595 24.0559 28.7461 23.9093 28.9995 23.7759C29.5461 23.4959 30.4661 22.7359 30.4661 20.8293V11.1759C30.4661 9.26927 29.5461 8.50927 28.9995 8.22927ZM15.4661 15.1759C14.0928 15.1759 12.9595 14.0559 12.9595 12.6693C12.9595 11.2826 14.0928 10.1626 15.4661 10.1626C16.8395 10.1626 17.9728 11.2826 17.9728 12.6693C17.9728 14.0559 16.8395 15.1759 15.4661 15.1759Z" fill="#D3D3D3"/>
</svg>
