<svg width="25" height="24" viewBox="0 0 25 24" fill="none" xmlns="http://www.w3.org/2000/svg">
<path d="M13.38 20.8606H7.31C3.76 20.8606 2.5 18.3706 2.5 16.0506V7.95062C2.5 4.49062 3.85 3.14062 7.31 3.14062H13.38C16.84 3.14062 18.19 4.49062 18.19 7.95062V16.0506C18.19 19.5106 16.84 20.8606 13.38 20.8606ZM7.31 4.66062C4.7 4.66062 4.02 5.34062 4.02 7.95062V16.0506C4.02 17.2806 4.45 19.3406 7.31 19.3406H13.38C15.99 19.3406 16.67 18.6606 16.67 16.0506V7.95062C16.67 5.34062 15.99 4.66062 13.38 4.66062H7.31Z" fill="white"/>
<path d="M21.2797 18.1124C20.8497 18.1124 20.2997 17.9724 19.6697 17.5324L16.9997 15.6624C16.7997 15.5224 16.6797 15.2924 16.6797 15.0424V8.96244C16.6797 8.71244 16.7997 8.48244 16.9997 8.34244L19.6697 6.47244C20.8597 5.64244 21.7297 5.88244 22.1397 6.09244C22.5497 6.31244 23.2497 6.88244 23.2497 8.33244V15.6624C23.2497 17.1124 22.5497 17.6924 22.1397 17.9024C21.9497 18.0124 21.6497 18.1124 21.2797 18.1124ZM18.1897 14.6424L20.5397 16.2824C20.9897 16.5924 21.3097 16.6224 21.4397 16.5524C21.5797 16.4824 21.7297 16.2024 21.7297 15.6624V8.34244C21.7297 7.79244 21.5697 7.52244 21.4397 7.45244C21.3097 7.38244 20.9897 7.41244 20.5397 7.72244L18.1897 9.36244V14.6424Z" fill="white"/>
<path d="M12 11.75C10.76 11.75 9.75 10.74 9.75 9.5C9.75 8.26 10.76 7.25 12 7.25C13.24 7.25 14.25 8.26 14.25 9.5C14.25 10.74 13.24 11.75 12 11.75ZM12 8.75C11.59 8.75 11.25 9.09 11.25 9.5C11.25 9.91 11.59 10.25 12 10.25C12.41 10.25 12.75 9.91 12.75 9.5C12.75 9.09 12.41 8.75 12 8.75Z" fill="white"/>
</svg>
