<svg viewBox="0 0 32 32" fill="none" xmlns="http://www.w3.org/2000/svg">
<path d="M28.1997 8.22927C27.653 7.93594 26.5063 7.62927 24.9463 8.7226L22.9863 10.1093C22.8397 5.9626 21.0397 4.33594 16.6663 4.33594H8.66634C4.10634 4.33594 2.33301 6.10927 2.33301 10.6693V21.3359C2.33301 24.4026 3.99967 27.6693 8.66634 27.6693H16.6663C21.0397 27.6693 22.8397 26.0426 22.9863 21.8959L24.9463 23.2826C25.773 23.8693 26.493 24.0559 27.0663 24.0559C27.5597 24.0559 27.9463 23.9093 28.1997 23.7759C28.7463 23.4959 29.6663 22.7359 29.6663 20.8293V11.1759C29.6663 9.26927 28.7463 8.50927 28.1997 8.22927ZM14.6663 15.1759C13.293 15.1759 12.1597 14.0559 12.1597 12.6693C12.1597 11.2826 13.293 10.1626 14.6663 10.1626C16.0397 10.1626 17.173 11.2826 17.173 12.6693C17.173 14.0559 16.0397 15.1759 14.6663 15.1759Z" fill="#1DAA39"/>
</svg>
