<svg width="24" height="25" viewBox="0 0 24 25" fill="none" xmlns="http://www.w3.org/2000/svg">
<path fill-rule="evenodd" clip-rule="evenodd" d="M12 5.26562C7.58421 5.26562 4 8.84984 4 13.2656C4 17.6814 7.58421 21.2656 12 21.2656C16.4158 21.2656 20 17.6814 20 13.2656C20 8.84984 16.4158 5.26562 12 5.26562ZM2.5 13.2656C2.5 8.02141 6.75579 3.76562 12 3.76562C17.2442 3.76562 21.5 8.02141 21.5 13.2656C21.5 18.5098 17.2442 22.7656 12 22.7656C6.75579 22.7656 2.5 18.5098 2.5 13.2656Z" fill="#202020"/>
<path fill-rule="evenodd" clip-rule="evenodd" d="M12 7.26562C12.4142 7.26562 12.75 7.60141 12.75 8.01562V13.0156C12.75 13.4298 12.4142 13.7656 12 13.7656C11.5858 13.7656 11.25 13.4298 11.25 13.0156V8.01562C11.25 7.60141 11.5858 7.26562 12 7.26562Z" fill="#202020"/>
<path fill-rule="evenodd" clip-rule="evenodd" d="M8.25 2.01562C8.25 1.60141 8.58579 1.26562 9 1.26562H15C15.4142 1.26562 15.75 1.60141 15.75 2.01562C15.75 2.42984 15.4142 2.76562 15 2.76562H9C8.58579 2.76562 8.25 2.42984 8.25 2.01562Z" fill="#202020"/>
</svg>
