<svg width="12" height="10" viewBox="0 0 12 10" fill="none" xmlns="http://www.w3.org/2000/svg">
<path d="M10.8306 1.40061C10.7636 1.33308 10.6839 1.27948 10.5961 1.24291C10.5083 1.20633 10.4142 1.1875 10.3191 1.1875C10.2239 1.1875 10.1298 1.20633 10.042 1.24291C9.95419 1.27948 9.87451 1.33308 9.80754 1.40061L4.44024 6.77511L2.18525 4.51292C2.11571 4.44575 2.03362 4.39293 1.94367 4.35748C1.85372 4.32203 1.75767 4.30465 1.661 4.30632C1.56433 4.30799 1.46894 4.32869 1.38027 4.36723C1.2916 4.40576 1.21138 4.46139 1.14421 4.53093C1.07704 4.60047 1.02422 4.68256 0.988771 4.77251C0.953322 4.86246 0.935938 4.95851 0.93761 5.05518C0.939283 5.15185 0.959979 5.24724 0.998518 5.33591C1.03706 5.42458 1.09268 5.5048 1.16222 5.57197L3.92872 8.33847C3.9957 8.406 4.07538 8.45959 4.16317 8.49617C4.25096 8.53274 4.34513 8.55158 4.44024 8.55158C4.53534 8.55158 4.62951 8.53274 4.7173 8.49617C4.8051 8.45959 4.88478 8.406 4.95175 8.33847L10.8306 2.45966C10.9037 2.39219 10.9621 2.31031 11.002 2.21918C11.0419 2.12804 11.0625 2.02963 11.0625 1.93013C11.0625 1.83064 11.0419 1.73222 11.002 1.64109C10.9621 1.54995 10.9037 1.46807 10.8306 1.40061V1.40061Z" fill="#D3D3D3" stroke="#D3D3D3"/>
</svg>
