<svg viewBox="0 0 40 40" fill="none" xmlns="http://www.w3.org/2000/svg">
<path fill-rule="evenodd" clip-rule="evenodd" d="M15.1969 11.5953C14.0923 11.5953 13.1969 12.4907 13.1969 13.5953C13.1969 14.6999 14.0923 15.5953 15.1969 15.5953C16.3014 15.5953 17.1969 14.6999 17.1969 13.5953C17.1969 12.4907 16.3014 11.5953 15.1969 11.5953ZM10.7969 13.5953C10.7969 11.1653 12.7668 9.19531 15.1969 9.19531C17.6269 9.19531 19.5969 11.1653 19.5969 13.5953C19.5969 16.0254 17.6269 17.9953 15.1969 17.9953C12.7668 17.9953 10.7969 16.0254 10.7969 13.5953Z" fill="#1DAA39"/>
<path fill-rule="evenodd" clip-rule="evenodd" d="M5.74835 5.74835C7.8835 3.6132 11.0785 2.79688 15.1969 2.79688H21.5969C22.2596 2.79688 22.7969 3.33413 22.7969 3.99688C22.7969 4.65962 22.2596 5.19688 21.5969 5.19688H15.1969C11.3152 5.19688 8.91025 5.98055 7.4454 7.4454C5.98055 8.91025 5.19688 11.3152 5.19688 15.1969V24.7969C5.19688 28.6785 5.98055 31.0835 7.4454 32.5483C8.91025 34.0132 11.3152 34.7969 15.1969 34.7969H24.7969C28.6785 34.7969 31.0835 34.0132 32.5483 32.5483C34.0132 31.0835 34.7969 28.6785 34.7969 24.7969V16.7969C34.7969 16.1341 35.3341 15.5969 35.9969 15.5969C36.6596 15.5969 37.1969 16.1341 37.1969 16.7969V24.7969C37.1969 28.9152 36.3806 32.1103 34.2454 34.2454C32.1103 36.3806 28.9152 37.1969 24.7969 37.1969H15.1969C11.0785 37.1969 7.8835 36.3806 5.74835 34.2454C3.6132 32.1103 2.79688 28.9152 2.79688 24.7969V15.1969C2.79688 11.0785 3.6132 7.8835 5.74835 5.74835Z" fill="#1DAA39"/>
<path fill-rule="evenodd" clip-rule="evenodd" d="M24.7969 8.79375C24.7969 8.13101 25.3341 7.59375 25.9969 7.59375H34.7969C35.4596 7.59375 35.9969 8.13101 35.9969 8.79375C35.9969 9.45649 35.4596 9.99375 34.7969 9.99375H25.9969C25.3341 9.99375 24.7969 9.45649 24.7969 8.79375Z" fill="#1DAA39"/>
<path fill-rule="evenodd" clip-rule="evenodd" d="M30.3973 3.19531C31.06 3.19531 31.5973 3.73257 31.5973 4.39531V13.1953C31.5973 13.8581 31.06 14.3953 30.3973 14.3953C29.7345 14.3953 29.1973 13.8581 29.1973 13.1953V4.39531C29.1973 3.73257 29.7345 3.19531 30.3973 3.19531Z" fill="#1DAA39"/>
<path fill-rule="evenodd" clip-rule="evenodd" d="M32.6074 21.711C31.8091 21.0253 30.4575 21.0253 29.6592 21.711L23.0032 27.423C23.003 27.4231 23.0033 27.4229 23.0032 27.423C21.3054 28.8809 18.6249 28.8811 16.9274 27.423L16.9171 27.4142L16.3948 26.9551C15.6773 26.3427 14.4512 26.2675 13.6258 26.8212L5.73817 32.117C5.18794 32.4864 4.44241 32.3398 4.07299 31.7896C3.70356 31.2394 3.85013 30.4938 4.40036 30.1244L12.2884 24.8284C13.9893 23.6873 16.4081 23.8024 17.9633 25.1385L17.9735 25.1472L18.4957 25.6062C19.2945 26.2881 20.6426 26.2868 21.4394 25.6024L28.0954 19.8904C28.0952 19.8905 28.0955 19.8903 28.0954 19.8904C29.7931 18.4325 32.4736 18.4322 34.1711 19.8904C34.1711 19.8904 34.1711 19.8904 34.1711 19.8904L36.7791 22.1304C37.2819 22.5622 37.3394 23.3198 36.9076 23.8226C36.4758 24.3253 35.7182 24.3828 35.2154 23.951L32.6074 21.711Z" fill="#1DAA39"/>
</svg>
