<svg width="16" height="16" viewBox="0 0 16 16" fill="none" xmlns="http://www.w3.org/2000/svg">
<path d="M7.24652 4.86L2.45052 10.342C1.88452 10.987 2.34452 12 3.20352 12H12.7955C12.9878 12.0002 13.176 11.9449 13.3376 11.8409C13.4993 11.7368 13.6275 11.5884 13.707 11.4133C13.7864 11.2383 13.8137 11.044 13.7856 10.8538C13.7575 10.6636 13.6752 10.4856 13.5485 10.341L8.75252 4.861C8.65866 4.75359 8.54291 4.6675 8.41303 4.60852C8.28316 4.54954 8.14217 4.51902 7.99952 4.51902C7.85688 4.51902 7.71589 4.54954 7.58601 4.60852C7.45614 4.6675 7.34038 4.75359 7.24652 4.861V4.86Z" fill="#1DAA39"/>
</svg>
