<svg  viewBox="0 0 32 32" fill="none" xmlns="http://www.w3.org/2000/svg">
<path d="M26.0136 7.7974L18.0936 3.22406C16.8002 2.4774 15.2002 2.4774 13.8936 3.22406L5.98689 7.7974C4.69355 8.54406 3.89355 9.93073 3.89355 11.4374V20.5574C3.89355 22.0507 4.69355 23.4374 5.98689 24.1974L13.9069 28.7707C15.2002 29.5174 16.8002 29.5174 18.1069 28.7707L26.0269 24.1974C27.3202 23.4507 28.1202 22.0641 28.1202 20.5574V11.4374C28.1069 9.93073 27.3069 8.5574 26.0136 7.7974ZM15.0002 10.3307C15.0002 9.78406 15.4536 9.33073 16.0002 9.33073C16.5469 9.33073 17.0002 9.78406 17.0002 10.3307V17.3307C17.0002 17.8774 16.5469 18.3307 16.0002 18.3307C15.4536 18.3307 15.0002 17.8774 15.0002 17.3307V10.3307ZM17.2269 22.1707C17.1602 22.3307 17.0669 22.4774 16.9469 22.6107C16.6936 22.8641 16.3602 22.9974 16.0002 22.9974C15.8269 22.9974 15.6536 22.9574 15.4936 22.8907C15.3202 22.8241 15.1869 22.7307 15.0536 22.6107C14.9336 22.4774 14.8402 22.3307 14.7602 22.1707C14.6936 22.0107 14.6669 21.8374 14.6669 21.6641C14.6669 21.3174 14.8002 20.9707 15.0536 20.7174C15.1869 20.5974 15.3202 20.5041 15.4936 20.4374C15.9869 20.2241 16.5736 20.3441 16.9469 20.7174C17.0669 20.8507 17.1602 20.9841 17.2269 21.1574C17.2936 21.3174 17.3336 21.4907 17.3336 21.6641C17.3336 21.8374 17.2936 22.0107 17.2269 22.1707Z" fill="#FF7B0D"/>
</svg>
