<svg width="25" height="24" viewBox="0 0 25 24" fill="none" xmlns="http://www.w3.org/2000/svg">
<path d="M18.825 7.33276L12.625 3.83275C10.525 2.63275 8.525 2.43275 7.025 3.33275C5.425 4.23275 4.625 6.03275 4.625 8.43275V15.5328C4.625 17.9328 5.525 19.7328 7.025 20.6328C7.725 21.0328 8.425 21.2328 9.225 21.2328C10.325 21.2328 11.525 20.8328 12.725 20.2328L18.925 16.6328C21.025 15.4328 22.125 13.7328 22.125 11.9328C22.125 10.2328 20.925 8.53276 18.825 7.33276ZM18.125 15.4328L11.925 19.0328C10.325 19.9328 8.825 20.0328 7.725 19.4328C6.625 18.8328 6.025 17.4328 6.025 15.6328V8.43275C6.025 6.53276 6.625 5.23275 7.725 4.63275C8.125 4.43275 8.625 4.23276 9.225 4.23276C10.025 4.23276 10.925 4.53276 11.925 5.03276L18.125 8.63275C19.725 9.53275 20.625 10.7328 20.625 12.0328C20.625 13.2328 19.725 14.4328 18.125 15.4328Z" fill="#3E3E3E"/>
</svg>
